<?xml version="1.0" encoding="utf-8" standalone="no"?>
<!DOCTYPE svg PUBLIC "-//W3C//DTD SVG 1.1//EN"
  "http://www.w3.org/Graphics/SVG/1.1/DTD/svg11.dtd">
<svg xmlns:xlink="http://www.w3.org/1999/xlink" width="460.8pt" height="345.6pt" viewBox="0 0 460.8 345.6" xmlns="http://www.w3.org/2000/svg" version="1.1">
 <metadata>
  <rdf:RDF xmlns:dc="http://purl.org/dc/elements/1.1/" xmlns:cc="http://creativecommons.org/ns#" xmlns:rdf="http://www.w3.org/1999/02/22-rdf-syntax-ns#">
   <cc:Work>
    <dc:type rdf:resource="http://purl.org/dc/dcmitype/StillImage"/>
    <dc:date>2025-05-19T16:02:44.764345</dc:date>
    <dc:format>image/svg+xml</dc:format>
    <dc:creator>
     <cc:Agent>
      <dc:title>Matplotlib v3.10.3, https://matplotlib.org/</dc:title>
     </cc:Agent>
    </dc:creator>
   </cc:Work>
  </rdf:RDF>
 </metadata>
 <defs>
  <style type="text/css">*{stroke-linejoin: round; stroke-linecap: butt}</style>
 </defs>
 <g id="figure_1">
  <g id="patch_1">
   <path d="M 0 345.6 
L 460.8 345.6 
L 460.8 0 
L 0 0 
z
" style="fill: #ffffff"/>
  </g>
  <g id="axes_1">
   <g id="patch_2">
    <path d="M 57.6 307.584 
L 414.72 307.584 
L 414.72 41.472 
L 57.6 41.472 
z
" style="fill: #ffffff"/>
   </g>
   <g id="matplotlib.axis_1">
    <g id="xtick_1">
     <g id="line2d_1">
      <defs>
       <path id="maaa150e150" d="M 0 0 
L 0 3.5 
" style="stroke: #000000; stroke-width: 0.8"/>
      </defs>
      <g>
       <use xlink:href="#maaa150e150" x="73.832727" y="307.584" style="stroke: #000000; stroke-width: 0.8"/>
      </g>
     </g>
     <g id="text_1">
      <!-- 0 -->
      <g transform="translate(70.651477 322.182437) scale(0.1 -0.1)">
       <defs>
        <path id="DejaVuSans-30" d="M 2034 4250 
Q 1547 4250 1301 3770 
Q 1056 3291 1056 2328 
Q 1056 1369 1301 889 
Q 1547 409 2034 409 
Q 2525 409 2770 889 
Q 3016 1369 3016 2328 
Q 3016 3291 2770 3770 
Q 2525 4250 2034 4250 
z
M 2034 4750 
Q 2819 4750 3233 4129 
Q 3647 3509 3647 2328 
Q 3647 1150 3233 529 
Q 2819 -91 2034 -91 
Q 1250 -91 836 529 
Q 422 1150 422 2328 
Q 422 3509 836 4129 
Q 1250 4750 2034 4750 
z
" transform="scale(0.015625)"/>
       </defs>
       <use xlink:href="#DejaVuSans-30"/>
      </g>
     </g>
    </g>
    <g id="xtick_2">
     <g id="line2d_2">
      <g>
       <use xlink:href="#maaa150e150" x="147.283982" y="307.584" style="stroke: #000000; stroke-width: 0.8"/>
      </g>
     </g>
     <g id="text_2">
      <!-- 10 -->
      <g transform="translate(140.921482 322.182437) scale(0.1 -0.1)">
       <defs>
        <path id="DejaVuSans-31" d="M 794 531 
L 1825 531 
L 1825 4091 
L 703 3866 
L 703 4441 
L 1819 4666 
L 2450 4666 
L 2450 531 
L 3481 531 
L 3481 0 
L 794 0 
L 794 531 
z
" transform="scale(0.015625)"/>
       </defs>
       <use xlink:href="#DejaVuSans-31"/>
       <use xlink:href="#DejaVuSans-30" transform="translate(63.623047 0)"/>
      </g>
     </g>
    </g>
    <g id="xtick_3">
     <g id="line2d_3">
      <g>
       <use xlink:href="#maaa150e150" x="220.735237" y="307.584" style="stroke: #000000; stroke-width: 0.8"/>
      </g>
     </g>
     <g id="text_3">
      <!-- 20 -->
      <g transform="translate(214.372737 322.182437) scale(0.1 -0.1)">
       <defs>
        <path id="DejaVuSans-32" d="M 1228 531 
L 3431 531 
L 3431 0 
L 469 0 
L 469 531 
Q 828 903 1448 1529 
Q 2069 2156 2228 2338 
Q 2531 2678 2651 2914 
Q 2772 3150 2772 3378 
Q 2772 3750 2511 3984 
Q 2250 4219 1831 4219 
Q 1534 4219 1204 4116 
Q 875 4013 500 3803 
L 500 4441 
Q 881 4594 1212 4672 
Q 1544 4750 1819 4750 
Q 2544 4750 2975 4387 
Q 3406 4025 3406 3419 
Q 3406 3131 3298 2873 
Q 3191 2616 2906 2266 
Q 2828 2175 2409 1742 
Q 1991 1309 1228 531 
z
" transform="scale(0.015625)"/>
       </defs>
       <use xlink:href="#DejaVuSans-32"/>
       <use xlink:href="#DejaVuSans-30" transform="translate(63.623047 0)"/>
      </g>
     </g>
    </g>
    <g id="xtick_4">
     <g id="line2d_4">
      <g>
       <use xlink:href="#maaa150e150" x="294.186491" y="307.584" style="stroke: #000000; stroke-width: 0.8"/>
      </g>
     </g>
     <g id="text_4">
      <!-- 30 -->
      <g transform="translate(287.823991 322.182437) scale(0.1 -0.1)">
       <defs>
        <path id="DejaVuSans-33" d="M 2597 2516 
Q 3050 2419 3304 2112 
Q 3559 1806 3559 1356 
Q 3559 666 3084 287 
Q 2609 -91 1734 -91 
Q 1441 -91 1130 -33 
Q 819 25 488 141 
L 488 750 
Q 750 597 1062 519 
Q 1375 441 1716 441 
Q 2309 441 2620 675 
Q 2931 909 2931 1356 
Q 2931 1769 2642 2001 
Q 2353 2234 1838 2234 
L 1294 2234 
L 1294 2753 
L 1863 2753 
Q 2328 2753 2575 2939 
Q 2822 3125 2822 3475 
Q 2822 3834 2567 4026 
Q 2313 4219 1838 4219 
Q 1578 4219 1281 4162 
Q 984 4106 628 3988 
L 628 4550 
Q 988 4650 1302 4700 
Q 1616 4750 1894 4750 
Q 2613 4750 3031 4423 
Q 3450 4097 3450 3541 
Q 3450 3153 3228 2886 
Q 3006 2619 2597 2516 
z
" transform="scale(0.015625)"/>
       </defs>
       <use xlink:href="#DejaVuSans-33"/>
       <use xlink:href="#DejaVuSans-30" transform="translate(63.623047 0)"/>
      </g>
     </g>
    </g>
    <g id="xtick_5">
     <g id="line2d_5">
      <g>
       <use xlink:href="#maaa150e150" x="367.637746" y="307.584" style="stroke: #000000; stroke-width: 0.8"/>
      </g>
     </g>
     <g id="text_5">
      <!-- 40 -->
      <g transform="translate(361.275246 322.182437) scale(0.1 -0.1)">
       <defs>
        <path id="DejaVuSans-34" d="M 2419 4116 
L 825 1625 
L 2419 1625 
L 2419 4116 
z
M 2253 4666 
L 3047 4666 
L 3047 1625 
L 3713 1625 
L 3713 1100 
L 3047 1100 
L 3047 0 
L 2419 0 
L 2419 1100 
L 313 1100 
L 313 1709 
L 2253 4666 
z
" transform="scale(0.015625)"/>
       </defs>
       <use xlink:href="#DejaVuSans-34"/>
       <use xlink:href="#DejaVuSans-30" transform="translate(63.623047 0)"/>
      </g>
     </g>
    </g>
    <g id="text_6">
     <!-- ligand center of mass distance -->
     <g transform="translate(159.207656 335.860562) scale(0.1 -0.1)">
      <defs>
       <path id="DejaVuSans-6c" d="M 603 4863 
L 1178 4863 
L 1178 0 
L 603 0 
L 603 4863 
z
" transform="scale(0.015625)"/>
       <path id="DejaVuSans-69" d="M 603 3500 
L 1178 3500 
L 1178 0 
L 603 0 
L 603 3500 
z
M 603 4863 
L 1178 4863 
L 1178 4134 
L 603 4134 
L 603 4863 
z
" transform="scale(0.015625)"/>
       <path id="DejaVuSans-67" d="M 2906 1791 
Q 2906 2416 2648 2759 
Q 2391 3103 1925 3103 
Q 1463 3103 1205 2759 
Q 947 2416 947 1791 
Q 947 1169 1205 825 
Q 1463 481 1925 481 
Q 2391 481 2648 825 
Q 2906 1169 2906 1791 
z
M 3481 434 
Q 3481 -459 3084 -895 
Q 2688 -1331 1869 -1331 
Q 1566 -1331 1297 -1286 
Q 1028 -1241 775 -1147 
L 775 -588 
Q 1028 -725 1275 -790 
Q 1522 -856 1778 -856 
Q 2344 -856 2625 -561 
Q 2906 -266 2906 331 
L 2906 616 
Q 2728 306 2450 153 
Q 2172 0 1784 0 
Q 1141 0 747 490 
Q 353 981 353 1791 
Q 353 2603 747 3093 
Q 1141 3584 1784 3584 
Q 2172 3584 2450 3431 
Q 2728 3278 2906 2969 
L 2906 3500 
L 3481 3500 
L 3481 434 
z
" transform="scale(0.015625)"/>
       <path id="DejaVuSans-61" d="M 2194 1759 
Q 1497 1759 1228 1600 
Q 959 1441 959 1056 
Q 959 750 1161 570 
Q 1363 391 1709 391 
Q 2188 391 2477 730 
Q 2766 1069 2766 1631 
L 2766 1759 
L 2194 1759 
z
M 3341 1997 
L 3341 0 
L 2766 0 
L 2766 531 
Q 2569 213 2275 61 
Q 1981 -91 1556 -91 
Q 1019 -91 701 211 
Q 384 513 384 1019 
Q 384 1609 779 1909 
Q 1175 2209 1959 2209 
L 2766 2209 
L 2766 2266 
Q 2766 2663 2505 2880 
Q 2244 3097 1772 3097 
Q 1472 3097 1187 3025 
Q 903 2953 641 2809 
L 641 3341 
Q 956 3463 1253 3523 
Q 1550 3584 1831 3584 
Q 2591 3584 2966 3190 
Q 3341 2797 3341 1997 
z
" transform="scale(0.015625)"/>
       <path id="DejaVuSans-6e" d="M 3513 2113 
L 3513 0 
L 2938 0 
L 2938 2094 
Q 2938 2591 2744 2837 
Q 2550 3084 2163 3084 
Q 1697 3084 1428 2787 
Q 1159 2491 1159 1978 
L 1159 0 
L 581 0 
L 581 3500 
L 1159 3500 
L 1159 2956 
Q 1366 3272 1645 3428 
Q 1925 3584 2291 3584 
Q 2894 3584 3203 3211 
Q 3513 2838 3513 2113 
z
" transform="scale(0.015625)"/>
       <path id="DejaVuSans-64" d="M 2906 2969 
L 2906 4863 
L 3481 4863 
L 3481 0 
L 2906 0 
L 2906 525 
Q 2725 213 2448 61 
Q 2172 -91 1784 -91 
Q 1150 -91 751 415 
Q 353 922 353 1747 
Q 353 2572 751 3078 
Q 1150 3584 1784 3584 
Q 2172 3584 2448 3432 
Q 2725 3281 2906 2969 
z
M 947 1747 
Q 947 1113 1208 752 
Q 1469 391 1925 391 
Q 2381 391 2643 752 
Q 2906 1113 2906 1747 
Q 2906 2381 2643 2742 
Q 2381 3103 1925 3103 
Q 1469 3103 1208 2742 
Q 947 2381 947 1747 
z
" transform="scale(0.015625)"/>
       <path id="DejaVuSans-20" transform="scale(0.015625)"/>
       <path id="DejaVuSans-63" d="M 3122 3366 
L 3122 2828 
Q 2878 2963 2633 3030 
Q 2388 3097 2138 3097 
Q 1578 3097 1268 2742 
Q 959 2388 959 1747 
Q 959 1106 1268 751 
Q 1578 397 2138 397 
Q 2388 397 2633 464 
Q 2878 531 3122 666 
L 3122 134 
Q 2881 22 2623 -34 
Q 2366 -91 2075 -91 
Q 1284 -91 818 406 
Q 353 903 353 1747 
Q 353 2603 823 3093 
Q 1294 3584 2113 3584 
Q 2378 3584 2631 3529 
Q 2884 3475 3122 3366 
z
" transform="scale(0.015625)"/>
       <path id="DejaVuSans-65" d="M 3597 1894 
L 3597 1613 
L 953 1613 
Q 991 1019 1311 708 
Q 1631 397 2203 397 
Q 2534 397 2845 478 
Q 3156 559 3463 722 
L 3463 178 
Q 3153 47 2828 -22 
Q 2503 -91 2169 -91 
Q 1331 -91 842 396 
Q 353 884 353 1716 
Q 353 2575 817 3079 
Q 1281 3584 2069 3584 
Q 2775 3584 3186 3129 
Q 3597 2675 3597 1894 
z
M 3022 2063 
Q 3016 2534 2758 2815 
Q 2500 3097 2075 3097 
Q 1594 3097 1305 2825 
Q 1016 2553 972 2059 
L 3022 2063 
z
" transform="scale(0.015625)"/>
       <path id="DejaVuSans-74" d="M 1172 4494 
L 1172 3500 
L 2356 3500 
L 2356 3053 
L 1172 3053 
L 1172 1153 
Q 1172 725 1289 603 
Q 1406 481 1766 481 
L 2356 481 
L 2356 0 
L 1766 0 
Q 1100 0 847 248 
Q 594 497 594 1153 
L 594 3053 
L 172 3053 
L 172 3500 
L 594 3500 
L 594 4494 
L 1172 4494 
z
" transform="scale(0.015625)"/>
       <path id="DejaVuSans-72" d="M 2631 2963 
Q 2534 3019 2420 3045 
Q 2306 3072 2169 3072 
Q 1681 3072 1420 2755 
Q 1159 2438 1159 1844 
L 1159 0 
L 581 0 
L 581 3500 
L 1159 3500 
L 1159 2956 
Q 1341 3275 1631 3429 
Q 1922 3584 2338 3584 
Q 2397 3584 2469 3576 
Q 2541 3569 2628 3553 
L 2631 2963 
z
" transform="scale(0.015625)"/>
       <path id="DejaVuSans-6f" d="M 1959 3097 
Q 1497 3097 1228 2736 
Q 959 2375 959 1747 
Q 959 1119 1226 758 
Q 1494 397 1959 397 
Q 2419 397 2687 759 
Q 2956 1122 2956 1747 
Q 2956 2369 2687 2733 
Q 2419 3097 1959 3097 
z
M 1959 3584 
Q 2709 3584 3137 3096 
Q 3566 2609 3566 1747 
Q 3566 888 3137 398 
Q 2709 -91 1959 -91 
Q 1206 -91 779 398 
Q 353 888 353 1747 
Q 353 2609 779 3096 
Q 1206 3584 1959 3584 
z
" transform="scale(0.015625)"/>
       <path id="DejaVuSans-66" d="M 2375 4863 
L 2375 4384 
L 1825 4384 
Q 1516 4384 1395 4259 
Q 1275 4134 1275 3809 
L 1275 3500 
L 2222 3500 
L 2222 3053 
L 1275 3053 
L 1275 0 
L 697 0 
L 697 3053 
L 147 3053 
L 147 3500 
L 697 3500 
L 697 3744 
Q 697 4328 969 4595 
Q 1241 4863 1831 4863 
L 2375 4863 
z
" transform="scale(0.015625)"/>
       <path id="DejaVuSans-6d" d="M 3328 2828 
Q 3544 3216 3844 3400 
Q 4144 3584 4550 3584 
Q 5097 3584 5394 3201 
Q 5691 2819 5691 2113 
L 5691 0 
L 5113 0 
L 5113 2094 
Q 5113 2597 4934 2840 
Q 4756 3084 4391 3084 
Q 3944 3084 3684 2787 
Q 3425 2491 3425 1978 
L 3425 0 
L 2847 0 
L 2847 2094 
Q 2847 2600 2669 2842 
Q 2491 3084 2119 3084 
Q 1678 3084 1418 2786 
Q 1159 2488 1159 1978 
L 1159 0 
L 581 0 
L 581 3500 
L 1159 3500 
L 1159 2956 
Q 1356 3278 1631 3431 
Q 1906 3584 2284 3584 
Q 2666 3584 2933 3390 
Q 3200 3197 3328 2828 
z
" transform="scale(0.015625)"/>
       <path id="DejaVuSans-73" d="M 2834 3397 
L 2834 2853 
Q 2591 2978 2328 3040 
Q 2066 3103 1784 3103 
Q 1356 3103 1142 2972 
Q 928 2841 928 2578 
Q 928 2378 1081 2264 
Q 1234 2150 1697 2047 
L 1894 2003 
Q 2506 1872 2764 1633 
Q 3022 1394 3022 966 
Q 3022 478 2636 193 
Q 2250 -91 1575 -91 
Q 1294 -91 989 -36 
Q 684 19 347 128 
L 347 722 
Q 666 556 975 473 
Q 1284 391 1588 391 
Q 1994 391 2212 530 
Q 2431 669 2431 922 
Q 2431 1156 2273 1281 
Q 2116 1406 1581 1522 
L 1381 1569 
Q 847 1681 609 1914 
Q 372 2147 372 2553 
Q 372 3047 722 3315 
Q 1072 3584 1716 3584 
Q 2034 3584 2315 3537 
Q 2597 3491 2834 3397 
z
" transform="scale(0.015625)"/>
      </defs>
      <use xlink:href="#DejaVuSans-6c"/>
      <use xlink:href="#DejaVuSans-69" transform="translate(27.783203 0)"/>
      <use xlink:href="#DejaVuSans-67" transform="translate(55.566406 0)"/>
      <use xlink:href="#DejaVuSans-61" transform="translate(119.042969 0)"/>
      <use xlink:href="#DejaVuSans-6e" transform="translate(180.322266 0)"/>
      <use xlink:href="#DejaVuSans-64" transform="translate(243.701172 0)"/>
      <use xlink:href="#DejaVuSans-20" transform="translate(307.177734 0)"/>
      <use xlink:href="#DejaVuSans-63" transform="translate(338.964844 0)"/>
      <use xlink:href="#DejaVuSans-65" transform="translate(393.945312 0)"/>
      <use xlink:href="#DejaVuSans-6e" transform="translate(455.46875 0)"/>
      <use xlink:href="#DejaVuSans-74" transform="translate(518.847656 0)"/>
      <use xlink:href="#DejaVuSans-65" transform="translate(558.056641 0)"/>
      <use xlink:href="#DejaVuSans-72" transform="translate(619.580078 0)"/>
      <use xlink:href="#DejaVuSans-20" transform="translate(660.693359 0)"/>
      <use xlink:href="#DejaVuSans-6f" transform="translate(692.480469 0)"/>
      <use xlink:href="#DejaVuSans-66" transform="translate(753.662109 0)"/>
      <use xlink:href="#DejaVuSans-20" transform="translate(788.867188 0)"/>
      <use xlink:href="#DejaVuSans-6d" transform="translate(820.654297 0)"/>
      <use xlink:href="#DejaVuSans-61" transform="translate(918.066406 0)"/>
      <use xlink:href="#DejaVuSans-73" transform="translate(979.345703 0)"/>
      <use xlink:href="#DejaVuSans-73" transform="translate(1031.445312 0)"/>
      <use xlink:href="#DejaVuSans-20" transform="translate(1083.544922 0)"/>
      <use xlink:href="#DejaVuSans-64" transform="translate(1115.332031 0)"/>
      <use xlink:href="#DejaVuSans-69" transform="translate(1178.808594 0)"/>
      <use xlink:href="#DejaVuSans-73" transform="translate(1206.591797 0)"/>
      <use xlink:href="#DejaVuSans-74" transform="translate(1258.691406 0)"/>
      <use xlink:href="#DejaVuSans-61" transform="translate(1297.900391 0)"/>
      <use xlink:href="#DejaVuSans-6e" transform="translate(1359.179688 0)"/>
      <use xlink:href="#DejaVuSans-63" transform="translate(1422.558594 0)"/>
      <use xlink:href="#DejaVuSans-65" transform="translate(1477.539062 0)"/>
     </g>
     <!-- from bound state (Angstroms) -->
     <g transform="translate(160.642031 347.058375) scale(0.1 -0.1)">
      <defs>
       <path id="DejaVuSans-62" d="M 3116 1747 
Q 3116 2381 2855 2742 
Q 2594 3103 2138 3103 
Q 1681 3103 1420 2742 
Q 1159 2381 1159 1747 
Q 1159 1113 1420 752 
Q 1681 391 2138 391 
Q 2594 391 2855 752 
Q 3116 1113 3116 1747 
z
M 1159 2969 
Q 1341 3281 1617 3432 
Q 1894 3584 2278 3584 
Q 2916 3584 3314 3078 
Q 3713 2572 3713 1747 
Q 3713 922 3314 415 
Q 2916 -91 2278 -91 
Q 1894 -91 1617 61 
Q 1341 213 1159 525 
L 1159 0 
L 581 0 
L 581 4863 
L 1159 4863 
L 1159 2969 
z
" transform="scale(0.015625)"/>
       <path id="DejaVuSans-75" d="M 544 1381 
L 544 3500 
L 1119 3500 
L 1119 1403 
Q 1119 906 1312 657 
Q 1506 409 1894 409 
Q 2359 409 2629 706 
Q 2900 1003 2900 1516 
L 2900 3500 
L 3475 3500 
L 3475 0 
L 2900 0 
L 2900 538 
Q 2691 219 2414 64 
Q 2138 -91 1772 -91 
Q 1169 -91 856 284 
Q 544 659 544 1381 
z
M 1991 3584 
L 1991 3584 
z
" transform="scale(0.015625)"/>
       <path id="DejaVuSans-28" d="M 1984 4856 
Q 1566 4138 1362 3434 
Q 1159 2731 1159 2009 
Q 1159 1288 1364 580 
Q 1569 -128 1984 -844 
L 1484 -844 
Q 1016 -109 783 600 
Q 550 1309 550 2009 
Q 550 2706 781 3412 
Q 1013 4119 1484 4856 
L 1984 4856 
z
" transform="scale(0.015625)"/>
       <path id="DejaVuSans-41" d="M 2188 4044 
L 1331 1722 
L 3047 1722 
L 2188 4044 
z
M 1831 4666 
L 2547 4666 
L 4325 0 
L 3669 0 
L 3244 1197 
L 1141 1197 
L 716 0 
L 50 0 
L 1831 4666 
z
" transform="scale(0.015625)"/>
       <path id="DejaVuSans-29" d="M 513 4856 
L 1013 4856 
Q 1481 4119 1714 3412 
Q 1947 2706 1947 2009 
Q 1947 1309 1714 600 
Q 1481 -109 1013 -844 
L 513 -844 
Q 928 -128 1133 580 
Q 1338 1288 1338 2009 
Q 1338 2731 1133 3434 
Q 928 4138 513 4856 
z
" transform="scale(0.015625)"/>
      </defs>
      <use xlink:href="#DejaVuSans-66"/>
      <use xlink:href="#DejaVuSans-72" transform="translate(35.205078 0)"/>
      <use xlink:href="#DejaVuSans-6f" transform="translate(74.068359 0)"/>
      <use xlink:href="#DejaVuSans-6d" transform="translate(135.25 0)"/>
      <use xlink:href="#DejaVuSans-20" transform="translate(232.662109 0)"/>
      <use xlink:href="#DejaVuSans-62" transform="translate(264.449219 0)"/>
      <use xlink:href="#DejaVuSans-6f" transform="translate(327.925781 0)"/>
      <use xlink:href="#DejaVuSans-75" transform="translate(389.107422 0)"/>
      <use xlink:href="#DejaVuSans-6e" transform="translate(452.486328 0)"/>
      <use xlink:href="#DejaVuSans-64" transform="translate(515.865234 0)"/>
      <use xlink:href="#DejaVuSans-20" transform="translate(579.341797 0)"/>
      <use xlink:href="#DejaVuSans-73" transform="translate(611.128906 0)"/>
      <use xlink:href="#DejaVuSans-74" transform="translate(663.228516 0)"/>
      <use xlink:href="#DejaVuSans-61" transform="translate(702.4375 0)"/>
      <use xlink:href="#DejaVuSans-74" transform="translate(763.716797 0)"/>
      <use xlink:href="#DejaVuSans-65" transform="translate(802.925781 0)"/>
      <use xlink:href="#DejaVuSans-20" transform="translate(864.449219 0)"/>
      <use xlink:href="#DejaVuSans-28" transform="translate(896.236328 0)"/>
      <use xlink:href="#DejaVuSans-41" transform="translate(935.25 0)"/>
      <use xlink:href="#DejaVuSans-6e" transform="translate(1003.658203 0)"/>
      <use xlink:href="#DejaVuSans-67" transform="translate(1067.037109 0)"/>
      <use xlink:href="#DejaVuSans-73" transform="translate(1130.513672 0)"/>
      <use xlink:href="#DejaVuSans-74" transform="translate(1182.613281 0)"/>
      <use xlink:href="#DejaVuSans-72" transform="translate(1221.822266 0)"/>
      <use xlink:href="#DejaVuSans-6f" transform="translate(1260.685547 0)"/>
      <use xlink:href="#DejaVuSans-6d" transform="translate(1321.867188 0)"/>
      <use xlink:href="#DejaVuSans-73" transform="translate(1419.279297 0)"/>
      <use xlink:href="#DejaVuSans-29" transform="translate(1471.378906 0)"/>
     </g>
    </g>
   </g>
   <g id="matplotlib.axis_2">
    <g id="ytick_1">
     <g id="line2d_6">
      <defs>
       <path id="m08b9f500a4" d="M 0 0 
L -3.5 0 
" style="stroke: #000000; stroke-width: 0.8"/>
      </defs>
      <g>
       <use xlink:href="#m08b9f500a4" x="57.6" y="295.488" style="stroke: #000000; stroke-width: 0.8"/>
      </g>
     </g>
     <g id="text_7">
      <!-- 0 -->
      <g transform="translate(44.2375 299.287219) scale(0.1 -0.1)">
       <use xlink:href="#DejaVuSans-30"/>
      </g>
     </g>
    </g>
    <g id="ytick_2">
     <g id="line2d_7">
      <g>
       <use xlink:href="#m08b9f500a4" x="57.6" y="254.457435" style="stroke: #000000; stroke-width: 0.8"/>
      </g>
     </g>
     <g id="text_8">
      <!-- 5 -->
      <g transform="translate(44.2375 258.256654) scale(0.1 -0.1)">
       <defs>
        <path id="DejaVuSans-35" d="M 691 4666 
L 3169 4666 
L 3169 4134 
L 1269 4134 
L 1269 2991 
Q 1406 3038 1543 3061 
Q 1681 3084 1819 3084 
Q 2600 3084 3056 2656 
Q 3513 2228 3513 1497 
Q 3513 744 3044 326 
Q 2575 -91 1722 -91 
Q 1428 -91 1123 -41 
Q 819 9 494 109 
L 494 744 
Q 775 591 1075 516 
Q 1375 441 1709 441 
Q 2250 441 2565 725 
Q 2881 1009 2881 1497 
Q 2881 1984 2565 2268 
Q 2250 2553 1709 2553 
Q 1456 2553 1204 2497 
Q 953 2441 691 2322 
L 691 4666 
z
" transform="scale(0.015625)"/>
       </defs>
       <use xlink:href="#DejaVuSans-35"/>
      </g>
     </g>
    </g>
    <g id="ytick_3">
     <g id="line2d_8">
      <g>
       <use xlink:href="#m08b9f500a4" x="57.6" y="213.42687" style="stroke: #000000; stroke-width: 0.8"/>
      </g>
     </g>
     <g id="text_9">
      <!-- 10 -->
      <g transform="translate(37.875 217.226089) scale(0.1 -0.1)">
       <use xlink:href="#DejaVuSans-31"/>
       <use xlink:href="#DejaVuSans-30" transform="translate(63.623047 0)"/>
      </g>
     </g>
    </g>
    <g id="ytick_4">
     <g id="line2d_9">
      <g>
       <use xlink:href="#m08b9f500a4" x="57.6" y="172.396305" style="stroke: #000000; stroke-width: 0.8"/>
      </g>
     </g>
     <g id="text_10">
      <!-- 15 -->
      <g transform="translate(37.875 176.195524) scale(0.1 -0.1)">
       <use xlink:href="#DejaVuSans-31"/>
       <use xlink:href="#DejaVuSans-35" transform="translate(63.623047 0)"/>
      </g>
     </g>
    </g>
    <g id="ytick_5">
     <g id="line2d_10">
      <g>
       <use xlink:href="#m08b9f500a4" x="57.6" y="131.36574" style="stroke: #000000; stroke-width: 0.8"/>
      </g>
     </g>
     <g id="text_11">
      <!-- 20 -->
      <g transform="translate(37.875 135.164959) scale(0.1 -0.1)">
       <use xlink:href="#DejaVuSans-32"/>
       <use xlink:href="#DejaVuSans-30" transform="translate(63.623047 0)"/>
      </g>
     </g>
    </g>
    <g id="ytick_6">
     <g id="line2d_11">
      <g>
       <use xlink:href="#m08b9f500a4" x="57.6" y="90.335176" style="stroke: #000000; stroke-width: 0.8"/>
      </g>
     </g>
     <g id="text_12">
      <!-- 25 -->
      <g transform="translate(37.875 94.134394) scale(0.1 -0.1)">
       <use xlink:href="#DejaVuSans-32"/>
       <use xlink:href="#DejaVuSans-35" transform="translate(63.623047 0)"/>
      </g>
     </g>
    </g>
    <g id="ytick_7">
     <g id="line2d_12">
      <g>
       <use xlink:href="#m08b9f500a4" x="57.6" y="49.304611" style="stroke: #000000; stroke-width: 0.8"/>
      </g>
     </g>
     <g id="text_13">
      <!-- 30 -->
      <g transform="translate(37.875 53.103829) scale(0.1 -0.1)">
       <use xlink:href="#DejaVuSans-33"/>
       <use xlink:href="#DejaVuSans-30" transform="translate(63.623047 0)"/>
      </g>
     </g>
    </g>
    <g id="text_14">
     <!-- free energy (kT) -->
     <g transform="translate(31.795312 214.836594) rotate(-90) scale(0.1 -0.1)">
      <defs>
       <path id="DejaVuSans-79" d="M 2059 -325 
Q 1816 -950 1584 -1140 
Q 1353 -1331 966 -1331 
L 506 -1331 
L 506 -850 
L 844 -850 
Q 1081 -850 1212 -737 
Q 1344 -625 1503 -206 
L 1606 56 
L 191 3500 
L 800 3500 
L 1894 763 
L 2988 3500 
L 3597 3500 
L 2059 -325 
z
" transform="scale(0.015625)"/>
       <path id="DejaVuSans-6b" d="M 581 4863 
L 1159 4863 
L 1159 1991 
L 2875 3500 
L 3609 3500 
L 1753 1863 
L 3688 0 
L 2938 0 
L 1159 1709 
L 1159 0 
L 581 0 
L 581 4863 
z
" transform="scale(0.015625)"/>
       <path id="DejaVuSans-54" d="M -19 4666 
L 3928 4666 
L 3928 4134 
L 2272 4134 
L 2272 0 
L 1638 0 
L 1638 4134 
L -19 4134 
L -19 4666 
z
" transform="scale(0.015625)"/>
      </defs>
      <use xlink:href="#DejaVuSans-66"/>
      <use xlink:href="#DejaVuSans-72" transform="translate(35.205078 0)"/>
      <use xlink:href="#DejaVuSans-65" transform="translate(74.068359 0)"/>
      <use xlink:href="#DejaVuSans-65" transform="translate(135.591797 0)"/>
      <use xlink:href="#DejaVuSans-20" transform="translate(197.115234 0)"/>
      <use xlink:href="#DejaVuSans-65" transform="translate(228.902344 0)"/>
      <use xlink:href="#DejaVuSans-6e" transform="translate(290.425781 0)"/>
      <use xlink:href="#DejaVuSans-65" transform="translate(353.804688 0)"/>
      <use xlink:href="#DejaVuSans-72" transform="translate(415.328125 0)"/>
      <use xlink:href="#DejaVuSans-67" transform="translate(454.691406 0)"/>
      <use xlink:href="#DejaVuSans-79" transform="translate(518.167969 0)"/>
      <use xlink:href="#DejaVuSans-20" transform="translate(577.347656 0)"/>
      <use xlink:href="#DejaVuSans-28" transform="translate(609.134766 0)"/>
      <use xlink:href="#DejaVuSans-6b" transform="translate(648.148438 0)"/>
      <use xlink:href="#DejaVuSans-54" transform="translate(706.058594 0)"/>
      <use xlink:href="#DejaVuSans-29" transform="translate(767.142578 0)"/>
     </g>
    </g>
   </g>
   <g id="line2d_13">
    <path d="M 73.832727 272.583154 
L 75.301752 286.008532 
L 76.770777 292.441972 
L 78.239803 295.241057 
L 79.708828 295.488 
L 81.177853 294.384399 
L 82.646878 292.070922 
L 85.584928 284.821516 
L 87.053953 280.692087 
L 88.522978 275.782715 
L 89.992003 272.178265 
L 91.461028 269.531922 
L 92.930053 267.655114 
L 94.399079 265.03217 
L 95.868104 262.092382 
L 100.275179 250.154088 
L 101.744204 247.415758 
L 103.213229 247.353642 
L 104.682254 246.370222 
L 106.151279 248.340982 
L 107.620304 248.242385 
L 112.02738 248.394301 
L 113.496405 246.596135 
L 114.96543 245.061255 
L 116.434455 244.420452 
L 117.90348 244.00211 
L 119.372505 242.964237 
L 120.84153 241.129123 
L 122.310555 238.062075 
L 123.77958 235.635 
L 125.248606 235.441237 
L 126.717631 231.450038 
L 128.186656 231.949327 
L 129.655681 230.553199 
L 132.593731 224.726661 
L 134.062756 223.367683 
L 135.531781 223.569645 
L 137.000806 223.419272 
L 138.469831 224.89317 
L 139.938856 223.632839 
L 141.407882 227.504945 
L 142.876907 230.617246 
L 144.345932 230.786758 
L 145.814957 234.882849 
L 147.283982 233.826888 
L 148.753007 235.074371 
L 150.222032 236.749641 
L 151.691057 237.571392 
L 153.160082 237.76662 
L 154.629107 236.558564 
L 156.098132 233.529599 
L 157.567158 231.611671 
L 159.036183 229.442506 
L 160.505208 227.017192 
L 161.974233 225.959114 
L 163.443258 224.640504 
L 164.912283 222.720969 
L 166.381308 222.944236 
L 167.850333 226.23896 
L 169.319358 226.027855 
L 170.788383 228.104305 
L 172.257408 225.81237 
L 173.726434 222.225332 
L 175.195459 225.404747 
L 178.133509 218.621889 
L 179.602534 213.849123 
L 181.071559 212.503328 
L 182.540584 212.926251 
L 184.009609 212.194745 
L 185.478634 212.410003 
L 186.947659 213.698181 
L 188.416684 212.923445 
L 189.88571 214.864544 
L 191.354735 216.598516 
L 195.76181 214.037594 
L 197.230835 210.67104 
L 198.69986 206.521111 
L 200.168885 204.008263 
L 201.63791 202.110865 
L 203.106935 200.658279 
L 204.575961 202.29701 
L 206.044986 204.992921 
L 207.514011 203.922521 
L 208.983036 205.510224 
L 210.452061 204.063288 
L 211.921086 205.312621 
L 213.390111 202.173552 
L 214.859136 203.026541 
L 216.328161 202.141082 
L 217.797186 199.547558 
L 219.266211 195.976853 
L 220.735237 193.327862 
L 222.204262 194.421322 
L 223.673287 190.336963 
L 225.142312 186.659782 
L 226.611337 181.205006 
L 228.080362 180.305557 
L 229.549387 169.521695 
L 231.018412 170.311764 
L 232.487437 164.640758 
L 233.956462 157.147474 
L 236.894513 155.464535 
L 238.363538 156.1991 
L 239.832563 153.039283 
L 241.301588 157.63692 
L 242.770613 159.127662 
L 244.239638 159.169563 
L 245.708663 160.640553 
L 247.177688 160.94627 
L 250.115738 160.190068 
L 251.584763 159.013838 
L 253.053789 158.598112 
L 254.522814 157.027292 
L 255.991839 158.192468 
L 257.460864 157.253188 
L 261.867939 153.268946 
L 263.336964 147.901504 
L 264.805989 145.82664 
L 266.275014 145.807988 
L 267.744039 142.711885 
L 269.213065 140.221845 
L 270.68209 136.59929 
L 272.151115 132.248249 
L 273.62014 128.746193 
L 275.089165 131.164204 
L 276.55819 130.053744 
L 278.027215 128.708291 
L 279.49624 129.184203 
L 280.965265 127.984898 
L 282.43429 129.677804 
L 283.903316 127.508059 
L 285.372341 128.49427 
L 286.841366 127.366678 
L 288.310391 124.588136 
L 289.779416 122.404681 
L 291.248441 121.029491 
L 292.717466 117.990856 
L 294.186491 115.339032 
L 295.655516 112.951881 
L 297.124541 112.274262 
L 298.593566 111.425297 
L 300.062592 112.18626 
L 301.531617 106.404738 
L 303.000642 113.526964 
L 304.469667 115.701561 
L 305.938692 115.514338 
L 307.407717 116.444101 
L 308.876742 115.86304 
L 310.345767 120.118116 
L 311.814792 115.244569 
L 313.283817 120.336129 
L 314.752842 118.235423 
L 316.221868 117.407135 
L 319.159918 121.748958 
L 320.628943 121.464488 
L 322.097968 121.344806 
L 323.566993 122.704154 
L 325.036018 118.912742 
L 326.505043 124.34075 
L 327.974068 125.910801 
L 329.443093 125.403324 
L 330.912118 124.344248 
L 332.381144 127.365255 
L 333.850169 122.67007 
L 335.319194 123.249401 
L 336.788219 124.714059 
L 338.257244 123.946897 
L 339.726269 123.362531 
L 341.195294 121.376669 
L 342.664319 123.652273 
L 344.133344 121.163288 
L 345.602369 124.275399 
L 347.071394 119.595371 
L 348.54042 118.314806 
L 350.009445 117.768159 
L 351.47847 116.752816 
L 352.947495 117.12083 
L 354.41652 117.670165 
L 355.885545 112.539232 
L 357.35457 114.034324 
L 358.823595 109.42393 
L 360.29262 107.683498 
L 361.761645 106.137096 
L 363.230671 105.979261 
L 364.699696 100.227415 
L 366.168721 96.740211 
L 367.637746 97.586835 
L 370.575796 93.219924 
L 372.044821 94.292622 
L 373.513846 94.113222 
L 374.982871 90.009763 
L 376.451896 92.735037 
L 377.920921 84.763213 
L 379.389947 87.719641 
L 380.858972 80.809877 
L 382.327997 75.381348 
L 383.797022 84.464826 
L 385.266047 83.505171 
L 386.735072 74.635069 
L 388.204097 74.741954 
L 389.673122 53.724702 
L 391.142147 66.56467 
L 392.611172 67.767927 
L 394.080197 59.256044 
L 395.549223 53.568 
L 398.487273 53.568 
L 398.487273 53.568 
" clip-path="url(#p9cf95f632f)" style="fill: none; stroke: #0000ff; stroke-width: 1.5; stroke-linecap: square"/>
   </g>
   <g id="line2d_14">
    <path d="M 73.832727 268.074996 
L 75.301752 283.597501 
L 76.770777 291.235517 
L 78.239803 294.784691 
L 79.708828 295.488 
L 81.177853 293.638175 
L 82.646878 289.608934 
L 84.115903 283.932998 
L 85.584928 276.819406 
L 87.053953 269.344788 
L 88.522978 258.926563 
L 89.992003 249.414053 
L 91.461028 239.971067 
L 92.930053 235.811337 
L 94.399079 233.683805 
L 95.868104 231.57809 
L 97.337129 229.56234 
L 98.806154 227.70999 
L 100.275179 227.379091 
L 101.744204 228.547195 
L 103.213229 230.431943 
L 104.682254 232.264719 
L 106.151279 232.495698 
L 107.620304 232.997922 
L 109.089329 231.596949 
L 110.558355 230.251858 
L 112.02738 227.606616 
L 113.496405 224.295463 
L 114.96543 222.452472 
L 116.434455 218.957895 
L 117.90348 215.94113 
L 119.372505 215.198062 
L 120.84153 216.093788 
L 122.310555 216.25396 
L 123.77958 217.575195 
L 125.248606 220.204534 
L 126.717631 221.92057 
L 128.186656 223.266432 
L 129.655681 224.951381 
L 131.124706 225.216888 
L 132.593731 225.343 
L 134.062756 225.628509 
L 135.531781 224.336285 
L 137.000806 224.921635 
L 138.469831 222.744277 
L 139.938856 223.338571 
L 141.407882 223.490226 
L 142.876907 222.792185 
L 144.345932 224.533237 
L 145.814957 225.639051 
L 147.283982 227.050695 
L 148.753007 227.774144 
L 150.222032 229.425984 
L 151.691057 230.825519 
L 153.160082 231.753608 
L 154.629107 231.329409 
L 156.098132 231.762596 
L 157.567158 230.870771 
L 159.036183 231.77947 
L 160.505208 230.812133 
L 161.974233 231.277108 
L 163.443258 231.853602 
L 164.912283 232.185166 
L 166.381308 232.681343 
L 167.850333 230.922978 
L 169.319358 230.452381 
L 170.788383 228.420603 
L 172.257408 227.79263 
L 173.726434 224.26244 
L 175.195459 222.611408 
L 176.664484 219.226547 
L 178.133509 218.239717 
L 179.602534 214.073685 
L 181.071559 205.249705 
L 182.540584 197.727122 
L 184.009609 203.388443 
L 185.478634 199.64175 
L 186.947659 195.644526 
L 188.416684 180.268652 
L 189.88571 175.866157 
L 191.354735 154.999719 
L 192.82376 181.585386 
L 194.292785 156.81416 
L 195.76181 135.618495 
L 197.230835 121.527197 
L 198.69986 128.486661 
L 200.168885 141.898048 
L 201.63791 122.588594 
L 203.106935 123.311043 
L 204.575961 121.66181 
L 206.044986 115.274441 
L 207.514011 118.381835 
L 208.983036 112.494272 
L 210.452061 107.558075 
L 211.921086 105.25374 
L 213.390111 103.419088 
L 214.859136 99.177271 
L 216.328161 95.378953 
L 217.797186 93.982743 
L 219.266211 91.885779 
L 220.735237 83.050759 
L 222.204262 83.593344 
L 223.673287 79.869868 
L 226.611337 83.065642 
" clip-path="url(#p9cf95f632f)" style="fill: none; stroke: #00ffff; stroke-width: 1.5; stroke-linecap: square"/>
   </g>
   <g id="line2d_15">
    <path d="M 73.832727 269.98726 
L 75.301752 285.584202 
L 76.770777 292.582134 
L 78.239803 295.231424 
L 79.708828 295.488 
L 81.177853 293.636474 
L 82.646878 290.749982 
L 84.115903 286.823837 
L 85.584928 282.148546 
L 87.053953 275.695784 
L 88.522978 269.250776 
L 89.992003 262.004105 
L 91.461028 256.268275 
L 92.930053 250.025708 
L 94.399079 240.49644 
L 95.868104 235.805065 
L 97.337129 231.732552 
L 98.806154 222.256851 
L 100.275179 219.176179 
L 101.744204 223.265253 
L 103.213229 216.954463 
L 104.682254 216.231227 
L 106.151279 215.204183 
L 107.620304 214.675752 
L 109.089329 213.742894 
L 110.558355 214.342336 
L 112.02738 213.311791 
L 113.496405 213.589419 
L 114.96543 214.461633 
L 116.434455 215.894073 
L 117.90348 215.744093 
L 119.372505 214.834362 
L 120.84153 215.75166 
L 122.310555 215.680334 
L 123.77958 214.674177 
L 125.248606 214.048312 
L 126.717631 213.116923 
L 128.186656 211.51206 
L 129.655681 212.408561 
L 131.124706 210.878309 
L 132.593731 210.14064 
L 134.062756 209.550708 
L 135.531781 210.756969 
L 137.000806 209.923285 
L 138.469831 209.431635 
L 139.938856 210.556109 
L 141.407882 212.034516 
L 142.876907 212.478229 
L 144.345932 213.63288 
L 145.814957 214.963188 
L 147.283982 214.163376 
L 148.753007 215.670559 
L 150.222032 214.443077 
L 151.691057 215.048296 
L 153.160082 214.977856 
L 154.629107 214.777298 
L 156.098132 217.246383 
L 157.567158 217.819012 
L 159.036183 219.813677 
L 160.505208 219.473686 
L 161.974233 220.384349 
L 163.443258 220.530364 
L 164.912283 220.439087 
L 166.381308 220.463804 
L 167.850333 219.546753 
L 169.319358 219.218529 
L 170.788383 219.052912 
L 172.257408 221.574385 
L 173.726434 219.378398 
L 175.195459 221.669694 
L 176.664484 221.181397 
L 178.133509 222.365642 
L 179.602534 224.718325 
L 181.071559 225.961836 
L 182.540584 227.217103 
L 184.009609 228.364379 
L 185.478634 230.534085 
L 186.947659 229.110622 
L 188.416684 228.369359 
L 189.88571 226.653805 
L 191.354735 224.46323 
L 192.82376 222.251692 
L 194.292785 217.421355 
L 195.76181 214.813917 
L 197.230835 208.716047 
L 198.69986 208.494385 
L 200.168885 204.849427 
L 201.63791 203.451676 
L 203.106935 199.997744 
L 204.575961 194.404217 
L 206.044986 192.792269 
L 207.514011 191.904858 
L 208.983036 189.542637 
L 210.452061 186.782213 
L 211.921086 181.983819 
L 213.390111 172.383863 
L 214.859136 170.746059 
L 216.328161 166.217818 
L 217.797186 161.550996 
L 219.266211 155.017209 
L 220.735237 145.289398 
L 222.204262 150.671236 
L 223.673287 134.878478 
L 225.142312 122.977806 
L 226.611337 121.296551 
L 228.080362 109.318283 
L 229.549387 106.177902 
L 231.018412 96.382959 
L 232.487437 90.743493 
L 233.956462 86.59113 
L 235.425487 82.194635 
L 236.894513 84.910312 
L 238.363538 77.094947 
L 239.832563 74.879447 
L 241.301588 73.382096 
" clip-path="url(#p9cf95f632f)" style="fill: none; stroke: #ff0000; stroke-width: 1.5; stroke-linecap: square"/>
   </g>
   <g id="line2d_16">
    <path d="M 73.832727 271.500816 
L 75.301752 288.922969 
L 76.770777 294.781917 
L 78.239803 295.488 
L 79.708828 294.887956 
L 81.177853 293.559883 
L 82.646878 292.990742 
L 84.115903 293.374147 
L 85.584928 294.152834 
L 87.053953 294.377923 
L 88.522978 293.981185 
L 89.992003 292.55497 
L 91.461028 289.885137 
L 92.930053 286.424408 
L 94.399079 281.924878 
L 95.868104 276.572916 
L 97.337129 269.801953 
L 98.806154 262.174351 
L 100.275179 255.933381 
L 101.744204 250.593537 
L 103.213229 248.797561 
L 104.682254 248.259577 
L 106.151279 248.041908 
L 107.620304 247.527364 
L 109.089329 247.402714 
L 110.558355 246.104155 
L 112.02738 246.319859 
L 113.496405 245.564976 
L 116.434455 246.517896 
L 117.90348 246.287773 
L 119.372505 246.668225 
L 120.84153 248.108848 
L 122.310555 248.497896 
L 123.77958 249.409161 
L 125.248606 250.732368 
L 126.717631 251.142645 
L 128.186656 252.236631 
L 129.655681 252.787819 
L 131.124706 253.51261 
L 132.593731 253.871203 
L 134.062756 255.210294 
L 135.531781 256.855582 
L 137.000806 257.404732 
L 138.469831 256.94617 
L 139.938856 258.438719 
L 141.407882 257.785488 
L 142.876907 258.560396 
L 144.345932 258.532933 
L 145.814957 258.133851 
L 147.283982 258.941293 
L 148.753007 259.148574 
L 150.222032 258.739202 
L 153.160082 256.562313 
L 154.629107 256.108945 
L 156.098132 254.741018 
L 157.567158 251.942994 
L 159.036183 250.912228 
L 160.505208 247.125429 
L 161.974233 245.815626 
L 163.443258 243.272855 
L 164.912283 241.093701 
L 166.381308 238.53308 
L 167.850333 236.51154 
L 169.319358 235.27254 
L 170.788383 233.254154 
L 172.257408 232.794845 
L 175.195459 226.847401 
L 178.133509 223.948953 
L 179.602534 217.648206 
L 181.071559 214.304121 
L 182.540584 212.960963 
L 184.009609 213.679193 
L 185.478634 213.745524 
L 186.947659 204.521118 
L 188.416684 205.958525 
L 189.88571 204.723077 
L 191.354735 210.397137 
L 192.82376 203.716074 
L 194.292785 201.085405 
L 195.76181 202.012533 
L 197.230835 198.649487 
L 198.69986 201.453022 
L 200.168885 192.248893 
L 201.63791 193.342762 
L 203.106935 188.618444 
L 204.575961 187.935326 
L 206.044986 184.408601 
L 207.514011 186.688832 
L 208.983036 185.849011 
L 210.452061 188.453644 
L 211.921086 181.377045 
L 213.390111 178.309356 
L 214.859136 173.207105 
L 216.328161 169.001339 
L 217.797186 166.003698 
L 219.266211 161.110907 
L 220.735237 159.222213 
L 222.204262 155.1066 
L 223.673287 150.105314 
L 225.142312 146.790503 
L 226.611337 142.442023 
L 228.080362 143.770578 
L 229.549387 138.264929 
L 231.018412 140.952007 
L 232.487437 138.337345 
L 233.956462 136.851443 
L 235.425487 133.56174 
L 236.894513 133.433337 
L 238.363538 135.357623 
L 239.832563 132.502243 
L 241.301588 131.080482 
L 242.770613 130.157096 
L 244.239638 130.494536 
L 247.177688 131.576767 
L 248.646713 128.451774 
L 250.115738 131.498351 
L 251.584763 129.77076 
L 253.053789 126.913714 
L 254.522814 125.948878 
L 255.991839 128.021848 
L 257.460864 126.222814 
L 258.929889 124.952411 
L 260.398914 126.231005 
L 261.867939 125.232186 
L 263.336964 125.556461 
L 264.805989 124.712594 
L 266.275014 123.30366 
L 267.744039 123.349957 
L 269.213065 122.886037 
L 270.68209 120.448158 
L 272.151115 119.010951 
L 272.151115 119.010951 
" clip-path="url(#p9cf95f632f)" style="fill: none; stroke: #ffa500; stroke-width: 1.5; stroke-linecap: square"/>
   </g>
   <g id="patch_3">
    <path d="M 57.6 307.584 
L 57.6 41.472 
" style="fill: none; stroke: #000000; stroke-width: 0.8; stroke-linejoin: miter; stroke-linecap: square"/>
   </g>
   <g id="patch_4">
    <path d="M 414.72 307.584 
L 414.72 41.472 
" style="fill: none; stroke: #000000; stroke-width: 0.8; stroke-linejoin: miter; stroke-linecap: square"/>
   </g>
   <g id="patch_5">
    <path d="M 57.6 307.584 
L 414.72 307.584 
" style="fill: none; stroke: #000000; stroke-width: 0.8; stroke-linejoin: miter; stroke-linecap: square"/>
   </g>
   <g id="patch_6">
    <path d="M 57.6 41.472 
L 414.72 41.472 
" style="fill: none; stroke: #000000; stroke-width: 0.8; stroke-linejoin: miter; stroke-linecap: square"/>
   </g>
   <g id="text_15">
    <!-- Reweighted GLPG1837 amide -->
    <g transform="translate(146.806875 8.59725) scale(0.12 -0.12)">
     <defs>
      <path id="DejaVuSans-52" d="M 2841 2188 
Q 3044 2119 3236 1894 
Q 3428 1669 3622 1275 
L 4263 0 
L 3584 0 
L 2988 1197 
Q 2756 1666 2539 1819 
Q 2322 1972 1947 1972 
L 1259 1972 
L 1259 0 
L 628 0 
L 628 4666 
L 2053 4666 
Q 2853 4666 3247 4331 
Q 3641 3997 3641 3322 
Q 3641 2881 3436 2590 
Q 3231 2300 2841 2188 
z
M 1259 4147 
L 1259 2491 
L 2053 2491 
Q 2509 2491 2742 2702 
Q 2975 2913 2975 3322 
Q 2975 3731 2742 3939 
Q 2509 4147 2053 4147 
L 1259 4147 
z
" transform="scale(0.015625)"/>
      <path id="DejaVuSans-77" d="M 269 3500 
L 844 3500 
L 1563 769 
L 2278 3500 
L 2956 3500 
L 3675 769 
L 4391 3500 
L 4966 3500 
L 4050 0 
L 3372 0 
L 2619 2869 
L 1863 0 
L 1184 0 
L 269 3500 
z
" transform="scale(0.015625)"/>
      <path id="DejaVuSans-68" d="M 3513 2113 
L 3513 0 
L 2938 0 
L 2938 2094 
Q 2938 2591 2744 2837 
Q 2550 3084 2163 3084 
Q 1697 3084 1428 2787 
Q 1159 2491 1159 1978 
L 1159 0 
L 581 0 
L 581 4863 
L 1159 4863 
L 1159 2956 
Q 1366 3272 1645 3428 
Q 1925 3584 2291 3584 
Q 2894 3584 3203 3211 
Q 3513 2838 3513 2113 
z
" transform="scale(0.015625)"/>
      <path id="DejaVuSans-47" d="M 3809 666 
L 3809 1919 
L 2778 1919 
L 2778 2438 
L 4434 2438 
L 4434 434 
Q 4069 175 3628 42 
Q 3188 -91 2688 -91 
Q 1594 -91 976 548 
Q 359 1188 359 2328 
Q 359 3472 976 4111 
Q 1594 4750 2688 4750 
Q 3144 4750 3555 4637 
Q 3966 4525 4313 4306 
L 4313 3634 
Q 3963 3931 3569 4081 
Q 3175 4231 2741 4231 
Q 1884 4231 1454 3753 
Q 1025 3275 1025 2328 
Q 1025 1384 1454 906 
Q 1884 428 2741 428 
Q 3075 428 3337 486 
Q 3600 544 3809 666 
z
" transform="scale(0.015625)"/>
      <path id="DejaVuSans-4c" d="M 628 4666 
L 1259 4666 
L 1259 531 
L 3531 531 
L 3531 0 
L 628 0 
L 628 4666 
z
" transform="scale(0.015625)"/>
      <path id="DejaVuSans-50" d="M 1259 4147 
L 1259 2394 
L 2053 2394 
Q 2494 2394 2734 2622 
Q 2975 2850 2975 3272 
Q 2975 3691 2734 3919 
Q 2494 4147 2053 4147 
L 1259 4147 
z
M 628 4666 
L 2053 4666 
Q 2838 4666 3239 4311 
Q 3641 3956 3641 3272 
Q 3641 2581 3239 2228 
Q 2838 1875 2053 1875 
L 1259 1875 
L 1259 0 
L 628 0 
L 628 4666 
z
" transform="scale(0.015625)"/>
      <path id="DejaVuSans-38" d="M 2034 2216 
Q 1584 2216 1326 1975 
Q 1069 1734 1069 1313 
Q 1069 891 1326 650 
Q 1584 409 2034 409 
Q 2484 409 2743 651 
Q 3003 894 3003 1313 
Q 3003 1734 2745 1975 
Q 2488 2216 2034 2216 
z
M 1403 2484 
Q 997 2584 770 2862 
Q 544 3141 544 3541 
Q 544 4100 942 4425 
Q 1341 4750 2034 4750 
Q 2731 4750 3128 4425 
Q 3525 4100 3525 3541 
Q 3525 3141 3298 2862 
Q 3072 2584 2669 2484 
Q 3125 2378 3379 2068 
Q 3634 1759 3634 1313 
Q 3634 634 3220 271 
Q 2806 -91 2034 -91 
Q 1263 -91 848 271 
Q 434 634 434 1313 
Q 434 1759 690 2068 
Q 947 2378 1403 2484 
z
M 1172 3481 
Q 1172 3119 1398 2916 
Q 1625 2713 2034 2713 
Q 2441 2713 2670 2916 
Q 2900 3119 2900 3481 
Q 2900 3844 2670 4047 
Q 2441 4250 2034 4250 
Q 1625 4250 1398 4047 
Q 1172 3844 1172 3481 
z
" transform="scale(0.015625)"/>
      <path id="DejaVuSans-37" d="M 525 4666 
L 3525 4666 
L 3525 4397 
L 1831 0 
L 1172 0 
L 2766 4134 
L 525 4134 
L 525 4666 
z
" transform="scale(0.015625)"/>
     </defs>
     <use xlink:href="#DejaVuSans-52"/>
     <use xlink:href="#DejaVuSans-65" transform="translate(64.982422 0)"/>
     <use xlink:href="#DejaVuSans-77" transform="translate(126.505859 0)"/>
     <use xlink:href="#DejaVuSans-65" transform="translate(208.292969 0)"/>
     <use xlink:href="#DejaVuSans-69" transform="translate(269.816406 0)"/>
     <use xlink:href="#DejaVuSans-67" transform="translate(297.599609 0)"/>
     <use xlink:href="#DejaVuSans-68" transform="translate(361.076172 0)"/>
     <use xlink:href="#DejaVuSans-74" transform="translate(424.455078 0)"/>
     <use xlink:href="#DejaVuSans-65" transform="translate(463.664062 0)"/>
     <use xlink:href="#DejaVuSans-64" transform="translate(525.1875 0)"/>
     <use xlink:href="#DejaVuSans-20" transform="translate(588.664062 0)"/>
     <use xlink:href="#DejaVuSans-47" transform="translate(620.451172 0)"/>
     <use xlink:href="#DejaVuSans-4c" transform="translate(697.941406 0)"/>
     <use xlink:href="#DejaVuSans-50" transform="translate(753.654297 0)"/>
     <use xlink:href="#DejaVuSans-47" transform="translate(813.957031 0)"/>
     <use xlink:href="#DejaVuSans-31" transform="translate(891.447266 0)"/>
     <use xlink:href="#DejaVuSans-38" transform="translate(955.070312 0)"/>
     <use xlink:href="#DejaVuSans-33" transform="translate(1018.693359 0)"/>
     <use xlink:href="#DejaVuSans-37" transform="translate(1082.316406 0)"/>
     <use xlink:href="#DejaVuSans-20" transform="translate(1145.939453 0)"/>
     <use xlink:href="#DejaVuSans-61" transform="translate(1177.726562 0)"/>
     <use xlink:href="#DejaVuSans-6d" transform="translate(1239.005859 0)"/>
     <use xlink:href="#DejaVuSans-69" transform="translate(1336.417969 0)"/>
     <use xlink:href="#DejaVuSans-64" transform="translate(1364.201172 0)"/>
     <use xlink:href="#DejaVuSans-65" transform="translate(1427.677734 0)"/>
    </g>
    <!-- derivative dissociation energy: -->
    <g transform="translate(144.193125 22.034625) scale(0.12 -0.12)">
     <defs>
      <path id="DejaVuSans-76" d="M 191 3500 
L 800 3500 
L 1894 563 
L 2988 3500 
L 3597 3500 
L 2284 0 
L 1503 0 
L 191 3500 
z
" transform="scale(0.015625)"/>
      <path id="DejaVuSans-3a" d="M 750 794 
L 1409 794 
L 1409 0 
L 750 0 
L 750 794 
z
M 750 3309 
L 1409 3309 
L 1409 2516 
L 750 2516 
L 750 3309 
z
" transform="scale(0.015625)"/>
     </defs>
     <use xlink:href="#DejaVuSans-64"/>
     <use xlink:href="#DejaVuSans-65" transform="translate(63.476562 0)"/>
     <use xlink:href="#DejaVuSans-72" transform="translate(125 0)"/>
     <use xlink:href="#DejaVuSans-69" transform="translate(166.113281 0)"/>
     <use xlink:href="#DejaVuSans-76" transform="translate(193.896484 0)"/>
     <use xlink:href="#DejaVuSans-61" transform="translate(253.076172 0)"/>
     <use xlink:href="#DejaVuSans-74" transform="translate(314.355469 0)"/>
     <use xlink:href="#DejaVuSans-69" transform="translate(353.564453 0)"/>
     <use xlink:href="#DejaVuSans-76" transform="translate(381.347656 0)"/>
     <use xlink:href="#DejaVuSans-65" transform="translate(440.527344 0)"/>
     <use xlink:href="#DejaVuSans-20" transform="translate(502.050781 0)"/>
     <use xlink:href="#DejaVuSans-64" transform="translate(533.837891 0)"/>
     <use xlink:href="#DejaVuSans-69" transform="translate(597.314453 0)"/>
     <use xlink:href="#DejaVuSans-73" transform="translate(625.097656 0)"/>
     <use xlink:href="#DejaVuSans-73" transform="translate(677.197266 0)"/>
     <use xlink:href="#DejaVuSans-6f" transform="translate(729.296875 0)"/>
     <use xlink:href="#DejaVuSans-63" transform="translate(790.478516 0)"/>
     <use xlink:href="#DejaVuSans-69" transform="translate(845.458984 0)"/>
     <use xlink:href="#DejaVuSans-61" transform="translate(873.242188 0)"/>
     <use xlink:href="#DejaVuSans-74" transform="translate(934.521484 0)"/>
     <use xlink:href="#DejaVuSans-69" transform="translate(973.730469 0)"/>
     <use xlink:href="#DejaVuSans-6f" transform="translate(1001.513672 0)"/>
     <use xlink:href="#DejaVuSans-6e" transform="translate(1062.695312 0)"/>
     <use xlink:href="#DejaVuSans-20" transform="translate(1126.074219 0)"/>
     <use xlink:href="#DejaVuSans-65" transform="translate(1157.861328 0)"/>
     <use xlink:href="#DejaVuSans-6e" transform="translate(1219.384766 0)"/>
     <use xlink:href="#DejaVuSans-65" transform="translate(1282.763672 0)"/>
     <use xlink:href="#DejaVuSans-72" transform="translate(1344.287109 0)"/>
     <use xlink:href="#DejaVuSans-67" transform="translate(1383.650391 0)"/>
     <use xlink:href="#DejaVuSans-79" transform="translate(1447.126953 0)"/>
     <use xlink:href="#DejaVuSans-3a" transform="translate(1499.056641 0)"/>
    </g>
    <!-- WE-weighted transitions -->
    <g transform="translate(162.925313 35.472) scale(0.12 -0.12)">
     <defs>
      <path id="DejaVuSans-57" d="M 213 4666 
L 850 4666 
L 1831 722 
L 2809 4666 
L 3519 4666 
L 4500 722 
L 5478 4666 
L 6119 4666 
L 4947 0 
L 4153 0 
L 3169 4050 
L 2175 0 
L 1381 0 
L 213 4666 
z
" transform="scale(0.015625)"/>
      <path id="DejaVuSans-45" d="M 628 4666 
L 3578 4666 
L 3578 4134 
L 1259 4134 
L 1259 2753 
L 3481 2753 
L 3481 2222 
L 1259 2222 
L 1259 531 
L 3634 531 
L 3634 0 
L 628 0 
L 628 4666 
z
" transform="scale(0.015625)"/>
      <path id="DejaVuSans-2d" d="M 313 2009 
L 1997 2009 
L 1997 1497 
L 313 1497 
L 313 2009 
z
" transform="scale(0.015625)"/>
     </defs>
     <use xlink:href="#DejaVuSans-57"/>
     <use xlink:href="#DejaVuSans-45" transform="translate(98.876953 0)"/>
     <use xlink:href="#DejaVuSans-2d" transform="translate(162.060547 0)"/>
     <use xlink:href="#DejaVuSans-77" transform="translate(198.144531 0)"/>
     <use xlink:href="#DejaVuSans-65" transform="translate(279.931641 0)"/>
     <use xlink:href="#DejaVuSans-69" transform="translate(341.455078 0)"/>
     <use xlink:href="#DejaVuSans-67" transform="translate(369.238281 0)"/>
     <use xlink:href="#DejaVuSans-68" transform="translate(432.714844 0)"/>
     <use xlink:href="#DejaVuSans-74" transform="translate(496.09375 0)"/>
     <use xlink:href="#DejaVuSans-65" transform="translate(535.302734 0)"/>
     <use xlink:href="#DejaVuSans-64" transform="translate(596.826172 0)"/>
     <use xlink:href="#DejaVuSans-20" transform="translate(660.302734 0)"/>
     <use xlink:href="#DejaVuSans-74" transform="translate(692.089844 0)"/>
     <use xlink:href="#DejaVuSans-72" transform="translate(731.298828 0)"/>
     <use xlink:href="#DejaVuSans-61" transform="translate(772.412109 0)"/>
     <use xlink:href="#DejaVuSans-6e" transform="translate(833.691406 0)"/>
     <use xlink:href="#DejaVuSans-73" transform="translate(897.070312 0)"/>
     <use xlink:href="#DejaVuSans-69" transform="translate(949.169922 0)"/>
     <use xlink:href="#DejaVuSans-74" transform="translate(976.953125 0)"/>
     <use xlink:href="#DejaVuSans-69" transform="translate(1016.162109 0)"/>
     <use xlink:href="#DejaVuSans-6f" transform="translate(1043.945312 0)"/>
     <use xlink:href="#DejaVuSans-6e" transform="translate(1105.126953 0)"/>
     <use xlink:href="#DejaVuSans-73" transform="translate(1168.505859 0)"/>
    </g>
   </g>
   <g id="legend_1">
    <g id="patch_7">
     <path d="M 64.6 108.1845 
L 158.607812 108.1845 
Q 160.607812 108.1845 160.607812 106.1845 
L 160.607812 48.472 
Q 160.607812 46.472 158.607812 46.472 
L 64.6 46.472 
Q 62.6 46.472 62.6 48.472 
L 62.6 106.1845 
Q 62.6 108.1845 64.6 108.1845 
z
" style="fill: #ffffff; opacity: 0.8; stroke: #cccccc; stroke-linejoin: miter"/>
    </g>
    <g id="line2d_17">
     <path d="M 66.6 54.570438 
L 76.6 54.570438 
L 86.6 54.570438 
" style="fill: none; stroke: #0000ff; stroke-width: 1.5; stroke-linecap: square"/>
    </g>
    <g id="text_16">
     <!-- pyrazole-1 -->
     <g transform="translate(94.6 58.070438) scale(0.1 -0.1)">
      <defs>
       <path id="DejaVuSans-70" d="M 1159 525 
L 1159 -1331 
L 581 -1331 
L 581 3500 
L 1159 3500 
L 1159 2969 
Q 1341 3281 1617 3432 
Q 1894 3584 2278 3584 
Q 2916 3584 3314 3078 
Q 3713 2572 3713 1747 
Q 3713 922 3314 415 
Q 2916 -91 2278 -91 
Q 1894 -91 1617 61 
Q 1341 213 1159 525 
z
M 3116 1747 
Q 3116 2381 2855 2742 
Q 2594 3103 2138 3103 
Q 1681 3103 1420 2742 
Q 1159 2381 1159 1747 
Q 1159 1113 1420 752 
Q 1681 391 2138 391 
Q 2594 391 2855 752 
Q 3116 1113 3116 1747 
z
" transform="scale(0.015625)"/>
       <path id="DejaVuSans-7a" d="M 353 3500 
L 3084 3500 
L 3084 2975 
L 922 459 
L 3084 459 
L 3084 0 
L 275 0 
L 275 525 
L 2438 3041 
L 353 3041 
L 353 3500 
z
" transform="scale(0.015625)"/>
      </defs>
      <use xlink:href="#DejaVuSans-70"/>
      <use xlink:href="#DejaVuSans-79" transform="translate(63.476562 0)"/>
      <use xlink:href="#DejaVuSans-72" transform="translate(122.65625 0)"/>
      <use xlink:href="#DejaVuSans-61" transform="translate(163.769531 0)"/>
      <use xlink:href="#DejaVuSans-7a" transform="translate(225.048828 0)"/>
      <use xlink:href="#DejaVuSans-6f" transform="translate(277.539062 0)"/>
      <use xlink:href="#DejaVuSans-6c" transform="translate(338.720703 0)"/>
      <use xlink:href="#DejaVuSans-65" transform="translate(366.503906 0)"/>
      <use xlink:href="#DejaVuSans-2d" transform="translate(428.027344 0)"/>
      <use xlink:href="#DejaVuSans-31" transform="translate(464.111328 0)"/>
     </g>
    </g>
    <g id="line2d_18">
     <path d="M 66.6 69.248563 
L 76.6 69.248563 
L 86.6 69.248563 
" style="fill: none; stroke: #00ffff; stroke-width: 1.5; stroke-linecap: square"/>
    </g>
    <g id="text_17">
     <!-- pyrazole-2 -->
     <g transform="translate(94.6 72.748563) scale(0.1 -0.1)">
      <use xlink:href="#DejaVuSans-70"/>
      <use xlink:href="#DejaVuSans-79" transform="translate(63.476562 0)"/>
      <use xlink:href="#DejaVuSans-72" transform="translate(122.65625 0)"/>
      <use xlink:href="#DejaVuSans-61" transform="translate(163.769531 0)"/>
      <use xlink:href="#DejaVuSans-7a" transform="translate(225.048828 0)"/>
      <use xlink:href="#DejaVuSans-6f" transform="translate(277.539062 0)"/>
      <use xlink:href="#DejaVuSans-6c" transform="translate(338.720703 0)"/>
      <use xlink:href="#DejaVuSans-65" transform="translate(366.503906 0)"/>
      <use xlink:href="#DejaVuSans-2d" transform="translate(428.027344 0)"/>
      <use xlink:href="#DejaVuSans-32" transform="translate(464.111328 0)"/>
     </g>
    </g>
    <g id="line2d_19">
     <path d="M 66.6 83.926688 
L 76.6 83.926688 
L 86.6 83.926688 
" style="fill: none; stroke: #ff0000; stroke-width: 1.5; stroke-linecap: square"/>
    </g>
    <g id="text_18">
     <!-- undecanol-1 -->
     <g transform="translate(94.6 87.426688) scale(0.1 -0.1)">
      <use xlink:href="#DejaVuSans-75"/>
      <use xlink:href="#DejaVuSans-6e" transform="translate(63.378906 0)"/>
      <use xlink:href="#DejaVuSans-64" transform="translate(126.757812 0)"/>
      <use xlink:href="#DejaVuSans-65" transform="translate(190.234375 0)"/>
      <use xlink:href="#DejaVuSans-63" transform="translate(251.757812 0)"/>
      <use xlink:href="#DejaVuSans-61" transform="translate(306.738281 0)"/>
      <use xlink:href="#DejaVuSans-6e" transform="translate(368.017578 0)"/>
      <use xlink:href="#DejaVuSans-6f" transform="translate(431.396484 0)"/>
      <use xlink:href="#DejaVuSans-6c" transform="translate(492.578125 0)"/>
      <use xlink:href="#DejaVuSans-2d" transform="translate(520.361328 0)"/>
      <use xlink:href="#DejaVuSans-31" transform="translate(556.445312 0)"/>
     </g>
    </g>
    <g id="line2d_20">
     <path d="M 66.6 98.604813 
L 76.6 98.604813 
L 86.6 98.604813 
" style="fill: none; stroke: #ffa500; stroke-width: 1.5; stroke-linecap: square"/>
    </g>
    <g id="text_19">
     <!-- undecanol-2 -->
     <g transform="translate(94.6 102.104813) scale(0.1 -0.1)">
      <use xlink:href="#DejaVuSans-75"/>
      <use xlink:href="#DejaVuSans-6e" transform="translate(63.378906 0)"/>
      <use xlink:href="#DejaVuSans-64" transform="translate(126.757812 0)"/>
      <use xlink:href="#DejaVuSans-65" transform="translate(190.234375 0)"/>
      <use xlink:href="#DejaVuSans-63" transform="translate(251.757812 0)"/>
      <use xlink:href="#DejaVuSans-61" transform="translate(306.738281 0)"/>
      <use xlink:href="#DejaVuSans-6e" transform="translate(368.017578 0)"/>
      <use xlink:href="#DejaVuSans-6f" transform="translate(431.396484 0)"/>
      <use xlink:href="#DejaVuSans-6c" transform="translate(492.578125 0)"/>
      <use xlink:href="#DejaVuSans-2d" transform="translate(520.361328 0)"/>
      <use xlink:href="#DejaVuSans-32" transform="translate(556.445312 0)"/>
     </g>
    </g>
   </g>
  </g>
 </g>
 <defs>
  <clipPath id="p9cf95f632f">
   <rect x="57.6" y="41.472" width="357.12" height="266.112"/>
  </clipPath>
 </defs>
</svg>
