<?xml version="1.0" encoding="utf-8" standalone="no"?>
<!DOCTYPE svg PUBLIC "-//W3C//DTD SVG 1.1//EN"
  "http://www.w3.org/Graphics/SVG/1.1/DTD/svg11.dtd">
<svg xmlns:xlink="http://www.w3.org/1999/xlink" width="460.8pt" height="345.6pt" viewBox="0 0 460.8 345.6" xmlns="http://www.w3.org/2000/svg" version="1.1">
 <metadata>
  <rdf:RDF xmlns:dc="http://purl.org/dc/elements/1.1/" xmlns:cc="http://creativecommons.org/ns#" xmlns:rdf="http://www.w3.org/1999/02/22-rdf-syntax-ns#">
   <cc:Work>
    <dc:type rdf:resource="http://purl.org/dc/dcmitype/StillImage"/>
    <dc:date>2025-05-30T10:59:43.539983</dc:date>
    <dc:format>image/svg+xml</dc:format>
    <dc:creator>
     <cc:Agent>
      <dc:title>Matplotlib v3.10.3, https://matplotlib.org/</dc:title>
     </cc:Agent>
    </dc:creator>
   </cc:Work>
  </rdf:RDF>
 </metadata>
 <defs>
  <style type="text/css">*{stroke-linejoin: round; stroke-linecap: butt}</style>
 </defs>
 <g id="figure_1">
  <g id="patch_1">
   <path d="M 0 345.6 
L 460.8 345.6 
L 460.8 0 
L 0 0 
z
" style="fill: #ffffff"/>
  </g>
  <g id="axes_1">
   <g id="patch_2">
    <path d="M 57.6 307.584 
L 414.72 307.584 
L 414.72 41.472 
L 57.6 41.472 
z
" style="fill: #ffffff"/>
   </g>
   <g id="matplotlib.axis_1">
    <g id="xtick_1">
     <g id="line2d_1">
      <defs>
       <path id="m818478d830" d="M 0 0 
L 0 3.5 
" style="stroke: #000000; stroke-width: 0.8"/>
      </defs>
      <g>
       <use xlink:href="#m818478d830" x="73.832727" y="307.584" style="stroke: #000000; stroke-width: 0.8"/>
      </g>
     </g>
     <g id="text_1">
      <!-- 0 -->
      <g transform="translate(70.651477 322.182437) scale(0.1 -0.1)">
       <defs>
        <path id="DejaVuSans-30" d="M 2034 4250 
Q 1547 4250 1301 3770 
Q 1056 3291 1056 2328 
Q 1056 1369 1301 889 
Q 1547 409 2034 409 
Q 2525 409 2770 889 
Q 3016 1369 3016 2328 
Q 3016 3291 2770 3770 
Q 2525 4250 2034 4250 
z
M 2034 4750 
Q 2819 4750 3233 4129 
Q 3647 3509 3647 2328 
Q 3647 1150 3233 529 
Q 2819 -91 2034 -91 
Q 1250 -91 836 529 
Q 422 1150 422 2328 
Q 422 3509 836 4129 
Q 1250 4750 2034 4750 
z
" transform="scale(0.015625)"/>
       </defs>
       <use xlink:href="#DejaVuSans-30"/>
      </g>
     </g>
    </g>
    <g id="xtick_2">
     <g id="line2d_2">
      <g>
       <use xlink:href="#m818478d830" x="142.61547" y="307.584" style="stroke: #000000; stroke-width: 0.8"/>
      </g>
     </g>
     <g id="text_2">
      <!-- 10 -->
      <g transform="translate(136.25297 322.182437) scale(0.1 -0.1)">
       <defs>
        <path id="DejaVuSans-31" d="M 794 531 
L 1825 531 
L 1825 4091 
L 703 3866 
L 703 4441 
L 1819 4666 
L 2450 4666 
L 2450 531 
L 3481 531 
L 3481 0 
L 794 0 
L 794 531 
z
" transform="scale(0.015625)"/>
       </defs>
       <use xlink:href="#DejaVuSans-31"/>
       <use xlink:href="#DejaVuSans-30" transform="translate(63.623047 0)"/>
      </g>
     </g>
    </g>
    <g id="xtick_3">
     <g id="line2d_3">
      <g>
       <use xlink:href="#m818478d830" x="211.398213" y="307.584" style="stroke: #000000; stroke-width: 0.8"/>
      </g>
     </g>
     <g id="text_3">
      <!-- 20 -->
      <g transform="translate(205.035713 322.182437) scale(0.1 -0.1)">
       <defs>
        <path id="DejaVuSans-32" d="M 1228 531 
L 3431 531 
L 3431 0 
L 469 0 
L 469 531 
Q 828 903 1448 1529 
Q 2069 2156 2228 2338 
Q 2531 2678 2651 2914 
Q 2772 3150 2772 3378 
Q 2772 3750 2511 3984 
Q 2250 4219 1831 4219 
Q 1534 4219 1204 4116 
Q 875 4013 500 3803 
L 500 4441 
Q 881 4594 1212 4672 
Q 1544 4750 1819 4750 
Q 2544 4750 2975 4387 
Q 3406 4025 3406 3419 
Q 3406 3131 3298 2873 
Q 3191 2616 2906 2266 
Q 2828 2175 2409 1742 
Q 1991 1309 1228 531 
z
" transform="scale(0.015625)"/>
       </defs>
       <use xlink:href="#DejaVuSans-32"/>
       <use xlink:href="#DejaVuSans-30" transform="translate(63.623047 0)"/>
      </g>
     </g>
    </g>
    <g id="xtick_4">
     <g id="line2d_4">
      <g>
       <use xlink:href="#m818478d830" x="280.180955" y="307.584" style="stroke: #000000; stroke-width: 0.8"/>
      </g>
     </g>
     <g id="text_4">
      <!-- 30 -->
      <g transform="translate(273.818455 322.182437) scale(0.1 -0.1)">
       <defs>
        <path id="DejaVuSans-33" d="M 2597 2516 
Q 3050 2419 3304 2112 
Q 3559 1806 3559 1356 
Q 3559 666 3084 287 
Q 2609 -91 1734 -91 
Q 1441 -91 1130 -33 
Q 819 25 488 141 
L 488 750 
Q 750 597 1062 519 
Q 1375 441 1716 441 
Q 2309 441 2620 675 
Q 2931 909 2931 1356 
Q 2931 1769 2642 2001 
Q 2353 2234 1838 2234 
L 1294 2234 
L 1294 2753 
L 1863 2753 
Q 2328 2753 2575 2939 
Q 2822 3125 2822 3475 
Q 2822 3834 2567 4026 
Q 2313 4219 1838 4219 
Q 1578 4219 1281 4162 
Q 984 4106 628 3988 
L 628 4550 
Q 988 4650 1302 4700 
Q 1616 4750 1894 4750 
Q 2613 4750 3031 4423 
Q 3450 4097 3450 3541 
Q 3450 3153 3228 2886 
Q 3006 2619 2597 2516 
z
" transform="scale(0.015625)"/>
       </defs>
       <use xlink:href="#DejaVuSans-33"/>
       <use xlink:href="#DejaVuSans-30" transform="translate(63.623047 0)"/>
      </g>
     </g>
    </g>
    <g id="xtick_5">
     <g id="line2d_5">
      <g>
       <use xlink:href="#m818478d830" x="348.963698" y="307.584" style="stroke: #000000; stroke-width: 0.8"/>
      </g>
     </g>
     <g id="text_5">
      <!-- 40 -->
      <g transform="translate(342.601198 322.182437) scale(0.1 -0.1)">
       <defs>
        <path id="DejaVuSans-34" d="M 2419 4116 
L 825 1625 
L 2419 1625 
L 2419 4116 
z
M 2253 4666 
L 3047 4666 
L 3047 1625 
L 3713 1625 
L 3713 1100 
L 3047 1100 
L 3047 0 
L 2419 0 
L 2419 1100 
L 313 1100 
L 313 1709 
L 2253 4666 
z
" transform="scale(0.015625)"/>
       </defs>
       <use xlink:href="#DejaVuSans-34"/>
       <use xlink:href="#DejaVuSans-30" transform="translate(63.623047 0)"/>
      </g>
     </g>
    </g>
    <g id="text_6">
     <!-- ligand center of mass distance -->
     <g transform="translate(159.207656 335.860562) scale(0.1 -0.1)">
      <defs>
       <path id="DejaVuSans-6c" d="M 603 4863 
L 1178 4863 
L 1178 0 
L 603 0 
L 603 4863 
z
" transform="scale(0.015625)"/>
       <path id="DejaVuSans-69" d="M 603 3500 
L 1178 3500 
L 1178 0 
L 603 0 
L 603 3500 
z
M 603 4863 
L 1178 4863 
L 1178 4134 
L 603 4134 
L 603 4863 
z
" transform="scale(0.015625)"/>
       <path id="DejaVuSans-67" d="M 2906 1791 
Q 2906 2416 2648 2759 
Q 2391 3103 1925 3103 
Q 1463 3103 1205 2759 
Q 947 2416 947 1791 
Q 947 1169 1205 825 
Q 1463 481 1925 481 
Q 2391 481 2648 825 
Q 2906 1169 2906 1791 
z
M 3481 434 
Q 3481 -459 3084 -895 
Q 2688 -1331 1869 -1331 
Q 1566 -1331 1297 -1286 
Q 1028 -1241 775 -1147 
L 775 -588 
Q 1028 -725 1275 -790 
Q 1522 -856 1778 -856 
Q 2344 -856 2625 -561 
Q 2906 -266 2906 331 
L 2906 616 
Q 2728 306 2450 153 
Q 2172 0 1784 0 
Q 1141 0 747 490 
Q 353 981 353 1791 
Q 353 2603 747 3093 
Q 1141 3584 1784 3584 
Q 2172 3584 2450 3431 
Q 2728 3278 2906 2969 
L 2906 3500 
L 3481 3500 
L 3481 434 
z
" transform="scale(0.015625)"/>
       <path id="DejaVuSans-61" d="M 2194 1759 
Q 1497 1759 1228 1600 
Q 959 1441 959 1056 
Q 959 750 1161 570 
Q 1363 391 1709 391 
Q 2188 391 2477 730 
Q 2766 1069 2766 1631 
L 2766 1759 
L 2194 1759 
z
M 3341 1997 
L 3341 0 
L 2766 0 
L 2766 531 
Q 2569 213 2275 61 
Q 1981 -91 1556 -91 
Q 1019 -91 701 211 
Q 384 513 384 1019 
Q 384 1609 779 1909 
Q 1175 2209 1959 2209 
L 2766 2209 
L 2766 2266 
Q 2766 2663 2505 2880 
Q 2244 3097 1772 3097 
Q 1472 3097 1187 3025 
Q 903 2953 641 2809 
L 641 3341 
Q 956 3463 1253 3523 
Q 1550 3584 1831 3584 
Q 2591 3584 2966 3190 
Q 3341 2797 3341 1997 
z
" transform="scale(0.015625)"/>
       <path id="DejaVuSans-6e" d="M 3513 2113 
L 3513 0 
L 2938 0 
L 2938 2094 
Q 2938 2591 2744 2837 
Q 2550 3084 2163 3084 
Q 1697 3084 1428 2787 
Q 1159 2491 1159 1978 
L 1159 0 
L 581 0 
L 581 3500 
L 1159 3500 
L 1159 2956 
Q 1366 3272 1645 3428 
Q 1925 3584 2291 3584 
Q 2894 3584 3203 3211 
Q 3513 2838 3513 2113 
z
" transform="scale(0.015625)"/>
       <path id="DejaVuSans-64" d="M 2906 2969 
L 2906 4863 
L 3481 4863 
L 3481 0 
L 2906 0 
L 2906 525 
Q 2725 213 2448 61 
Q 2172 -91 1784 -91 
Q 1150 -91 751 415 
Q 353 922 353 1747 
Q 353 2572 751 3078 
Q 1150 3584 1784 3584 
Q 2172 3584 2448 3432 
Q 2725 3281 2906 2969 
z
M 947 1747 
Q 947 1113 1208 752 
Q 1469 391 1925 391 
Q 2381 391 2643 752 
Q 2906 1113 2906 1747 
Q 2906 2381 2643 2742 
Q 2381 3103 1925 3103 
Q 1469 3103 1208 2742 
Q 947 2381 947 1747 
z
" transform="scale(0.015625)"/>
       <path id="DejaVuSans-20" transform="scale(0.015625)"/>
       <path id="DejaVuSans-63" d="M 3122 3366 
L 3122 2828 
Q 2878 2963 2633 3030 
Q 2388 3097 2138 3097 
Q 1578 3097 1268 2742 
Q 959 2388 959 1747 
Q 959 1106 1268 751 
Q 1578 397 2138 397 
Q 2388 397 2633 464 
Q 2878 531 3122 666 
L 3122 134 
Q 2881 22 2623 -34 
Q 2366 -91 2075 -91 
Q 1284 -91 818 406 
Q 353 903 353 1747 
Q 353 2603 823 3093 
Q 1294 3584 2113 3584 
Q 2378 3584 2631 3529 
Q 2884 3475 3122 3366 
z
" transform="scale(0.015625)"/>
       <path id="DejaVuSans-65" d="M 3597 1894 
L 3597 1613 
L 953 1613 
Q 991 1019 1311 708 
Q 1631 397 2203 397 
Q 2534 397 2845 478 
Q 3156 559 3463 722 
L 3463 178 
Q 3153 47 2828 -22 
Q 2503 -91 2169 -91 
Q 1331 -91 842 396 
Q 353 884 353 1716 
Q 353 2575 817 3079 
Q 1281 3584 2069 3584 
Q 2775 3584 3186 3129 
Q 3597 2675 3597 1894 
z
M 3022 2063 
Q 3016 2534 2758 2815 
Q 2500 3097 2075 3097 
Q 1594 3097 1305 2825 
Q 1016 2553 972 2059 
L 3022 2063 
z
" transform="scale(0.015625)"/>
       <path id="DejaVuSans-74" d="M 1172 4494 
L 1172 3500 
L 2356 3500 
L 2356 3053 
L 1172 3053 
L 1172 1153 
Q 1172 725 1289 603 
Q 1406 481 1766 481 
L 2356 481 
L 2356 0 
L 1766 0 
Q 1100 0 847 248 
Q 594 497 594 1153 
L 594 3053 
L 172 3053 
L 172 3500 
L 594 3500 
L 594 4494 
L 1172 4494 
z
" transform="scale(0.015625)"/>
       <path id="DejaVuSans-72" d="M 2631 2963 
Q 2534 3019 2420 3045 
Q 2306 3072 2169 3072 
Q 1681 3072 1420 2755 
Q 1159 2438 1159 1844 
L 1159 0 
L 581 0 
L 581 3500 
L 1159 3500 
L 1159 2956 
Q 1341 3275 1631 3429 
Q 1922 3584 2338 3584 
Q 2397 3584 2469 3576 
Q 2541 3569 2628 3553 
L 2631 2963 
z
" transform="scale(0.015625)"/>
       <path id="DejaVuSans-6f" d="M 1959 3097 
Q 1497 3097 1228 2736 
Q 959 2375 959 1747 
Q 959 1119 1226 758 
Q 1494 397 1959 397 
Q 2419 397 2687 759 
Q 2956 1122 2956 1747 
Q 2956 2369 2687 2733 
Q 2419 3097 1959 3097 
z
M 1959 3584 
Q 2709 3584 3137 3096 
Q 3566 2609 3566 1747 
Q 3566 888 3137 398 
Q 2709 -91 1959 -91 
Q 1206 -91 779 398 
Q 353 888 353 1747 
Q 353 2609 779 3096 
Q 1206 3584 1959 3584 
z
" transform="scale(0.015625)"/>
       <path id="DejaVuSans-66" d="M 2375 4863 
L 2375 4384 
L 1825 4384 
Q 1516 4384 1395 4259 
Q 1275 4134 1275 3809 
L 1275 3500 
L 2222 3500 
L 2222 3053 
L 1275 3053 
L 1275 0 
L 697 0 
L 697 3053 
L 147 3053 
L 147 3500 
L 697 3500 
L 697 3744 
Q 697 4328 969 4595 
Q 1241 4863 1831 4863 
L 2375 4863 
z
" transform="scale(0.015625)"/>
       <path id="DejaVuSans-6d" d="M 3328 2828 
Q 3544 3216 3844 3400 
Q 4144 3584 4550 3584 
Q 5097 3584 5394 3201 
Q 5691 2819 5691 2113 
L 5691 0 
L 5113 0 
L 5113 2094 
Q 5113 2597 4934 2840 
Q 4756 3084 4391 3084 
Q 3944 3084 3684 2787 
Q 3425 2491 3425 1978 
L 3425 0 
L 2847 0 
L 2847 2094 
Q 2847 2600 2669 2842 
Q 2491 3084 2119 3084 
Q 1678 3084 1418 2786 
Q 1159 2488 1159 1978 
L 1159 0 
L 581 0 
L 581 3500 
L 1159 3500 
L 1159 2956 
Q 1356 3278 1631 3431 
Q 1906 3584 2284 3584 
Q 2666 3584 2933 3390 
Q 3200 3197 3328 2828 
z
" transform="scale(0.015625)"/>
       <path id="DejaVuSans-73" d="M 2834 3397 
L 2834 2853 
Q 2591 2978 2328 3040 
Q 2066 3103 1784 3103 
Q 1356 3103 1142 2972 
Q 928 2841 928 2578 
Q 928 2378 1081 2264 
Q 1234 2150 1697 2047 
L 1894 2003 
Q 2506 1872 2764 1633 
Q 3022 1394 3022 966 
Q 3022 478 2636 193 
Q 2250 -91 1575 -91 
Q 1294 -91 989 -36 
Q 684 19 347 128 
L 347 722 
Q 666 556 975 473 
Q 1284 391 1588 391 
Q 1994 391 2212 530 
Q 2431 669 2431 922 
Q 2431 1156 2273 1281 
Q 2116 1406 1581 1522 
L 1381 1569 
Q 847 1681 609 1914 
Q 372 2147 372 2553 
Q 372 3047 722 3315 
Q 1072 3584 1716 3584 
Q 2034 3584 2315 3537 
Q 2597 3491 2834 3397 
z
" transform="scale(0.015625)"/>
      </defs>
      <use xlink:href="#DejaVuSans-6c"/>
      <use xlink:href="#DejaVuSans-69" transform="translate(27.783203 0)"/>
      <use xlink:href="#DejaVuSans-67" transform="translate(55.566406 0)"/>
      <use xlink:href="#DejaVuSans-61" transform="translate(119.042969 0)"/>
      <use xlink:href="#DejaVuSans-6e" transform="translate(180.322266 0)"/>
      <use xlink:href="#DejaVuSans-64" transform="translate(243.701172 0)"/>
      <use xlink:href="#DejaVuSans-20" transform="translate(307.177734 0)"/>
      <use xlink:href="#DejaVuSans-63" transform="translate(338.964844 0)"/>
      <use xlink:href="#DejaVuSans-65" transform="translate(393.945312 0)"/>
      <use xlink:href="#DejaVuSans-6e" transform="translate(455.46875 0)"/>
      <use xlink:href="#DejaVuSans-74" transform="translate(518.847656 0)"/>
      <use xlink:href="#DejaVuSans-65" transform="translate(558.056641 0)"/>
      <use xlink:href="#DejaVuSans-72" transform="translate(619.580078 0)"/>
      <use xlink:href="#DejaVuSans-20" transform="translate(660.693359 0)"/>
      <use xlink:href="#DejaVuSans-6f" transform="translate(692.480469 0)"/>
      <use xlink:href="#DejaVuSans-66" transform="translate(753.662109 0)"/>
      <use xlink:href="#DejaVuSans-20" transform="translate(788.867188 0)"/>
      <use xlink:href="#DejaVuSans-6d" transform="translate(820.654297 0)"/>
      <use xlink:href="#DejaVuSans-61" transform="translate(918.066406 0)"/>
      <use xlink:href="#DejaVuSans-73" transform="translate(979.345703 0)"/>
      <use xlink:href="#DejaVuSans-73" transform="translate(1031.445312 0)"/>
      <use xlink:href="#DejaVuSans-20" transform="translate(1083.544922 0)"/>
      <use xlink:href="#DejaVuSans-64" transform="translate(1115.332031 0)"/>
      <use xlink:href="#DejaVuSans-69" transform="translate(1178.808594 0)"/>
      <use xlink:href="#DejaVuSans-73" transform="translate(1206.591797 0)"/>
      <use xlink:href="#DejaVuSans-74" transform="translate(1258.691406 0)"/>
      <use xlink:href="#DejaVuSans-61" transform="translate(1297.900391 0)"/>
      <use xlink:href="#DejaVuSans-6e" transform="translate(1359.179688 0)"/>
      <use xlink:href="#DejaVuSans-63" transform="translate(1422.558594 0)"/>
      <use xlink:href="#DejaVuSans-65" transform="translate(1477.539062 0)"/>
     </g>
     <!-- from bound state (Angstroms) -->
     <g transform="translate(160.642031 347.058375) scale(0.1 -0.1)">
      <defs>
       <path id="DejaVuSans-62" d="M 3116 1747 
Q 3116 2381 2855 2742 
Q 2594 3103 2138 3103 
Q 1681 3103 1420 2742 
Q 1159 2381 1159 1747 
Q 1159 1113 1420 752 
Q 1681 391 2138 391 
Q 2594 391 2855 752 
Q 3116 1113 3116 1747 
z
M 1159 2969 
Q 1341 3281 1617 3432 
Q 1894 3584 2278 3584 
Q 2916 3584 3314 3078 
Q 3713 2572 3713 1747 
Q 3713 922 3314 415 
Q 2916 -91 2278 -91 
Q 1894 -91 1617 61 
Q 1341 213 1159 525 
L 1159 0 
L 581 0 
L 581 4863 
L 1159 4863 
L 1159 2969 
z
" transform="scale(0.015625)"/>
       <path id="DejaVuSans-75" d="M 544 1381 
L 544 3500 
L 1119 3500 
L 1119 1403 
Q 1119 906 1312 657 
Q 1506 409 1894 409 
Q 2359 409 2629 706 
Q 2900 1003 2900 1516 
L 2900 3500 
L 3475 3500 
L 3475 0 
L 2900 0 
L 2900 538 
Q 2691 219 2414 64 
Q 2138 -91 1772 -91 
Q 1169 -91 856 284 
Q 544 659 544 1381 
z
M 1991 3584 
L 1991 3584 
z
" transform="scale(0.015625)"/>
       <path id="DejaVuSans-28" d="M 1984 4856 
Q 1566 4138 1362 3434 
Q 1159 2731 1159 2009 
Q 1159 1288 1364 580 
Q 1569 -128 1984 -844 
L 1484 -844 
Q 1016 -109 783 600 
Q 550 1309 550 2009 
Q 550 2706 781 3412 
Q 1013 4119 1484 4856 
L 1984 4856 
z
" transform="scale(0.015625)"/>
       <path id="DejaVuSans-41" d="M 2188 4044 
L 1331 1722 
L 3047 1722 
L 2188 4044 
z
M 1831 4666 
L 2547 4666 
L 4325 0 
L 3669 0 
L 3244 1197 
L 1141 1197 
L 716 0 
L 50 0 
L 1831 4666 
z
" transform="scale(0.015625)"/>
       <path id="DejaVuSans-29" d="M 513 4856 
L 1013 4856 
Q 1481 4119 1714 3412 
Q 1947 2706 1947 2009 
Q 1947 1309 1714 600 
Q 1481 -109 1013 -844 
L 513 -844 
Q 928 -128 1133 580 
Q 1338 1288 1338 2009 
Q 1338 2731 1133 3434 
Q 928 4138 513 4856 
z
" transform="scale(0.015625)"/>
      </defs>
      <use xlink:href="#DejaVuSans-66"/>
      <use xlink:href="#DejaVuSans-72" transform="translate(35.205078 0)"/>
      <use xlink:href="#DejaVuSans-6f" transform="translate(74.068359 0)"/>
      <use xlink:href="#DejaVuSans-6d" transform="translate(135.25 0)"/>
      <use xlink:href="#DejaVuSans-20" transform="translate(232.662109 0)"/>
      <use xlink:href="#DejaVuSans-62" transform="translate(264.449219 0)"/>
      <use xlink:href="#DejaVuSans-6f" transform="translate(327.925781 0)"/>
      <use xlink:href="#DejaVuSans-75" transform="translate(389.107422 0)"/>
      <use xlink:href="#DejaVuSans-6e" transform="translate(452.486328 0)"/>
      <use xlink:href="#DejaVuSans-64" transform="translate(515.865234 0)"/>
      <use xlink:href="#DejaVuSans-20" transform="translate(579.341797 0)"/>
      <use xlink:href="#DejaVuSans-73" transform="translate(611.128906 0)"/>
      <use xlink:href="#DejaVuSans-74" transform="translate(663.228516 0)"/>
      <use xlink:href="#DejaVuSans-61" transform="translate(702.4375 0)"/>
      <use xlink:href="#DejaVuSans-74" transform="translate(763.716797 0)"/>
      <use xlink:href="#DejaVuSans-65" transform="translate(802.925781 0)"/>
      <use xlink:href="#DejaVuSans-20" transform="translate(864.449219 0)"/>
      <use xlink:href="#DejaVuSans-28" transform="translate(896.236328 0)"/>
      <use xlink:href="#DejaVuSans-41" transform="translate(935.25 0)"/>
      <use xlink:href="#DejaVuSans-6e" transform="translate(1003.658203 0)"/>
      <use xlink:href="#DejaVuSans-67" transform="translate(1067.037109 0)"/>
      <use xlink:href="#DejaVuSans-73" transform="translate(1130.513672 0)"/>
      <use xlink:href="#DejaVuSans-74" transform="translate(1182.613281 0)"/>
      <use xlink:href="#DejaVuSans-72" transform="translate(1221.822266 0)"/>
      <use xlink:href="#DejaVuSans-6f" transform="translate(1260.685547 0)"/>
      <use xlink:href="#DejaVuSans-6d" transform="translate(1321.867188 0)"/>
      <use xlink:href="#DejaVuSans-73" transform="translate(1419.279297 0)"/>
      <use xlink:href="#DejaVuSans-29" transform="translate(1471.378906 0)"/>
     </g>
    </g>
   </g>
   <g id="matplotlib.axis_2">
    <g id="ytick_1">
     <g id="line2d_6">
      <defs>
       <path id="m5764ac880b" d="M 0 0 
L -3.5 0 
" style="stroke: #000000; stroke-width: 0.8"/>
      </defs>
      <g>
       <use xlink:href="#m5764ac880b" x="57.6" y="295.488" style="stroke: #000000; stroke-width: 0.8"/>
      </g>
     </g>
     <g id="text_7">
      <!-- 0 -->
      <g transform="translate(44.2375 299.287219) scale(0.1 -0.1)">
       <use xlink:href="#DejaVuSans-30"/>
      </g>
     </g>
    </g>
    <g id="ytick_2">
     <g id="line2d_7">
      <g>
       <use xlink:href="#m5764ac880b" x="57.6" y="254.398457" style="stroke: #000000; stroke-width: 0.8"/>
      </g>
     </g>
     <g id="text_8">
      <!-- 5 -->
      <g transform="translate(44.2375 258.197676) scale(0.1 -0.1)">
       <defs>
        <path id="DejaVuSans-35" d="M 691 4666 
L 3169 4666 
L 3169 4134 
L 1269 4134 
L 1269 2991 
Q 1406 3038 1543 3061 
Q 1681 3084 1819 3084 
Q 2600 3084 3056 2656 
Q 3513 2228 3513 1497 
Q 3513 744 3044 326 
Q 2575 -91 1722 -91 
Q 1428 -91 1123 -41 
Q 819 9 494 109 
L 494 744 
Q 775 591 1075 516 
Q 1375 441 1709 441 
Q 2250 441 2565 725 
Q 2881 1009 2881 1497 
Q 2881 1984 2565 2268 
Q 2250 2553 1709 2553 
Q 1456 2553 1204 2497 
Q 953 2441 691 2322 
L 691 4666 
z
" transform="scale(0.015625)"/>
       </defs>
       <use xlink:href="#DejaVuSans-35"/>
      </g>
     </g>
    </g>
    <g id="ytick_3">
     <g id="line2d_8">
      <g>
       <use xlink:href="#m5764ac880b" x="57.6" y="213.308915" style="stroke: #000000; stroke-width: 0.8"/>
      </g>
     </g>
     <g id="text_9">
      <!-- 10 -->
      <g transform="translate(37.875 217.108134) scale(0.1 -0.1)">
       <use xlink:href="#DejaVuSans-31"/>
       <use xlink:href="#DejaVuSans-30" transform="translate(63.623047 0)"/>
      </g>
     </g>
    </g>
    <g id="ytick_4">
     <g id="line2d_9">
      <g>
       <use xlink:href="#m5764ac880b" x="57.6" y="172.219372" style="stroke: #000000; stroke-width: 0.8"/>
      </g>
     </g>
     <g id="text_10">
      <!-- 15 -->
      <g transform="translate(37.875 176.018591) scale(0.1 -0.1)">
       <use xlink:href="#DejaVuSans-31"/>
       <use xlink:href="#DejaVuSans-35" transform="translate(63.623047 0)"/>
      </g>
     </g>
    </g>
    <g id="ytick_5">
     <g id="line2d_10">
      <g>
       <use xlink:href="#m5764ac880b" x="57.6" y="131.12983" style="stroke: #000000; stroke-width: 0.8"/>
      </g>
     </g>
     <g id="text_11">
      <!-- 20 -->
      <g transform="translate(37.875 134.929048) scale(0.1 -0.1)">
       <use xlink:href="#DejaVuSans-32"/>
       <use xlink:href="#DejaVuSans-30" transform="translate(63.623047 0)"/>
      </g>
     </g>
    </g>
    <g id="ytick_6">
     <g id="line2d_11">
      <g>
       <use xlink:href="#m5764ac880b" x="57.6" y="90.040287" style="stroke: #000000; stroke-width: 0.8"/>
      </g>
     </g>
     <g id="text_12">
      <!-- 25 -->
      <g transform="translate(37.875 93.839506) scale(0.1 -0.1)">
       <use xlink:href="#DejaVuSans-32"/>
       <use xlink:href="#DejaVuSans-35" transform="translate(63.623047 0)"/>
      </g>
     </g>
    </g>
    <g id="ytick_7">
     <g id="line2d_12">
      <g>
       <use xlink:href="#m5764ac880b" x="57.6" y="48.950745" style="stroke: #000000; stroke-width: 0.8"/>
      </g>
     </g>
     <g id="text_13">
      <!-- 30 -->
      <g transform="translate(37.875 52.749963) scale(0.1 -0.1)">
       <use xlink:href="#DejaVuSans-33"/>
       <use xlink:href="#DejaVuSans-30" transform="translate(63.623047 0)"/>
      </g>
     </g>
    </g>
    <g id="text_14">
     <!-- free energy (kT) -->
     <g transform="translate(31.795312 214.836594) rotate(-90) scale(0.1 -0.1)">
      <defs>
       <path id="DejaVuSans-79" d="M 2059 -325 
Q 1816 -950 1584 -1140 
Q 1353 -1331 966 -1331 
L 506 -1331 
L 506 -850 
L 844 -850 
Q 1081 -850 1212 -737 
Q 1344 -625 1503 -206 
L 1606 56 
L 191 3500 
L 800 3500 
L 1894 763 
L 2988 3500 
L 3597 3500 
L 2059 -325 
z
" transform="scale(0.015625)"/>
       <path id="DejaVuSans-6b" d="M 581 4863 
L 1159 4863 
L 1159 1991 
L 2875 3500 
L 3609 3500 
L 1753 1863 
L 3688 0 
L 2938 0 
L 1159 1709 
L 1159 0 
L 581 0 
L 581 4863 
z
" transform="scale(0.015625)"/>
       <path id="DejaVuSans-54" d="M -19 4666 
L 3928 4666 
L 3928 4134 
L 2272 4134 
L 2272 0 
L 1638 0 
L 1638 4134 
L -19 4134 
L -19 4666 
z
" transform="scale(0.015625)"/>
      </defs>
      <use xlink:href="#DejaVuSans-66"/>
      <use xlink:href="#DejaVuSans-72" transform="translate(35.205078 0)"/>
      <use xlink:href="#DejaVuSans-65" transform="translate(74.068359 0)"/>
      <use xlink:href="#DejaVuSans-65" transform="translate(135.591797 0)"/>
      <use xlink:href="#DejaVuSans-20" transform="translate(197.115234 0)"/>
      <use xlink:href="#DejaVuSans-65" transform="translate(228.902344 0)"/>
      <use xlink:href="#DejaVuSans-6e" transform="translate(290.425781 0)"/>
      <use xlink:href="#DejaVuSans-65" transform="translate(353.804688 0)"/>
      <use xlink:href="#DejaVuSans-72" transform="translate(415.328125 0)"/>
      <use xlink:href="#DejaVuSans-67" transform="translate(454.691406 0)"/>
      <use xlink:href="#DejaVuSans-79" transform="translate(518.167969 0)"/>
      <use xlink:href="#DejaVuSans-20" transform="translate(577.347656 0)"/>
      <use xlink:href="#DejaVuSans-28" transform="translate(609.134766 0)"/>
      <use xlink:href="#DejaVuSans-6b" transform="translate(648.148438 0)"/>
      <use xlink:href="#DejaVuSans-54" transform="translate(706.058594 0)"/>
      <use xlink:href="#DejaVuSans-29" transform="translate(767.142578 0)"/>
     </g>
    </g>
   </g>
   <g id="line2d_13">
    <path d="M 73.832727 272.553802 
L 75.208382 285.99585 
L 76.584037 292.439727 
L 77.959692 295.242593 
L 79.335347 295.488 
L 80.711002 294.383621 
L 82.086656 292.065463 
L 84.837966 284.80896 
L 86.213621 280.673932 
L 87.589276 275.754445 
L 88.964931 272.142276 
L 90.340586 269.477373 
L 91.71624 267.565085 
L 93.091895 264.959526 
L 94.46755 261.983739 
L 98.594515 250.008506 
L 99.970169 247.303356 
L 101.345824 247.198441 
L 102.721479 246.259448 
L 104.097134 248.206382 
L 105.472789 247.97538 
L 106.848444 248.064269 
L 108.224099 247.986588 
L 109.599753 248.302551 
L 110.975408 246.449249 
L 112.351063 245.023519 
L 113.726718 244.358311 
L 115.102373 243.96356 
L 116.478028 242.843277 
L 117.853683 241.06241 
L 119.229337 237.770004 
L 120.604992 235.566315 
L 121.980647 235.376876 
L 123.356302 231.368373 
L 124.731957 231.803114 
L 126.107612 230.301173 
L 128.858921 224.574362 
L 130.234576 223.200585 
L 131.610231 223.48258 
L 132.985886 223.099841 
L 134.361541 224.621558 
L 135.737196 223.178132 
L 137.112851 227.280439 
L 138.488505 230.080846 
L 139.86416 230.761962 
L 141.239815 234.670171 
L 142.61547 233.680922 
L 143.991125 234.893619 
L 145.36678 236.691046 
L 146.742435 237.573094 
L 148.118089 237.750842 
L 149.493744 236.543851 
L 150.869399 233.592853 
L 153.620709 229.398317 
L 154.996364 226.857867 
L 156.372018 225.832114 
L 157.747673 224.528609 
L 159.123328 223.024924 
L 160.498983 222.876199 
L 161.874638 226.735709 
L 163.250293 226.685243 
L 164.625948 228.387774 
L 166.001602 226.083907 
L 167.377257 222.255022 
L 168.752912 226.078017 
L 171.504222 219.159552 
L 172.879877 214.637514 
L 174.255532 213.226118 
L 175.631186 213.481505 
L 177.006841 212.805411 
L 178.382496 212.990941 
L 179.758151 214.30412 
L 181.133806 213.531983 
L 183.885116 217.166878 
L 185.26077 216.349217 
L 186.636425 215.382214 
L 188.01208 214.648267 
L 189.387735 210.986936 
L 190.76339 206.959927 
L 192.139045 204.51854 
L 193.5147 202.620099 
L 194.890354 200.996438 
L 196.266009 202.450998 
L 197.641664 204.815656 
L 199.017319 204.377707 
L 200.392974 205.756996 
L 201.768629 204.513611 
L 203.144284 205.830858 
L 204.519938 202.574396 
L 205.895593 203.392857 
L 207.271248 202.605676 
L 208.646903 200.185458 
L 210.022558 196.68348 
L 211.398213 194.045614 
L 212.773867 194.587179 
L 215.525177 187.363212 
L 216.900832 181.868843 
L 218.276487 181.195566 
L 219.652142 170.466557 
L 221.027797 170.948294 
L 222.403451 165.407934 
L 223.779106 157.953866 
L 226.530416 156.013588 
L 227.906071 156.992374 
L 229.281726 153.663943 
L 230.657381 158.394491 
L 232.033035 159.724617 
L 233.40869 159.837434 
L 234.784345 161.29514 
L 236.16 161.594846 
L 238.91131 160.877039 
L 240.286965 159.733106 
L 241.662619 159.251146 
L 243.038274 157.724972 
L 244.413929 158.881845 
L 245.789584 157.951217 
L 249.916549 153.94352 
L 251.292203 148.570334 
L 252.667858 146.509487 
L 254.043513 146.48179 
L 255.419168 143.386165 
L 256.794823 140.87313 
L 258.170478 137.23724 
L 259.546133 132.839099 
L 260.921787 129.357759 
L 262.297442 131.739527 
L 263.673097 130.643541 
L 265.048752 129.205034 
L 266.424407 129.769266 
L 267.800062 128.618106 
L 269.175716 130.257778 
L 270.551371 128.154505 
L 271.927026 129.125167 
L 273.302681 127.970451 
L 274.678336 125.017677 
L 276.053991 122.92655 
L 277.429646 121.640917 
L 281.55661 112.58271 
L 282.932265 112.759551 
L 284.30792 111.93051 
L 285.683575 112.186942 
L 287.05923 106.4034 
L 288.434884 113.945605 
L 289.810539 116.24024 
L 291.186194 116.061216 
L 292.561849 116.962143 
L 293.937504 116.449442 
L 295.313159 120.724127 
L 296.688814 115.824413 
L 298.064468 120.738652 
L 299.440123 118.816927 
L 300.815778 117.762709 
L 302.191433 120.282858 
L 303.567088 122.243886 
L 304.942743 121.72025 
L 306.318398 122.009602 
L 307.694052 123.34981 
L 309.069707 119.607599 
L 310.445362 124.764918 
L 311.821017 126.258117 
L 313.196672 125.906222 
L 314.572327 124.721658 
L 315.947982 128.164859 
L 317.323636 123.213985 
L 318.699291 123.642477 
L 320.074946 125.053607 
L 321.450601 124.528952 
L 322.826256 124.141821 
L 324.201911 122.078829 
L 325.577565 124.072187 
L 326.95322 122.040927 
L 328.328875 124.977788 
L 329.70453 120.315948 
L 331.080185 119.079388 
L 332.45584 118.495382 
L 333.831495 117.365308 
L 335.207149 117.759544 
L 336.582804 118.339998 
L 337.958459 113.115595 
L 339.334114 114.517156 
L 340.709769 110.13661 
L 343.461079 106.57054 
L 344.836733 105.98103 
L 346.212388 100.937367 
L 347.588043 96.68217 
L 348.963698 98.36345 
L 351.715008 93.745213 
L 353.090663 94.48253 
L 354.466317 93.09259 
L 355.841972 90.279433 
L 357.217627 93.190758 
L 358.593282 83.520975 
L 359.968937 87.294689 
L 361.344592 80.791533 
L 362.720247 75.847294 
L 364.095901 84.75172 
L 365.471556 83.73865 
L 366.847211 74.812678 
L 368.222866 71.942584 
L 369.598521 53.728571 
L 370.974176 66.808362 
L 372.349831 66.920259 
L 373.725485 59.26422 
L 375.10114 53.568 
L 377.85245 53.568 
L 377.85245 53.568 
" clip-path="url(#pc4f5f32f05)" style="fill: none; stroke: #0000ff; stroke-width: 1.5; stroke-linecap: square"/>
   </g>
   <g id="line2d_14">
    <path d="M 73.832727 267.914153 
L 75.208382 283.476613 
L 76.584037 291.158034 
L 77.959692 294.755407 
L 79.335347 295.488 
L 80.711002 293.627516 
L 82.086656 289.579647 
L 83.462311 283.885859 
L 86.213621 269.297023 
L 87.589276 259.024426 
L 88.964931 250.348726 
L 90.340586 243.749217 
L 91.71624 241.667179 
L 93.091895 240.213986 
L 94.46755 239.176282 
L 95.843205 239.655265 
L 97.21886 241.797702 
L 98.594515 245.718422 
L 99.970169 247.083627 
L 101.345824 250.163414 
L 102.721479 250.047872 
L 104.097134 248.685729 
L 105.472789 248.220295 
L 108.224099 243.98774 
L 109.599753 239.130886 
L 110.975408 237.135362 
L 112.351063 233.425428 
L 113.726718 230.458616 
L 115.102373 226.424141 
L 116.478028 222.890409 
L 117.853683 225.344614 
L 119.229337 220.549121 
L 120.604992 224.939884 
L 121.980647 225.561132 
L 123.356302 230.344408 
L 124.731957 229.719707 
L 126.107612 233.938215 
L 127.483267 233.740298 
L 128.858921 234.266869 
L 130.234576 233.745715 
L 131.610231 232.864435 
L 134.361541 234.397293 
L 135.737196 232.568591 
L 137.112851 238.745709 
L 138.488505 240.903279 
L 139.86416 242.020151 
L 141.239815 244.327162 
L 142.61547 243.468623 
L 143.991125 248.545923 
L 145.36678 248.419406 
L 146.742435 251.748592 
L 149.493744 255.768686 
L 150.869399 255.535628 
L 152.245054 253.390854 
L 153.620709 255.742257 
L 154.996364 253.081999 
L 156.372018 253.57004 
L 157.747673 256.172899 
L 159.123328 255.031896 
L 160.498983 253.462078 
L 161.874638 256.981843 
L 163.250293 251.369001 
L 164.625948 254.291064 
L 166.001602 249.623207 
L 167.377257 249.248282 
L 168.752912 249.262394 
L 170.128567 243.885182 
L 171.504222 239.227587 
L 172.879877 245.793852 
L 174.255532 243.353686 
L 175.631186 240.121066 
L 177.006841 230.441706 
L 178.382496 231.681731 
L 179.758151 230.190851 
L 181.133806 231.050277 
L 182.509461 230.933174 
L 183.885116 236.938393 
L 185.26077 234.739746 
L 186.636425 240.229027 
L 188.01208 243.060933 
L 189.387735 246.206559 
L 190.76339 247.113725 
L 192.139045 246.703597 
L 193.5147 251.644286 
L 194.890354 252.626142 
L 196.266009 250.296171 
L 197.641664 251.865305 
L 199.017319 250.53846 
L 200.392974 250.22261 
L 201.768629 247.872027 
L 203.144284 248.006492 
L 204.519938 245.493983 
L 205.895593 240.044293 
L 207.271248 241.096319 
L 208.646903 238.018768 
L 210.022558 237.869843 
L 211.398213 238.71116 
L 212.773867 239.800918 
L 214.149522 235.286396 
L 215.525177 232.988179 
L 216.900832 233.372134 
L 218.276487 232.905829 
L 219.652142 231.443367 
L 221.027797 230.867555 
L 222.403451 232.078258 
L 223.779106 229.819499 
L 225.154761 230.780848 
L 226.530416 229.469736 
L 227.906071 227.946572 
L 229.281726 228.013322 
L 230.657381 224.664852 
L 232.033035 223.054389 
L 233.40869 218.343715 
L 234.784345 211.746176 
L 237.535655 201.811662 
L 238.91131 200.894832 
L 240.286965 196.662582 
L 241.662619 200.06751 
L 243.038274 199.373179 
L 244.413929 200.771496 
L 245.789584 199.126208 
L 247.165239 202.425223 
L 248.540894 204.037981 
L 249.916549 203.163424 
L 251.292203 203.420188 
L 252.667858 205.330316 
L 254.043513 206.558874 
L 255.419168 204.231736 
L 256.794823 207.945201 
L 259.546133 207.005461 
L 260.921787 209.094175 
L 262.297442 209.011144 
L 263.673097 210.514502 
L 265.048752 210.602518 
L 266.424407 209.319044 
L 267.800062 211.183377 
L 269.175716 211.220797 
L 270.551371 209.687334 
L 271.927026 209.928762 
L 273.302681 207.122642 
L 274.678336 210.197309 
L 276.053991 208.637398 
L 277.429646 206.43943 
L 278.8053 204.622494 
L 280.180955 205.967291 
L 281.55661 205.281899 
L 282.932265 203.153425 
L 284.30792 202.240749 
L 285.683575 198.658044 
L 287.05923 202.792785 
L 288.434884 193.836688 
L 289.810539 190.859468 
L 291.186194 192.486301 
L 292.561849 193.288247 
L 293.937504 186.862741 
L 295.313159 183.225015 
L 296.688814 181.189267 
L 298.064468 178.253375 
L 299.440123 185.075533 
L 300.815778 185.317784 
L 302.191433 183.804159 
L 303.567088 180.896644 
L 304.942743 180.367963 
L 306.318398 177.262003 
L 307.694052 176.066951 
L 309.069707 178.803583 
L 310.445362 176.323003 
L 311.821017 176.449793 
L 313.196672 171.058575 
L 314.572327 168.67756 
L 315.947982 165.837345 
L 317.323636 168.023528 
L 318.699291 169.11282 
L 320.074946 156.947716 
L 321.450601 162.642003 
L 322.826256 163.021562 
L 324.201911 136.372323 
L 325.577565 140.946316 
L 326.95322 143.213208 
L 328.328875 150.92337 
L 329.70453 118.194748 
L 332.45584 139.145326 
L 332.45584 139.145326 
" clip-path="url(#pc4f5f32f05)" style="fill: none; stroke: #00ffff; stroke-width: 1.5; stroke-linecap: square"/>
   </g>
   <g id="line2d_15">
    <path d="M 73.832727 269.8887 
L 75.208382 285.562229 
L 76.584037 292.564954 
L 77.959692 295.217245 
L 79.335347 295.488 
L 80.711002 293.637839 
L 82.086656 290.733415 
L 83.462311 286.800058 
L 84.837966 282.14685 
L 87.589276 269.231614 
L 88.964931 261.909126 
L 90.340586 256.166223 
L 91.71624 249.914646 
L 93.091895 240.378564 
L 94.46755 235.682459 
L 95.843205 231.603839 
L 97.21886 222.1061 
L 98.594515 219.015165 
L 99.970169 223.112538 
L 101.345824 216.795682 
L 102.721479 216.011388 
L 104.097134 215.017911 
L 105.472789 214.488954 
L 106.848444 213.612879 
L 108.224099 214.266148 
L 109.599753 213.304335 
L 110.975408 213.012824 
L 113.726718 215.512655 
L 115.102373 215.600219 
L 116.478028 218.306006 
L 117.853683 216.589908 
L 119.229337 215.870854 
L 120.604992 218.104536 
L 121.980647 217.811881 
L 123.356302 220.354907 
L 124.731957 213.547286 
L 126.107612 214.019958 
L 127.483267 213.56336 
L 128.858921 212.07986 
L 130.234576 212.092908 
L 131.610231 212.941024 
L 132.985886 211.993984 
L 134.361541 211.667936 
L 135.737196 212.54486 
L 137.112851 214.037514 
L 138.488505 214.317815 
L 141.239815 216.648709 
L 142.61547 215.973806 
L 143.991125 217.412137 
L 145.36678 216.178708 
L 146.742435 216.752943 
L 148.118089 216.666119 
L 149.493744 216.467391 
L 150.869399 218.927332 
L 152.245054 219.503974 
L 153.620709 221.497148 
L 154.996364 221.153267 
L 156.372018 222.063647 
L 157.747673 222.21049 
L 159.123328 222.115776 
L 160.498983 222.144443 
L 161.874638 221.224886 
L 163.250293 220.90056 
L 164.625948 220.726732 
L 166.001602 223.253173 
L 167.377257 221.042408 
L 168.752912 223.384391 
L 170.128567 222.894807 
L 171.504222 224.143853 
L 172.879877 226.758969 
L 174.255532 228.155475 
L 175.631186 229.729475 
L 177.006841 231.030691 
L 178.382496 232.920356 
L 179.758151 231.50846 
L 181.133806 230.797182 
L 182.509461 229.026387 
L 183.885116 226.40995 
L 185.26077 224.163319 
L 186.636425 219.203649 
L 188.01208 216.382634 
L 189.387735 210.164934 
L 190.76339 210.236418 
L 192.139045 206.320824 
L 193.5147 205.212772 
L 194.890354 203.095773 
L 196.266009 198.457784 
L 197.641664 196.93595 
L 199.017319 197.336154 
L 200.392974 196.128287 
L 201.768629 193.684975 
L 203.144284 187.936173 
L 204.519938 180.50324 
L 205.895593 182.679907 
L 207.271248 169.889576 
L 208.646903 167.207437 
L 210.022558 168.060275 
L 211.398213 157.421273 
L 212.773867 162.607288 
L 214.149522 154.063838 
L 215.525177 155.514938 
L 216.900832 161.769542 
L 218.276487 159.600956 
L 219.652142 158.009553 
L 221.027797 158.087676 
L 222.403451 156.104485 
L 223.779106 157.829184 
L 225.154761 157.469281 
L 226.530416 156.224793 
L 227.906071 156.259214 
L 229.281726 148.51677 
L 230.657381 149.968411 
L 232.033035 143.726813 
L 233.40869 144.55985 
L 234.784345 135.546871 
L 236.16 128.034487 
L 237.535655 127.882129 
L 238.91131 130.087405 
L 240.286965 131.744493 
L 241.662619 140.466824 
L 243.038274 131.243836 
L 244.413929 126.548558 
L 245.789584 127.809005 
L 247.165239 136.044548 
L 248.540894 134.076885 
L 249.916549 131.213311 
L 251.292203 131.190882 
L 252.667858 127.537542 
L 254.043513 129.00812 
L 255.419168 120.693682 
L 256.794823 122.014306 
L 258.170478 126.152959 
L 259.546133 123.969545 
L 260.921787 119.766944 
L 263.673097 118.317057 
L 265.048752 121.052893 
L 266.424407 116.892477 
L 267.800062 112.010572 
L 269.175716 116.912004 
L 270.551371 114.842876 
L 271.927026 117.892881 
L 273.302681 113.209812 
L 274.678336 109.977338 
L 276.053991 107.059255 
L 277.429646 111.101916 
L 278.8053 106.835202 
L 280.180955 104.228556 
L 281.55661 96.59312 
L 282.932265 107.421189 
L 284.30792 108.37322 
L 285.683575 100.359787 
L 287.05923 104.704509 
L 288.434884 101.942006 
L 289.810539 102.891588 
L 291.186194 101.205067 
L 292.561849 107.839044 
L 293.937504 96.167067 
L 295.313159 101.093922 
L 296.688814 90.469312 
L 298.064468 102.838412 
L 299.440123 88.589089 
L 300.815778 89.050675 
L 302.191433 99.083062 
L 303.567088 100.483016 
L 304.942743 93.49027 
L 306.318398 96.080695 
L 307.694052 98.949425 
L 309.069707 99.247882 
L 311.821017 87.507639 
L 313.196672 95.540825 
L 314.572327 99.361666 
L 315.947982 92.005377 
L 317.323636 94.313231 
L 318.699291 88.043041 
L 320.074946 87.119769 
L 321.450601 88.224466 
L 322.826256 92.622855 
L 324.201911 94.835817 
L 325.577565 96.723638 
L 326.95322 84.078986 
L 328.328875 88.910968 
L 329.70453 73.274867 
L 331.080185 88.612412 
L 332.45584 91.757795 
L 335.207149 87.317077 
L 336.582804 82.768039 
L 339.334114 84.163536 
L 342.085424 83.456535 
L 343.461079 73.362792 
L 343.461079 73.362792 
" clip-path="url(#pc4f5f32f05)" style="fill: none; stroke: #ff0000; stroke-width: 1.5; stroke-linecap: square"/>
   </g>
   <g id="line2d_16">
    <path d="M 73.832727 271.39996 
L 75.208382 288.84148 
L 76.584037 294.736782 
L 77.959692 295.488 
L 79.335347 294.928022 
L 80.711002 293.681578 
L 82.086656 293.23022 
L 83.462311 293.563832 
L 84.837966 294.309745 
L 86.213621 294.463904 
L 87.589276 293.974217 
L 88.964931 292.478031 
L 90.340586 289.761555 
L 91.71624 286.265318 
L 93.091895 281.768176 
L 94.46755 276.416813 
L 95.843205 269.723746 
L 97.21886 262.237519 
L 98.594515 256.488934 
L 99.970169 251.817797 
L 101.345824 250.32296 
L 104.097134 250.379065 
L 105.472789 250.96771 
L 108.224099 251.370115 
L 109.599753 251.986629 
L 110.975408 251.129834 
L 113.726718 251.401296 
L 115.102373 250.880849 
L 119.229337 251.498965 
L 120.604992 252.042724 
L 123.356302 252.665881 
L 124.731957 254.099114 
L 126.107612 253.693626 
L 128.858921 255.103488 
L 130.234576 256.38409 
L 131.610231 257.864825 
L 132.985886 257.787966 
L 134.361541 257.463199 
L 135.737196 258.941092 
L 137.112851 258.280002 
L 138.488505 258.96761 
L 139.86416 258.747063 
L 141.239815 258.706195 
L 142.61547 259.000475 
L 143.991125 259.422505 
L 145.36678 258.853539 
L 146.742435 257.8184 
L 148.118089 256.576551 
L 149.493744 256.150477 
L 150.869399 254.845393 
L 152.245054 252.20861 
L 153.620709 251.302443 
L 154.996364 247.532739 
L 156.372018 246.119414 
L 159.123328 241.298377 
L 160.498983 239.042077 
L 161.874638 237.096888 
L 163.250293 235.732762 
L 164.625948 232.989505 
L 166.001602 232.481163 
L 168.752912 226.519682 
L 170.128567 225.152 
L 171.504222 224.980702 
L 172.879877 218.117445 
L 175.631186 213.384785 
L 177.006841 214.998913 
L 178.382496 214.810324 
L 179.758151 208.334146 
L 181.133806 209.912334 
L 182.509461 211.894572 
L 183.885116 214.489505 
L 185.26077 214.578655 
L 186.636425 213.44912 
L 188.01208 214.118028 
L 190.76339 213.631822 
L 192.139045 209.501269 
L 193.5147 208.370153 
L 194.890354 208.162284 
L 196.266009 205.310534 
L 199.017319 202.596525 
L 200.392974 202.380797 
L 201.768629 203.930872 
L 203.144284 198.90571 
L 204.519938 202.266483 
L 205.895593 200.020791 
L 207.271248 199.269061 
L 208.646903 198.778441 
L 210.022558 200.295361 
L 211.398213 202.746965 
L 214.149522 203.49807 
L 215.525177 202.300938 
L 216.900832 202.285701 
L 218.276487 200.819604 
L 219.652142 200.995481 
L 221.027797 198.261427 
L 222.403451 202.180263 
L 223.779106 204.451535 
L 225.154761 204.493627 
L 226.530416 205.812105 
L 227.906071 205.476781 
L 229.281726 205.329123 
L 230.657381 205.612968 
L 232.033035 206.574404 
L 233.40869 202.99432 
L 234.784345 206.326023 
L 236.16 205.229143 
L 237.535655 207.18274 
L 238.91131 206.668261 
L 240.286965 205.428196 
L 241.662619 204.035321 
L 243.038274 207.714291 
L 244.413929 207.719725 
L 247.165239 208.402994 
L 248.540894 208.310381 
L 249.916549 206.492241 
L 251.292203 206.51578 
L 252.667858 207.104733 
L 254.043513 204.740989 
L 255.419168 205.946321 
L 256.794823 204.253799 
L 258.170478 205.506142 
L 259.546133 204.877421 
L 260.921787 200.889538 
L 262.297442 202.808442 
L 263.673097 201.920837 
L 265.048752 203.631772 
L 266.424407 202.238131 
L 267.800062 203.644132 
L 269.175716 202.906658 
L 270.551371 203.084543 
L 271.927026 203.897134 
L 273.302681 202.858812 
L 274.678336 202.474048 
L 276.053991 206.137486 
L 277.429646 201.289117 
L 278.8053 203.485907 
L 280.180955 201.521965 
L 281.55661 201.891781 
L 282.932265 201.272881 
L 284.30792 203.121551 
L 285.683575 200.340328 
L 287.05923 198.505464 
L 288.434884 200.86434 
L 289.810539 200.636338 
L 291.186194 197.569268 
L 292.561849 199.634456 
L 293.937504 197.913012 
L 295.313159 198.099753 
L 296.688814 193.733398 
L 298.064468 199.455365 
L 299.440123 197.43688 
L 300.815778 193.844102 
L 302.191433 192.446573 
L 303.567088 193.170632 
L 304.942743 196.318533 
L 306.318398 194.000271 
L 307.694052 189.735234 
L 309.069707 192.698359 
L 310.445362 193.256777 
L 311.821017 190.489573 
L 313.196672 191.06435 
L 314.572327 195.272904 
L 315.947982 196.61463 
L 317.323636 195.960734 
L 320.074946 190.239624 
L 321.450601 193.477148 
L 322.826256 192.97648 
L 324.201911 187.415424 
L 325.577565 189.814875 
L 326.95322 193.515354 
L 328.328875 189.39427 
L 329.70453 189.65389 
L 331.080185 190.763204 
L 332.45584 192.485056 
L 335.207149 184.674861 
L 336.582804 187.297457 
L 337.958459 187.052531 
L 339.334114 187.235875 
L 340.709769 188.811109 
L 342.085424 187.959684 
L 343.461079 187.806407 
L 344.836733 189.289169 
L 346.212388 185.933408 
L 347.588043 189.848108 
L 348.963698 188.765909 
L 353.090663 187.408506 
L 354.466317 187.906702 
L 355.841972 185.715043 
L 357.217627 184.406723 
L 358.593282 185.54438 
L 359.968937 185.822574 
L 361.344592 179.491048 
L 362.720247 178.90693 
L 364.095901 181.617519 
L 365.471556 182.140404 
L 366.847211 179.266067 
L 368.222866 181.208151 
L 369.598521 180.63036 
L 370.974176 181.187699 
L 372.349831 183.483795 
L 373.725485 176.816716 
L 375.10114 174.31095 
L 376.476795 168.806453 
L 377.85245 176.642061 
L 379.228105 181.639256 
L 381.979414 164.398254 
L 383.355069 132.329906 
L 384.730724 172.709681 
L 387.482034 172.959835 
L 388.857689 150.870856 
L 390.233344 163.040378 
L 391.608998 160.919748 
L 392.984653 162.979135 
L 397.111618 158.779239 
L 398.487273 157.936127 
L 398.487273 157.936127 
" clip-path="url(#pc4f5f32f05)" style="fill: none; stroke: #ffa500; stroke-width: 1.5; stroke-linecap: square"/>
   </g>
   <g id="patch_3">
    <path d="M 57.6 307.584 
L 57.6 41.472 
" style="fill: none; stroke: #000000; stroke-width: 0.8; stroke-linejoin: miter; stroke-linecap: square"/>
   </g>
   <g id="patch_4">
    <path d="M 414.72 307.584 
L 414.72 41.472 
" style="fill: none; stroke: #000000; stroke-width: 0.8; stroke-linejoin: miter; stroke-linecap: square"/>
   </g>
   <g id="patch_5">
    <path d="M 57.6 307.584 
L 414.72 307.584 
" style="fill: none; stroke: #000000; stroke-width: 0.8; stroke-linejoin: miter; stroke-linecap: square"/>
   </g>
   <g id="patch_6">
    <path d="M 57.6 41.472 
L 414.72 41.472 
" style="fill: none; stroke: #000000; stroke-width: 0.8; stroke-linejoin: miter; stroke-linecap: square"/>
   </g>
   <g id="text_15">
    <!-- Reweighted GLPG1837 amide -->
    <g transform="translate(146.806875 8.59725) scale(0.12 -0.12)">
     <defs>
      <path id="DejaVuSans-52" d="M 2841 2188 
Q 3044 2119 3236 1894 
Q 3428 1669 3622 1275 
L 4263 0 
L 3584 0 
L 2988 1197 
Q 2756 1666 2539 1819 
Q 2322 1972 1947 1972 
L 1259 1972 
L 1259 0 
L 628 0 
L 628 4666 
L 2053 4666 
Q 2853 4666 3247 4331 
Q 3641 3997 3641 3322 
Q 3641 2881 3436 2590 
Q 3231 2300 2841 2188 
z
M 1259 4147 
L 1259 2491 
L 2053 2491 
Q 2509 2491 2742 2702 
Q 2975 2913 2975 3322 
Q 2975 3731 2742 3939 
Q 2509 4147 2053 4147 
L 1259 4147 
z
" transform="scale(0.015625)"/>
      <path id="DejaVuSans-77" d="M 269 3500 
L 844 3500 
L 1563 769 
L 2278 3500 
L 2956 3500 
L 3675 769 
L 4391 3500 
L 4966 3500 
L 4050 0 
L 3372 0 
L 2619 2869 
L 1863 0 
L 1184 0 
L 269 3500 
z
" transform="scale(0.015625)"/>
      <path id="DejaVuSans-68" d="M 3513 2113 
L 3513 0 
L 2938 0 
L 2938 2094 
Q 2938 2591 2744 2837 
Q 2550 3084 2163 3084 
Q 1697 3084 1428 2787 
Q 1159 2491 1159 1978 
L 1159 0 
L 581 0 
L 581 4863 
L 1159 4863 
L 1159 2956 
Q 1366 3272 1645 3428 
Q 1925 3584 2291 3584 
Q 2894 3584 3203 3211 
Q 3513 2838 3513 2113 
z
" transform="scale(0.015625)"/>
      <path id="DejaVuSans-47" d="M 3809 666 
L 3809 1919 
L 2778 1919 
L 2778 2438 
L 4434 2438 
L 4434 434 
Q 4069 175 3628 42 
Q 3188 -91 2688 -91 
Q 1594 -91 976 548 
Q 359 1188 359 2328 
Q 359 3472 976 4111 
Q 1594 4750 2688 4750 
Q 3144 4750 3555 4637 
Q 3966 4525 4313 4306 
L 4313 3634 
Q 3963 3931 3569 4081 
Q 3175 4231 2741 4231 
Q 1884 4231 1454 3753 
Q 1025 3275 1025 2328 
Q 1025 1384 1454 906 
Q 1884 428 2741 428 
Q 3075 428 3337 486 
Q 3600 544 3809 666 
z
" transform="scale(0.015625)"/>
      <path id="DejaVuSans-4c" d="M 628 4666 
L 1259 4666 
L 1259 531 
L 3531 531 
L 3531 0 
L 628 0 
L 628 4666 
z
" transform="scale(0.015625)"/>
      <path id="DejaVuSans-50" d="M 1259 4147 
L 1259 2394 
L 2053 2394 
Q 2494 2394 2734 2622 
Q 2975 2850 2975 3272 
Q 2975 3691 2734 3919 
Q 2494 4147 2053 4147 
L 1259 4147 
z
M 628 4666 
L 2053 4666 
Q 2838 4666 3239 4311 
Q 3641 3956 3641 3272 
Q 3641 2581 3239 2228 
Q 2838 1875 2053 1875 
L 1259 1875 
L 1259 0 
L 628 0 
L 628 4666 
z
" transform="scale(0.015625)"/>
      <path id="DejaVuSans-38" d="M 2034 2216 
Q 1584 2216 1326 1975 
Q 1069 1734 1069 1313 
Q 1069 891 1326 650 
Q 1584 409 2034 409 
Q 2484 409 2743 651 
Q 3003 894 3003 1313 
Q 3003 1734 2745 1975 
Q 2488 2216 2034 2216 
z
M 1403 2484 
Q 997 2584 770 2862 
Q 544 3141 544 3541 
Q 544 4100 942 4425 
Q 1341 4750 2034 4750 
Q 2731 4750 3128 4425 
Q 3525 4100 3525 3541 
Q 3525 3141 3298 2862 
Q 3072 2584 2669 2484 
Q 3125 2378 3379 2068 
Q 3634 1759 3634 1313 
Q 3634 634 3220 271 
Q 2806 -91 2034 -91 
Q 1263 -91 848 271 
Q 434 634 434 1313 
Q 434 1759 690 2068 
Q 947 2378 1403 2484 
z
M 1172 3481 
Q 1172 3119 1398 2916 
Q 1625 2713 2034 2713 
Q 2441 2713 2670 2916 
Q 2900 3119 2900 3481 
Q 2900 3844 2670 4047 
Q 2441 4250 2034 4250 
Q 1625 4250 1398 4047 
Q 1172 3844 1172 3481 
z
" transform="scale(0.015625)"/>
      <path id="DejaVuSans-37" d="M 525 4666 
L 3525 4666 
L 3525 4397 
L 1831 0 
L 1172 0 
L 2766 4134 
L 525 4134 
L 525 4666 
z
" transform="scale(0.015625)"/>
     </defs>
     <use xlink:href="#DejaVuSans-52"/>
     <use xlink:href="#DejaVuSans-65" transform="translate(64.982422 0)"/>
     <use xlink:href="#DejaVuSans-77" transform="translate(126.505859 0)"/>
     <use xlink:href="#DejaVuSans-65" transform="translate(208.292969 0)"/>
     <use xlink:href="#DejaVuSans-69" transform="translate(269.816406 0)"/>
     <use xlink:href="#DejaVuSans-67" transform="translate(297.599609 0)"/>
     <use xlink:href="#DejaVuSans-68" transform="translate(361.076172 0)"/>
     <use xlink:href="#DejaVuSans-74" transform="translate(424.455078 0)"/>
     <use xlink:href="#DejaVuSans-65" transform="translate(463.664062 0)"/>
     <use xlink:href="#DejaVuSans-64" transform="translate(525.1875 0)"/>
     <use xlink:href="#DejaVuSans-20" transform="translate(588.664062 0)"/>
     <use xlink:href="#DejaVuSans-47" transform="translate(620.451172 0)"/>
     <use xlink:href="#DejaVuSans-4c" transform="translate(697.941406 0)"/>
     <use xlink:href="#DejaVuSans-50" transform="translate(753.654297 0)"/>
     <use xlink:href="#DejaVuSans-47" transform="translate(813.957031 0)"/>
     <use xlink:href="#DejaVuSans-31" transform="translate(891.447266 0)"/>
     <use xlink:href="#DejaVuSans-38" transform="translate(955.070312 0)"/>
     <use xlink:href="#DejaVuSans-33" transform="translate(1018.693359 0)"/>
     <use xlink:href="#DejaVuSans-37" transform="translate(1082.316406 0)"/>
     <use xlink:href="#DejaVuSans-20" transform="translate(1145.939453 0)"/>
     <use xlink:href="#DejaVuSans-61" transform="translate(1177.726562 0)"/>
     <use xlink:href="#DejaVuSans-6d" transform="translate(1239.005859 0)"/>
     <use xlink:href="#DejaVuSans-69" transform="translate(1336.417969 0)"/>
     <use xlink:href="#DejaVuSans-64" transform="translate(1364.201172 0)"/>
     <use xlink:href="#DejaVuSans-65" transform="translate(1427.677734 0)"/>
    </g>
    <!-- derivative dissociation energy: -->
    <g transform="translate(144.193125 22.034625) scale(0.12 -0.12)">
     <defs>
      <path id="DejaVuSans-76" d="M 191 3500 
L 800 3500 
L 1894 563 
L 2988 3500 
L 3597 3500 
L 2284 0 
L 1503 0 
L 191 3500 
z
" transform="scale(0.015625)"/>
      <path id="DejaVuSans-3a" d="M 750 794 
L 1409 794 
L 1409 0 
L 750 0 
L 750 794 
z
M 750 3309 
L 1409 3309 
L 1409 2516 
L 750 2516 
L 750 3309 
z
" transform="scale(0.015625)"/>
     </defs>
     <use xlink:href="#DejaVuSans-64"/>
     <use xlink:href="#DejaVuSans-65" transform="translate(63.476562 0)"/>
     <use xlink:href="#DejaVuSans-72" transform="translate(125 0)"/>
     <use xlink:href="#DejaVuSans-69" transform="translate(166.113281 0)"/>
     <use xlink:href="#DejaVuSans-76" transform="translate(193.896484 0)"/>
     <use xlink:href="#DejaVuSans-61" transform="translate(253.076172 0)"/>
     <use xlink:href="#DejaVuSans-74" transform="translate(314.355469 0)"/>
     <use xlink:href="#DejaVuSans-69" transform="translate(353.564453 0)"/>
     <use xlink:href="#DejaVuSans-76" transform="translate(381.347656 0)"/>
     <use xlink:href="#DejaVuSans-65" transform="translate(440.527344 0)"/>
     <use xlink:href="#DejaVuSans-20" transform="translate(502.050781 0)"/>
     <use xlink:href="#DejaVuSans-64" transform="translate(533.837891 0)"/>
     <use xlink:href="#DejaVuSans-69" transform="translate(597.314453 0)"/>
     <use xlink:href="#DejaVuSans-73" transform="translate(625.097656 0)"/>
     <use xlink:href="#DejaVuSans-73" transform="translate(677.197266 0)"/>
     <use xlink:href="#DejaVuSans-6f" transform="translate(729.296875 0)"/>
     <use xlink:href="#DejaVuSans-63" transform="translate(790.478516 0)"/>
     <use xlink:href="#DejaVuSans-69" transform="translate(845.458984 0)"/>
     <use xlink:href="#DejaVuSans-61" transform="translate(873.242188 0)"/>
     <use xlink:href="#DejaVuSans-74" transform="translate(934.521484 0)"/>
     <use xlink:href="#DejaVuSans-69" transform="translate(973.730469 0)"/>
     <use xlink:href="#DejaVuSans-6f" transform="translate(1001.513672 0)"/>
     <use xlink:href="#DejaVuSans-6e" transform="translate(1062.695312 0)"/>
     <use xlink:href="#DejaVuSans-20" transform="translate(1126.074219 0)"/>
     <use xlink:href="#DejaVuSans-65" transform="translate(1157.861328 0)"/>
     <use xlink:href="#DejaVuSans-6e" transform="translate(1219.384766 0)"/>
     <use xlink:href="#DejaVuSans-65" transform="translate(1282.763672 0)"/>
     <use xlink:href="#DejaVuSans-72" transform="translate(1344.287109 0)"/>
     <use xlink:href="#DejaVuSans-67" transform="translate(1383.650391 0)"/>
     <use xlink:href="#DejaVuSans-79" transform="translate(1447.126953 0)"/>
     <use xlink:href="#DejaVuSans-3a" transform="translate(1499.056641 0)"/>
    </g>
    <!-- WE-weighted transitions -->
    <g transform="translate(162.925313 35.472) scale(0.12 -0.12)">
     <defs>
      <path id="DejaVuSans-57" d="M 213 4666 
L 850 4666 
L 1831 722 
L 2809 4666 
L 3519 4666 
L 4500 722 
L 5478 4666 
L 6119 4666 
L 4947 0 
L 4153 0 
L 3169 4050 
L 2175 0 
L 1381 0 
L 213 4666 
z
" transform="scale(0.015625)"/>
      <path id="DejaVuSans-45" d="M 628 4666 
L 3578 4666 
L 3578 4134 
L 1259 4134 
L 1259 2753 
L 3481 2753 
L 3481 2222 
L 1259 2222 
L 1259 531 
L 3634 531 
L 3634 0 
L 628 0 
L 628 4666 
z
" transform="scale(0.015625)"/>
      <path id="DejaVuSans-2d" d="M 313 2009 
L 1997 2009 
L 1997 1497 
L 313 1497 
L 313 2009 
z
" transform="scale(0.015625)"/>
     </defs>
     <use xlink:href="#DejaVuSans-57"/>
     <use xlink:href="#DejaVuSans-45" transform="translate(98.876953 0)"/>
     <use xlink:href="#DejaVuSans-2d" transform="translate(162.060547 0)"/>
     <use xlink:href="#DejaVuSans-77" transform="translate(198.144531 0)"/>
     <use xlink:href="#DejaVuSans-65" transform="translate(279.931641 0)"/>
     <use xlink:href="#DejaVuSans-69" transform="translate(341.455078 0)"/>
     <use xlink:href="#DejaVuSans-67" transform="translate(369.238281 0)"/>
     <use xlink:href="#DejaVuSans-68" transform="translate(432.714844 0)"/>
     <use xlink:href="#DejaVuSans-74" transform="translate(496.09375 0)"/>
     <use xlink:href="#DejaVuSans-65" transform="translate(535.302734 0)"/>
     <use xlink:href="#DejaVuSans-64" transform="translate(596.826172 0)"/>
     <use xlink:href="#DejaVuSans-20" transform="translate(660.302734 0)"/>
     <use xlink:href="#DejaVuSans-74" transform="translate(692.089844 0)"/>
     <use xlink:href="#DejaVuSans-72" transform="translate(731.298828 0)"/>
     <use xlink:href="#DejaVuSans-61" transform="translate(772.412109 0)"/>
     <use xlink:href="#DejaVuSans-6e" transform="translate(833.691406 0)"/>
     <use xlink:href="#DejaVuSans-73" transform="translate(897.070312 0)"/>
     <use xlink:href="#DejaVuSans-69" transform="translate(949.169922 0)"/>
     <use xlink:href="#DejaVuSans-74" transform="translate(976.953125 0)"/>
     <use xlink:href="#DejaVuSans-69" transform="translate(1016.162109 0)"/>
     <use xlink:href="#DejaVuSans-6f" transform="translate(1043.945312 0)"/>
     <use xlink:href="#DejaVuSans-6e" transform="translate(1105.126953 0)"/>
     <use xlink:href="#DejaVuSans-73" transform="translate(1168.505859 0)"/>
    </g>
   </g>
   <g id="legend_1">
    <g id="patch_7">
     <path d="M 64.6 108.1845 
L 158.607812 108.1845 
Q 160.607812 108.1845 160.607812 106.1845 
L 160.607812 48.472 
Q 160.607812 46.472 158.607812 46.472 
L 64.6 46.472 
Q 62.6 46.472 62.6 48.472 
L 62.6 106.1845 
Q 62.6 108.1845 64.6 108.1845 
z
" style="fill: #ffffff; opacity: 0.8; stroke: #cccccc; stroke-linejoin: miter"/>
    </g>
    <g id="line2d_17">
     <path d="M 66.6 54.570438 
L 76.6 54.570438 
L 86.6 54.570438 
" style="fill: none; stroke: #0000ff; stroke-width: 1.5; stroke-linecap: square"/>
    </g>
    <g id="text_16">
     <!-- pyrazole-1 -->
     <g transform="translate(94.6 58.070438) scale(0.1 -0.1)">
      <defs>
       <path id="DejaVuSans-70" d="M 1159 525 
L 1159 -1331 
L 581 -1331 
L 581 3500 
L 1159 3500 
L 1159 2969 
Q 1341 3281 1617 3432 
Q 1894 3584 2278 3584 
Q 2916 3584 3314 3078 
Q 3713 2572 3713 1747 
Q 3713 922 3314 415 
Q 2916 -91 2278 -91 
Q 1894 -91 1617 61 
Q 1341 213 1159 525 
z
M 3116 1747 
Q 3116 2381 2855 2742 
Q 2594 3103 2138 3103 
Q 1681 3103 1420 2742 
Q 1159 2381 1159 1747 
Q 1159 1113 1420 752 
Q 1681 391 2138 391 
Q 2594 391 2855 752 
Q 3116 1113 3116 1747 
z
" transform="scale(0.015625)"/>
       <path id="DejaVuSans-7a" d="M 353 3500 
L 3084 3500 
L 3084 2975 
L 922 459 
L 3084 459 
L 3084 0 
L 275 0 
L 275 525 
L 2438 3041 
L 353 3041 
L 353 3500 
z
" transform="scale(0.015625)"/>
      </defs>
      <use xlink:href="#DejaVuSans-70"/>
      <use xlink:href="#DejaVuSans-79" transform="translate(63.476562 0)"/>
      <use xlink:href="#DejaVuSans-72" transform="translate(122.65625 0)"/>
      <use xlink:href="#DejaVuSans-61" transform="translate(163.769531 0)"/>
      <use xlink:href="#DejaVuSans-7a" transform="translate(225.048828 0)"/>
      <use xlink:href="#DejaVuSans-6f" transform="translate(277.539062 0)"/>
      <use xlink:href="#DejaVuSans-6c" transform="translate(338.720703 0)"/>
      <use xlink:href="#DejaVuSans-65" transform="translate(366.503906 0)"/>
      <use xlink:href="#DejaVuSans-2d" transform="translate(428.027344 0)"/>
      <use xlink:href="#DejaVuSans-31" transform="translate(464.111328 0)"/>
     </g>
    </g>
    <g id="line2d_18">
     <path d="M 66.6 69.248563 
L 76.6 69.248563 
L 86.6 69.248563 
" style="fill: none; stroke: #00ffff; stroke-width: 1.5; stroke-linecap: square"/>
    </g>
    <g id="text_17">
     <!-- pyrazole-2 -->
     <g transform="translate(94.6 72.748563) scale(0.1 -0.1)">
      <use xlink:href="#DejaVuSans-70"/>
      <use xlink:href="#DejaVuSans-79" transform="translate(63.476562 0)"/>
      <use xlink:href="#DejaVuSans-72" transform="translate(122.65625 0)"/>
      <use xlink:href="#DejaVuSans-61" transform="translate(163.769531 0)"/>
      <use xlink:href="#DejaVuSans-7a" transform="translate(225.048828 0)"/>
      <use xlink:href="#DejaVuSans-6f" transform="translate(277.539062 0)"/>
      <use xlink:href="#DejaVuSans-6c" transform="translate(338.720703 0)"/>
      <use xlink:href="#DejaVuSans-65" transform="translate(366.503906 0)"/>
      <use xlink:href="#DejaVuSans-2d" transform="translate(428.027344 0)"/>
      <use xlink:href="#DejaVuSans-32" transform="translate(464.111328 0)"/>
     </g>
    </g>
    <g id="line2d_19">
     <path d="M 66.6 83.926688 
L 76.6 83.926688 
L 86.6 83.926688 
" style="fill: none; stroke: #ff0000; stroke-width: 1.5; stroke-linecap: square"/>
    </g>
    <g id="text_18">
     <!-- undecanol-1 -->
     <g transform="translate(94.6 87.426688) scale(0.1 -0.1)">
      <use xlink:href="#DejaVuSans-75"/>
      <use xlink:href="#DejaVuSans-6e" transform="translate(63.378906 0)"/>
      <use xlink:href="#DejaVuSans-64" transform="translate(126.757812 0)"/>
      <use xlink:href="#DejaVuSans-65" transform="translate(190.234375 0)"/>
      <use xlink:href="#DejaVuSans-63" transform="translate(251.757812 0)"/>
      <use xlink:href="#DejaVuSans-61" transform="translate(306.738281 0)"/>
      <use xlink:href="#DejaVuSans-6e" transform="translate(368.017578 0)"/>
      <use xlink:href="#DejaVuSans-6f" transform="translate(431.396484 0)"/>
      <use xlink:href="#DejaVuSans-6c" transform="translate(492.578125 0)"/>
      <use xlink:href="#DejaVuSans-2d" transform="translate(520.361328 0)"/>
      <use xlink:href="#DejaVuSans-31" transform="translate(556.445312 0)"/>
     </g>
    </g>
    <g id="line2d_20">
     <path d="M 66.6 98.604813 
L 76.6 98.604813 
L 86.6 98.604813 
" style="fill: none; stroke: #ffa500; stroke-width: 1.5; stroke-linecap: square"/>
    </g>
    <g id="text_19">
     <!-- undecanol-2 -->
     <g transform="translate(94.6 102.104813) scale(0.1 -0.1)">
      <use xlink:href="#DejaVuSans-75"/>
      <use xlink:href="#DejaVuSans-6e" transform="translate(63.378906 0)"/>
      <use xlink:href="#DejaVuSans-64" transform="translate(126.757812 0)"/>
      <use xlink:href="#DejaVuSans-65" transform="translate(190.234375 0)"/>
      <use xlink:href="#DejaVuSans-63" transform="translate(251.757812 0)"/>
      <use xlink:href="#DejaVuSans-61" transform="translate(306.738281 0)"/>
      <use xlink:href="#DejaVuSans-6e" transform="translate(368.017578 0)"/>
      <use xlink:href="#DejaVuSans-6f" transform="translate(431.396484 0)"/>
      <use xlink:href="#DejaVuSans-6c" transform="translate(492.578125 0)"/>
      <use xlink:href="#DejaVuSans-2d" transform="translate(520.361328 0)"/>
      <use xlink:href="#DejaVuSans-32" transform="translate(556.445312 0)"/>
     </g>
    </g>
   </g>
  </g>
 </g>
 <defs>
  <clipPath id="pc4f5f32f05">
   <rect x="57.6" y="41.472" width="357.12" height="266.112"/>
  </clipPath>
 </defs>
</svg>
