<?xml version="1.0" encoding="utf-8" standalone="no"?>
<!DOCTYPE svg PUBLIC "-//W3C//DTD SVG 1.1//EN"
  "http://www.w3.org/Graphics/SVG/1.1/DTD/svg11.dtd">
<svg xmlns:xlink="http://www.w3.org/1999/xlink" width="460.8pt" height="345.6pt" viewBox="0 0 460.8 345.6" xmlns="http://www.w3.org/2000/svg" version="1.1">
 <metadata>
  <rdf:RDF xmlns:dc="http://purl.org/dc/elements/1.1/" xmlns:cc="http://creativecommons.org/ns#" xmlns:rdf="http://www.w3.org/1999/02/22-rdf-syntax-ns#">
   <cc:Work>
    <dc:type rdf:resource="http://purl.org/dc/dcmitype/StillImage"/>
    <dc:date>2025-05-19T17:13:31.195805</dc:date>
    <dc:format>image/svg+xml</dc:format>
    <dc:creator>
     <cc:Agent>
      <dc:title>Matplotlib v3.10.3, https://matplotlib.org/</dc:title>
     </cc:Agent>
    </dc:creator>
   </cc:Work>
  </rdf:RDF>
 </metadata>
 <defs>
  <style type="text/css">*{stroke-linejoin: round; stroke-linecap: butt}</style>
 </defs>
 <g id="figure_1">
  <g id="patch_1">
   <path d="M 0 345.6 
L 460.8 345.6 
L 460.8 0 
L 0 0 
z
" style="fill: #ffffff"/>
  </g>
  <g id="axes_1">
   <g id="patch_2">
    <path d="M 57.6 307.584 
L 414.72 307.584 
L 414.72 41.472 
L 57.6 41.472 
z
" style="fill: #ffffff"/>
   </g>
   <g id="matplotlib.axis_1">
    <g id="xtick_1">
     <g id="line2d_1">
      <defs>
       <path id="m50bd77de94" d="M 0 0 
L 0 3.5 
" style="stroke: #000000; stroke-width: 0.8"/>
      </defs>
      <g>
       <use xlink:href="#m50bd77de94" x="73.832727" y="307.584" style="stroke: #000000; stroke-width: 0.8"/>
      </g>
     </g>
     <g id="text_1">
      <!-- 0 -->
      <g transform="translate(70.651477 322.182437) scale(0.1 -0.1)">
       <defs>
        <path id="DejaVuSans-30" d="M 2034 4250 
Q 1547 4250 1301 3770 
Q 1056 3291 1056 2328 
Q 1056 1369 1301 889 
Q 1547 409 2034 409 
Q 2525 409 2770 889 
Q 3016 1369 3016 2328 
Q 3016 3291 2770 3770 
Q 2525 4250 2034 4250 
z
M 2034 4750 
Q 2819 4750 3233 4129 
Q 3647 3509 3647 2328 
Q 3647 1150 3233 529 
Q 2819 -91 2034 -91 
Q 1250 -91 836 529 
Q 422 1150 422 2328 
Q 422 3509 836 4129 
Q 1250 4750 2034 4750 
z
" transform="scale(0.015625)"/>
       </defs>
       <use xlink:href="#DejaVuSans-30"/>
      </g>
     </g>
    </g>
    <g id="xtick_2">
     <g id="line2d_2">
      <g>
       <use xlink:href="#m50bd77de94" x="140.088757" y="307.584" style="stroke: #000000; stroke-width: 0.8"/>
      </g>
     </g>
     <g id="text_2">
      <!-- 10 -->
      <g transform="translate(133.726257 322.182437) scale(0.1 -0.1)">
       <defs>
        <path id="DejaVuSans-31" d="M 794 531 
L 1825 531 
L 1825 4091 
L 703 3866 
L 703 4441 
L 1819 4666 
L 2450 4666 
L 2450 531 
L 3481 531 
L 3481 0 
L 794 0 
L 794 531 
z
" transform="scale(0.015625)"/>
       </defs>
       <use xlink:href="#DejaVuSans-31"/>
       <use xlink:href="#DejaVuSans-30" transform="translate(63.623047 0)"/>
      </g>
     </g>
    </g>
    <g id="xtick_3">
     <g id="line2d_3">
      <g>
       <use xlink:href="#m50bd77de94" x="206.344787" y="307.584" style="stroke: #000000; stroke-width: 0.8"/>
      </g>
     </g>
     <g id="text_3">
      <!-- 20 -->
      <g transform="translate(199.982287 322.182437) scale(0.1 -0.1)">
       <defs>
        <path id="DejaVuSans-32" d="M 1228 531 
L 3431 531 
L 3431 0 
L 469 0 
L 469 531 
Q 828 903 1448 1529 
Q 2069 2156 2228 2338 
Q 2531 2678 2651 2914 
Q 2772 3150 2772 3378 
Q 2772 3750 2511 3984 
Q 2250 4219 1831 4219 
Q 1534 4219 1204 4116 
Q 875 4013 500 3803 
L 500 4441 
Q 881 4594 1212 4672 
Q 1544 4750 1819 4750 
Q 2544 4750 2975 4387 
Q 3406 4025 3406 3419 
Q 3406 3131 3298 2873 
Q 3191 2616 2906 2266 
Q 2828 2175 2409 1742 
Q 1991 1309 1228 531 
z
" transform="scale(0.015625)"/>
       </defs>
       <use xlink:href="#DejaVuSans-32"/>
       <use xlink:href="#DejaVuSans-30" transform="translate(63.623047 0)"/>
      </g>
     </g>
    </g>
    <g id="xtick_4">
     <g id="line2d_4">
      <g>
       <use xlink:href="#m50bd77de94" x="272.600816" y="307.584" style="stroke: #000000; stroke-width: 0.8"/>
      </g>
     </g>
     <g id="text_4">
      <!-- 30 -->
      <g transform="translate(266.238316 322.182437) scale(0.1 -0.1)">
       <defs>
        <path id="DejaVuSans-33" d="M 2597 2516 
Q 3050 2419 3304 2112 
Q 3559 1806 3559 1356 
Q 3559 666 3084 287 
Q 2609 -91 1734 -91 
Q 1441 -91 1130 -33 
Q 819 25 488 141 
L 488 750 
Q 750 597 1062 519 
Q 1375 441 1716 441 
Q 2309 441 2620 675 
Q 2931 909 2931 1356 
Q 2931 1769 2642 2001 
Q 2353 2234 1838 2234 
L 1294 2234 
L 1294 2753 
L 1863 2753 
Q 2328 2753 2575 2939 
Q 2822 3125 2822 3475 
Q 2822 3834 2567 4026 
Q 2313 4219 1838 4219 
Q 1578 4219 1281 4162 
Q 984 4106 628 3988 
L 628 4550 
Q 988 4650 1302 4700 
Q 1616 4750 1894 4750 
Q 2613 4750 3031 4423 
Q 3450 4097 3450 3541 
Q 3450 3153 3228 2886 
Q 3006 2619 2597 2516 
z
" transform="scale(0.015625)"/>
       </defs>
       <use xlink:href="#DejaVuSans-33"/>
       <use xlink:href="#DejaVuSans-30" transform="translate(63.623047 0)"/>
      </g>
     </g>
    </g>
    <g id="xtick_5">
     <g id="line2d_5">
      <g>
       <use xlink:href="#m50bd77de94" x="338.856846" y="307.584" style="stroke: #000000; stroke-width: 0.8"/>
      </g>
     </g>
     <g id="text_5">
      <!-- 40 -->
      <g transform="translate(332.494346 322.182437) scale(0.1 -0.1)">
       <defs>
        <path id="DejaVuSans-34" d="M 2419 4116 
L 825 1625 
L 2419 1625 
L 2419 4116 
z
M 2253 4666 
L 3047 4666 
L 3047 1625 
L 3713 1625 
L 3713 1100 
L 3047 1100 
L 3047 0 
L 2419 0 
L 2419 1100 
L 313 1100 
L 313 1709 
L 2253 4666 
z
" transform="scale(0.015625)"/>
       </defs>
       <use xlink:href="#DejaVuSans-34"/>
       <use xlink:href="#DejaVuSans-30" transform="translate(63.623047 0)"/>
      </g>
     </g>
    </g>
    <g id="xtick_6">
     <g id="line2d_6">
      <g>
       <use xlink:href="#m50bd77de94" x="405.112876" y="307.584" style="stroke: #000000; stroke-width: 0.8"/>
      </g>
     </g>
     <g id="text_6">
      <!-- 50 -->
      <g transform="translate(398.750376 322.182437) scale(0.1 -0.1)">
       <defs>
        <path id="DejaVuSans-35" d="M 691 4666 
L 3169 4666 
L 3169 4134 
L 1269 4134 
L 1269 2991 
Q 1406 3038 1543 3061 
Q 1681 3084 1819 3084 
Q 2600 3084 3056 2656 
Q 3513 2228 3513 1497 
Q 3513 744 3044 326 
Q 2575 -91 1722 -91 
Q 1428 -91 1123 -41 
Q 819 9 494 109 
L 494 744 
Q 775 591 1075 516 
Q 1375 441 1709 441 
Q 2250 441 2565 725 
Q 2881 1009 2881 1497 
Q 2881 1984 2565 2268 
Q 2250 2553 1709 2553 
Q 1456 2553 1204 2497 
Q 953 2441 691 2322 
L 691 4666 
z
" transform="scale(0.015625)"/>
       </defs>
       <use xlink:href="#DejaVuSans-35"/>
       <use xlink:href="#DejaVuSans-30" transform="translate(63.623047 0)"/>
      </g>
     </g>
    </g>
    <g id="text_7">
     <!-- ligand center of mass distance -->
     <g transform="translate(159.207656 335.860562) scale(0.1 -0.1)">
      <defs>
       <path id="DejaVuSans-6c" d="M 603 4863 
L 1178 4863 
L 1178 0 
L 603 0 
L 603 4863 
z
" transform="scale(0.015625)"/>
       <path id="DejaVuSans-69" d="M 603 3500 
L 1178 3500 
L 1178 0 
L 603 0 
L 603 3500 
z
M 603 4863 
L 1178 4863 
L 1178 4134 
L 603 4134 
L 603 4863 
z
" transform="scale(0.015625)"/>
       <path id="DejaVuSans-67" d="M 2906 1791 
Q 2906 2416 2648 2759 
Q 2391 3103 1925 3103 
Q 1463 3103 1205 2759 
Q 947 2416 947 1791 
Q 947 1169 1205 825 
Q 1463 481 1925 481 
Q 2391 481 2648 825 
Q 2906 1169 2906 1791 
z
M 3481 434 
Q 3481 -459 3084 -895 
Q 2688 -1331 1869 -1331 
Q 1566 -1331 1297 -1286 
Q 1028 -1241 775 -1147 
L 775 -588 
Q 1028 -725 1275 -790 
Q 1522 -856 1778 -856 
Q 2344 -856 2625 -561 
Q 2906 -266 2906 331 
L 2906 616 
Q 2728 306 2450 153 
Q 2172 0 1784 0 
Q 1141 0 747 490 
Q 353 981 353 1791 
Q 353 2603 747 3093 
Q 1141 3584 1784 3584 
Q 2172 3584 2450 3431 
Q 2728 3278 2906 2969 
L 2906 3500 
L 3481 3500 
L 3481 434 
z
" transform="scale(0.015625)"/>
       <path id="DejaVuSans-61" d="M 2194 1759 
Q 1497 1759 1228 1600 
Q 959 1441 959 1056 
Q 959 750 1161 570 
Q 1363 391 1709 391 
Q 2188 391 2477 730 
Q 2766 1069 2766 1631 
L 2766 1759 
L 2194 1759 
z
M 3341 1997 
L 3341 0 
L 2766 0 
L 2766 531 
Q 2569 213 2275 61 
Q 1981 -91 1556 -91 
Q 1019 -91 701 211 
Q 384 513 384 1019 
Q 384 1609 779 1909 
Q 1175 2209 1959 2209 
L 2766 2209 
L 2766 2266 
Q 2766 2663 2505 2880 
Q 2244 3097 1772 3097 
Q 1472 3097 1187 3025 
Q 903 2953 641 2809 
L 641 3341 
Q 956 3463 1253 3523 
Q 1550 3584 1831 3584 
Q 2591 3584 2966 3190 
Q 3341 2797 3341 1997 
z
" transform="scale(0.015625)"/>
       <path id="DejaVuSans-6e" d="M 3513 2113 
L 3513 0 
L 2938 0 
L 2938 2094 
Q 2938 2591 2744 2837 
Q 2550 3084 2163 3084 
Q 1697 3084 1428 2787 
Q 1159 2491 1159 1978 
L 1159 0 
L 581 0 
L 581 3500 
L 1159 3500 
L 1159 2956 
Q 1366 3272 1645 3428 
Q 1925 3584 2291 3584 
Q 2894 3584 3203 3211 
Q 3513 2838 3513 2113 
z
" transform="scale(0.015625)"/>
       <path id="DejaVuSans-64" d="M 2906 2969 
L 2906 4863 
L 3481 4863 
L 3481 0 
L 2906 0 
L 2906 525 
Q 2725 213 2448 61 
Q 2172 -91 1784 -91 
Q 1150 -91 751 415 
Q 353 922 353 1747 
Q 353 2572 751 3078 
Q 1150 3584 1784 3584 
Q 2172 3584 2448 3432 
Q 2725 3281 2906 2969 
z
M 947 1747 
Q 947 1113 1208 752 
Q 1469 391 1925 391 
Q 2381 391 2643 752 
Q 2906 1113 2906 1747 
Q 2906 2381 2643 2742 
Q 2381 3103 1925 3103 
Q 1469 3103 1208 2742 
Q 947 2381 947 1747 
z
" transform="scale(0.015625)"/>
       <path id="DejaVuSans-20" transform="scale(0.015625)"/>
       <path id="DejaVuSans-63" d="M 3122 3366 
L 3122 2828 
Q 2878 2963 2633 3030 
Q 2388 3097 2138 3097 
Q 1578 3097 1268 2742 
Q 959 2388 959 1747 
Q 959 1106 1268 751 
Q 1578 397 2138 397 
Q 2388 397 2633 464 
Q 2878 531 3122 666 
L 3122 134 
Q 2881 22 2623 -34 
Q 2366 -91 2075 -91 
Q 1284 -91 818 406 
Q 353 903 353 1747 
Q 353 2603 823 3093 
Q 1294 3584 2113 3584 
Q 2378 3584 2631 3529 
Q 2884 3475 3122 3366 
z
" transform="scale(0.015625)"/>
       <path id="DejaVuSans-65" d="M 3597 1894 
L 3597 1613 
L 953 1613 
Q 991 1019 1311 708 
Q 1631 397 2203 397 
Q 2534 397 2845 478 
Q 3156 559 3463 722 
L 3463 178 
Q 3153 47 2828 -22 
Q 2503 -91 2169 -91 
Q 1331 -91 842 396 
Q 353 884 353 1716 
Q 353 2575 817 3079 
Q 1281 3584 2069 3584 
Q 2775 3584 3186 3129 
Q 3597 2675 3597 1894 
z
M 3022 2063 
Q 3016 2534 2758 2815 
Q 2500 3097 2075 3097 
Q 1594 3097 1305 2825 
Q 1016 2553 972 2059 
L 3022 2063 
z
" transform="scale(0.015625)"/>
       <path id="DejaVuSans-74" d="M 1172 4494 
L 1172 3500 
L 2356 3500 
L 2356 3053 
L 1172 3053 
L 1172 1153 
Q 1172 725 1289 603 
Q 1406 481 1766 481 
L 2356 481 
L 2356 0 
L 1766 0 
Q 1100 0 847 248 
Q 594 497 594 1153 
L 594 3053 
L 172 3053 
L 172 3500 
L 594 3500 
L 594 4494 
L 1172 4494 
z
" transform="scale(0.015625)"/>
       <path id="DejaVuSans-72" d="M 2631 2963 
Q 2534 3019 2420 3045 
Q 2306 3072 2169 3072 
Q 1681 3072 1420 2755 
Q 1159 2438 1159 1844 
L 1159 0 
L 581 0 
L 581 3500 
L 1159 3500 
L 1159 2956 
Q 1341 3275 1631 3429 
Q 1922 3584 2338 3584 
Q 2397 3584 2469 3576 
Q 2541 3569 2628 3553 
L 2631 2963 
z
" transform="scale(0.015625)"/>
       <path id="DejaVuSans-6f" d="M 1959 3097 
Q 1497 3097 1228 2736 
Q 959 2375 959 1747 
Q 959 1119 1226 758 
Q 1494 397 1959 397 
Q 2419 397 2687 759 
Q 2956 1122 2956 1747 
Q 2956 2369 2687 2733 
Q 2419 3097 1959 3097 
z
M 1959 3584 
Q 2709 3584 3137 3096 
Q 3566 2609 3566 1747 
Q 3566 888 3137 398 
Q 2709 -91 1959 -91 
Q 1206 -91 779 398 
Q 353 888 353 1747 
Q 353 2609 779 3096 
Q 1206 3584 1959 3584 
z
" transform="scale(0.015625)"/>
       <path id="DejaVuSans-66" d="M 2375 4863 
L 2375 4384 
L 1825 4384 
Q 1516 4384 1395 4259 
Q 1275 4134 1275 3809 
L 1275 3500 
L 2222 3500 
L 2222 3053 
L 1275 3053 
L 1275 0 
L 697 0 
L 697 3053 
L 147 3053 
L 147 3500 
L 697 3500 
L 697 3744 
Q 697 4328 969 4595 
Q 1241 4863 1831 4863 
L 2375 4863 
z
" transform="scale(0.015625)"/>
       <path id="DejaVuSans-6d" d="M 3328 2828 
Q 3544 3216 3844 3400 
Q 4144 3584 4550 3584 
Q 5097 3584 5394 3201 
Q 5691 2819 5691 2113 
L 5691 0 
L 5113 0 
L 5113 2094 
Q 5113 2597 4934 2840 
Q 4756 3084 4391 3084 
Q 3944 3084 3684 2787 
Q 3425 2491 3425 1978 
L 3425 0 
L 2847 0 
L 2847 2094 
Q 2847 2600 2669 2842 
Q 2491 3084 2119 3084 
Q 1678 3084 1418 2786 
Q 1159 2488 1159 1978 
L 1159 0 
L 581 0 
L 581 3500 
L 1159 3500 
L 1159 2956 
Q 1356 3278 1631 3431 
Q 1906 3584 2284 3584 
Q 2666 3584 2933 3390 
Q 3200 3197 3328 2828 
z
" transform="scale(0.015625)"/>
       <path id="DejaVuSans-73" d="M 2834 3397 
L 2834 2853 
Q 2591 2978 2328 3040 
Q 2066 3103 1784 3103 
Q 1356 3103 1142 2972 
Q 928 2841 928 2578 
Q 928 2378 1081 2264 
Q 1234 2150 1697 2047 
L 1894 2003 
Q 2506 1872 2764 1633 
Q 3022 1394 3022 966 
Q 3022 478 2636 193 
Q 2250 -91 1575 -91 
Q 1294 -91 989 -36 
Q 684 19 347 128 
L 347 722 
Q 666 556 975 473 
Q 1284 391 1588 391 
Q 1994 391 2212 530 
Q 2431 669 2431 922 
Q 2431 1156 2273 1281 
Q 2116 1406 1581 1522 
L 1381 1569 
Q 847 1681 609 1914 
Q 372 2147 372 2553 
Q 372 3047 722 3315 
Q 1072 3584 1716 3584 
Q 2034 3584 2315 3537 
Q 2597 3491 2834 3397 
z
" transform="scale(0.015625)"/>
      </defs>
      <use xlink:href="#DejaVuSans-6c"/>
      <use xlink:href="#DejaVuSans-69" transform="translate(27.783203 0)"/>
      <use xlink:href="#DejaVuSans-67" transform="translate(55.566406 0)"/>
      <use xlink:href="#DejaVuSans-61" transform="translate(119.042969 0)"/>
      <use xlink:href="#DejaVuSans-6e" transform="translate(180.322266 0)"/>
      <use xlink:href="#DejaVuSans-64" transform="translate(243.701172 0)"/>
      <use xlink:href="#DejaVuSans-20" transform="translate(307.177734 0)"/>
      <use xlink:href="#DejaVuSans-63" transform="translate(338.964844 0)"/>
      <use xlink:href="#DejaVuSans-65" transform="translate(393.945312 0)"/>
      <use xlink:href="#DejaVuSans-6e" transform="translate(455.46875 0)"/>
      <use xlink:href="#DejaVuSans-74" transform="translate(518.847656 0)"/>
      <use xlink:href="#DejaVuSans-65" transform="translate(558.056641 0)"/>
      <use xlink:href="#DejaVuSans-72" transform="translate(619.580078 0)"/>
      <use xlink:href="#DejaVuSans-20" transform="translate(660.693359 0)"/>
      <use xlink:href="#DejaVuSans-6f" transform="translate(692.480469 0)"/>
      <use xlink:href="#DejaVuSans-66" transform="translate(753.662109 0)"/>
      <use xlink:href="#DejaVuSans-20" transform="translate(788.867188 0)"/>
      <use xlink:href="#DejaVuSans-6d" transform="translate(820.654297 0)"/>
      <use xlink:href="#DejaVuSans-61" transform="translate(918.066406 0)"/>
      <use xlink:href="#DejaVuSans-73" transform="translate(979.345703 0)"/>
      <use xlink:href="#DejaVuSans-73" transform="translate(1031.445312 0)"/>
      <use xlink:href="#DejaVuSans-20" transform="translate(1083.544922 0)"/>
      <use xlink:href="#DejaVuSans-64" transform="translate(1115.332031 0)"/>
      <use xlink:href="#DejaVuSans-69" transform="translate(1178.808594 0)"/>
      <use xlink:href="#DejaVuSans-73" transform="translate(1206.591797 0)"/>
      <use xlink:href="#DejaVuSans-74" transform="translate(1258.691406 0)"/>
      <use xlink:href="#DejaVuSans-61" transform="translate(1297.900391 0)"/>
      <use xlink:href="#DejaVuSans-6e" transform="translate(1359.179688 0)"/>
      <use xlink:href="#DejaVuSans-63" transform="translate(1422.558594 0)"/>
      <use xlink:href="#DejaVuSans-65" transform="translate(1477.539062 0)"/>
     </g>
     <!-- from bound state (Angstroms) -->
     <g transform="translate(160.642031 347.058375) scale(0.1 -0.1)">
      <defs>
       <path id="DejaVuSans-62" d="M 3116 1747 
Q 3116 2381 2855 2742 
Q 2594 3103 2138 3103 
Q 1681 3103 1420 2742 
Q 1159 2381 1159 1747 
Q 1159 1113 1420 752 
Q 1681 391 2138 391 
Q 2594 391 2855 752 
Q 3116 1113 3116 1747 
z
M 1159 2969 
Q 1341 3281 1617 3432 
Q 1894 3584 2278 3584 
Q 2916 3584 3314 3078 
Q 3713 2572 3713 1747 
Q 3713 922 3314 415 
Q 2916 -91 2278 -91 
Q 1894 -91 1617 61 
Q 1341 213 1159 525 
L 1159 0 
L 581 0 
L 581 4863 
L 1159 4863 
L 1159 2969 
z
" transform="scale(0.015625)"/>
       <path id="DejaVuSans-75" d="M 544 1381 
L 544 3500 
L 1119 3500 
L 1119 1403 
Q 1119 906 1312 657 
Q 1506 409 1894 409 
Q 2359 409 2629 706 
Q 2900 1003 2900 1516 
L 2900 3500 
L 3475 3500 
L 3475 0 
L 2900 0 
L 2900 538 
Q 2691 219 2414 64 
Q 2138 -91 1772 -91 
Q 1169 -91 856 284 
Q 544 659 544 1381 
z
M 1991 3584 
L 1991 3584 
z
" transform="scale(0.015625)"/>
       <path id="DejaVuSans-28" d="M 1984 4856 
Q 1566 4138 1362 3434 
Q 1159 2731 1159 2009 
Q 1159 1288 1364 580 
Q 1569 -128 1984 -844 
L 1484 -844 
Q 1016 -109 783 600 
Q 550 1309 550 2009 
Q 550 2706 781 3412 
Q 1013 4119 1484 4856 
L 1984 4856 
z
" transform="scale(0.015625)"/>
       <path id="DejaVuSans-41" d="M 2188 4044 
L 1331 1722 
L 3047 1722 
L 2188 4044 
z
M 1831 4666 
L 2547 4666 
L 4325 0 
L 3669 0 
L 3244 1197 
L 1141 1197 
L 716 0 
L 50 0 
L 1831 4666 
z
" transform="scale(0.015625)"/>
       <path id="DejaVuSans-29" d="M 513 4856 
L 1013 4856 
Q 1481 4119 1714 3412 
Q 1947 2706 1947 2009 
Q 1947 1309 1714 600 
Q 1481 -109 1013 -844 
L 513 -844 
Q 928 -128 1133 580 
Q 1338 1288 1338 2009 
Q 1338 2731 1133 3434 
Q 928 4138 513 4856 
z
" transform="scale(0.015625)"/>
      </defs>
      <use xlink:href="#DejaVuSans-66"/>
      <use xlink:href="#DejaVuSans-72" transform="translate(35.205078 0)"/>
      <use xlink:href="#DejaVuSans-6f" transform="translate(74.068359 0)"/>
      <use xlink:href="#DejaVuSans-6d" transform="translate(135.25 0)"/>
      <use xlink:href="#DejaVuSans-20" transform="translate(232.662109 0)"/>
      <use xlink:href="#DejaVuSans-62" transform="translate(264.449219 0)"/>
      <use xlink:href="#DejaVuSans-6f" transform="translate(327.925781 0)"/>
      <use xlink:href="#DejaVuSans-75" transform="translate(389.107422 0)"/>
      <use xlink:href="#DejaVuSans-6e" transform="translate(452.486328 0)"/>
      <use xlink:href="#DejaVuSans-64" transform="translate(515.865234 0)"/>
      <use xlink:href="#DejaVuSans-20" transform="translate(579.341797 0)"/>
      <use xlink:href="#DejaVuSans-73" transform="translate(611.128906 0)"/>
      <use xlink:href="#DejaVuSans-74" transform="translate(663.228516 0)"/>
      <use xlink:href="#DejaVuSans-61" transform="translate(702.4375 0)"/>
      <use xlink:href="#DejaVuSans-74" transform="translate(763.716797 0)"/>
      <use xlink:href="#DejaVuSans-65" transform="translate(802.925781 0)"/>
      <use xlink:href="#DejaVuSans-20" transform="translate(864.449219 0)"/>
      <use xlink:href="#DejaVuSans-28" transform="translate(896.236328 0)"/>
      <use xlink:href="#DejaVuSans-41" transform="translate(935.25 0)"/>
      <use xlink:href="#DejaVuSans-6e" transform="translate(1003.658203 0)"/>
      <use xlink:href="#DejaVuSans-67" transform="translate(1067.037109 0)"/>
      <use xlink:href="#DejaVuSans-73" transform="translate(1130.513672 0)"/>
      <use xlink:href="#DejaVuSans-74" transform="translate(1182.613281 0)"/>
      <use xlink:href="#DejaVuSans-72" transform="translate(1221.822266 0)"/>
      <use xlink:href="#DejaVuSans-6f" transform="translate(1260.685547 0)"/>
      <use xlink:href="#DejaVuSans-6d" transform="translate(1321.867188 0)"/>
      <use xlink:href="#DejaVuSans-73" transform="translate(1419.279297 0)"/>
      <use xlink:href="#DejaVuSans-29" transform="translate(1471.378906 0)"/>
     </g>
    </g>
   </g>
   <g id="matplotlib.axis_2">
    <g id="ytick_1">
     <g id="line2d_7">
      <defs>
       <path id="m36d5d026c5" d="M 0 0 
L -3.5 0 
" style="stroke: #000000; stroke-width: 0.8"/>
      </defs>
      <g>
       <use xlink:href="#m36d5d026c5" x="57.6" y="295.488" style="stroke: #000000; stroke-width: 0.8"/>
      </g>
     </g>
     <g id="text_8">
      <!-- 0 -->
      <g transform="translate(44.2375 299.287219) scale(0.1 -0.1)">
       <use xlink:href="#DejaVuSans-30"/>
      </g>
     </g>
    </g>
    <g id="ytick_2">
     <g id="line2d_8">
      <g>
       <use xlink:href="#m36d5d026c5" x="57.6" y="245.97965" style="stroke: #000000; stroke-width: 0.8"/>
      </g>
     </g>
     <g id="text_9">
      <!-- 5 -->
      <g transform="translate(44.2375 249.778869) scale(0.1 -0.1)">
       <use xlink:href="#DejaVuSans-35"/>
      </g>
     </g>
    </g>
    <g id="ytick_3">
     <g id="line2d_9">
      <g>
       <use xlink:href="#m36d5d026c5" x="57.6" y="196.471301" style="stroke: #000000; stroke-width: 0.8"/>
      </g>
     </g>
     <g id="text_10">
      <!-- 10 -->
      <g transform="translate(37.875 200.270519) scale(0.1 -0.1)">
       <use xlink:href="#DejaVuSans-31"/>
       <use xlink:href="#DejaVuSans-30" transform="translate(63.623047 0)"/>
      </g>
     </g>
    </g>
    <g id="ytick_4">
     <g id="line2d_10">
      <g>
       <use xlink:href="#m36d5d026c5" x="57.6" y="146.962951" style="stroke: #000000; stroke-width: 0.8"/>
      </g>
     </g>
     <g id="text_11">
      <!-- 15 -->
      <g transform="translate(37.875 150.76217) scale(0.1 -0.1)">
       <use xlink:href="#DejaVuSans-31"/>
       <use xlink:href="#DejaVuSans-35" transform="translate(63.623047 0)"/>
      </g>
     </g>
    </g>
    <g id="ytick_5">
     <g id="line2d_11">
      <g>
       <use xlink:href="#m36d5d026c5" x="57.6" y="97.454601" style="stroke: #000000; stroke-width: 0.8"/>
      </g>
     </g>
     <g id="text_12">
      <!-- 20 -->
      <g transform="translate(37.875 101.25382) scale(0.1 -0.1)">
       <use xlink:href="#DejaVuSans-32"/>
       <use xlink:href="#DejaVuSans-30" transform="translate(63.623047 0)"/>
      </g>
     </g>
    </g>
    <g id="ytick_6">
     <g id="line2d_12">
      <g>
       <use xlink:href="#m36d5d026c5" x="57.6" y="47.946252" style="stroke: #000000; stroke-width: 0.8"/>
      </g>
     </g>
     <g id="text_13">
      <!-- 25 -->
      <g transform="translate(37.875 51.74547) scale(0.1 -0.1)">
       <use xlink:href="#DejaVuSans-32"/>
       <use xlink:href="#DejaVuSans-35" transform="translate(63.623047 0)"/>
      </g>
     </g>
    </g>
    <g id="text_14">
     <!-- free energy (kT) -->
     <g transform="translate(31.795312 214.836594) rotate(-90) scale(0.1 -0.1)">
      <defs>
       <path id="DejaVuSans-79" d="M 2059 -325 
Q 1816 -950 1584 -1140 
Q 1353 -1331 966 -1331 
L 506 -1331 
L 506 -850 
L 844 -850 
Q 1081 -850 1212 -737 
Q 1344 -625 1503 -206 
L 1606 56 
L 191 3500 
L 800 3500 
L 1894 763 
L 2988 3500 
L 3597 3500 
L 2059 -325 
z
" transform="scale(0.015625)"/>
       <path id="DejaVuSans-6b" d="M 581 4863 
L 1159 4863 
L 1159 1991 
L 2875 3500 
L 3609 3500 
L 1753 1863 
L 3688 0 
L 2938 0 
L 1159 1709 
L 1159 0 
L 581 0 
L 581 4863 
z
" transform="scale(0.015625)"/>
       <path id="DejaVuSans-54" d="M -19 4666 
L 3928 4666 
L 3928 4134 
L 2272 4134 
L 2272 0 
L 1638 0 
L 1638 4134 
L -19 4134 
L -19 4666 
z
" transform="scale(0.015625)"/>
      </defs>
      <use xlink:href="#DejaVuSans-66"/>
      <use xlink:href="#DejaVuSans-72" transform="translate(35.205078 0)"/>
      <use xlink:href="#DejaVuSans-65" transform="translate(74.068359 0)"/>
      <use xlink:href="#DejaVuSans-65" transform="translate(135.591797 0)"/>
      <use xlink:href="#DejaVuSans-20" transform="translate(197.115234 0)"/>
      <use xlink:href="#DejaVuSans-65" transform="translate(228.902344 0)"/>
      <use xlink:href="#DejaVuSans-6e" transform="translate(290.425781 0)"/>
      <use xlink:href="#DejaVuSans-65" transform="translate(353.804688 0)"/>
      <use xlink:href="#DejaVuSans-72" transform="translate(415.328125 0)"/>
      <use xlink:href="#DejaVuSans-67" transform="translate(454.691406 0)"/>
      <use xlink:href="#DejaVuSans-79" transform="translate(518.167969 0)"/>
      <use xlink:href="#DejaVuSans-20" transform="translate(577.347656 0)"/>
      <use xlink:href="#DejaVuSans-28" transform="translate(609.134766 0)"/>
      <use xlink:href="#DejaVuSans-6b" transform="translate(648.148438 0)"/>
      <use xlink:href="#DejaVuSans-54" transform="translate(706.058594 0)"/>
      <use xlink:href="#DejaVuSans-29" transform="translate(767.142578 0)"/>
     </g>
    </g>
   </g>
   <g id="line2d_13">
    <path d="M 73.832727 267.918104 
L 75.157848 284.758389 
L 76.482968 292.025063 
L 77.808089 295.238209 
L 79.13321 295.488 
L 80.45833 294.522842 
L 81.783451 292.202279 
L 87.083933 280.127174 
L 88.409054 278.59689 
L 91.059295 277.477425 
L 92.384416 276.423518 
L 93.709536 274.256151 
L 95.034657 271.075576 
L 96.359777 268.644255 
L 97.684898 267.020995 
L 99.010019 266.80832 
L 100.335139 267.166997 
L 101.66026 266.825107 
L 102.98538 266.793996 
L 104.310501 265.25108 
L 105.635622 263.43865 
L 108.285863 258.023278 
L 109.610983 254.644598 
L 110.936104 252.50759 
L 112.261224 250.911356 
L 113.586345 250.479226 
L 114.911466 249.885816 
L 116.236586 249.459978 
L 117.561707 249.936688 
L 118.886827 249.658334 
L 120.211948 249.93274 
L 121.537069 249.175788 
L 122.862189 248.556397 
L 124.18731 248.16274 
L 126.837551 246.396387 
L 128.162672 245.796186 
L 129.487792 244.874809 
L 130.812913 244.765062 
L 132.138033 244.241443 
L 133.463154 244.024821 
L 134.788275 242.689707 
L 136.113395 242.420071 
L 137.438516 241.703792 
L 138.763636 241.445203 
L 140.088757 240.763518 
L 141.413878 240.871097 
L 142.738998 240.038304 
L 144.064119 239.879623 
L 145.389239 239.204486 
L 146.71436 238.364 
L 148.039481 238.015035 
L 149.364601 236.840063 
L 150.689722 236.393331 
L 152.014842 235.293997 
L 153.339963 233.835083 
L 155.990204 232.562544 
L 157.315325 230.712708 
L 158.640445 230.358829 
L 159.965566 228.738155 
L 161.290686 225.991623 
L 162.615807 223.660152 
L 163.940928 221.737965 
L 165.266048 221.36916 
L 166.591169 219.525437 
L 167.916289 219.148021 
L 169.24141 217.69365 
L 170.566531 217.470384 
L 171.891651 217.500264 
L 173.216772 216.695108 
L 174.541892 217.418312 
L 175.867013 218.560324 
L 177.192134 218.278137 
L 178.517254 219.073266 
L 179.842375 218.649611 
L 181.167495 217.855855 
L 183.817737 216.823513 
L 186.467978 213.512846 
L 187.793098 211.817439 
L 190.44334 209.795829 
L 191.76846 208.355676 
L 193.093581 207.545897 
L 194.418701 206.188411 
L 195.743822 206.167234 
L 197.068942 204.775103 
L 198.394063 204.374468 
L 199.719184 201.644354 
L 201.044304 201.046959 
L 202.369425 197.907019 
L 203.694545 196.994987 
L 205.019666 194.456468 
L 206.344787 192.257296 
L 207.669907 191.131444 
L 208.995028 188.158753 
L 210.320148 186.210103 
L 211.645269 183.277632 
L 212.97039 182.146314 
L 214.29551 180.384633 
L 215.620631 177.5656 
L 216.945751 176.90526 
L 218.270872 176.739878 
L 219.595993 176.382836 
L 220.921113 175.511583 
L 222.246234 174.816416 
L 223.571354 174.620578 
L 227.546716 176.088257 
L 228.871837 175.786531 
L 230.196957 176.376815 
L 231.522078 176.075275 
L 232.847199 174.585941 
L 234.172319 175.63624 
L 235.49744 175.017178 
L 236.82256 173.67596 
L 238.147681 173.603683 
L 239.472801 173.048685 
L 240.797922 171.161009 
L 242.123043 169.028064 
L 243.448163 167.80362 
L 244.773284 165.720261 
L 246.098404 163.182245 
L 247.423525 162.692572 
L 248.748646 159.904463 
L 250.073766 158.021237 
L 252.724007 153.059182 
L 254.049128 152.110221 
L 255.374249 150.70458 
L 256.699369 148.369345 
L 258.02449 147.564076 
L 259.34961 147.886345 
L 261.999852 146.445539 
L 263.324972 146.470693 
L 264.650093 145.079837 
L 265.975213 144.483413 
L 267.300334 141.86574 
L 268.625455 142.241573 
L 269.950575 139.582308 
L 271.275696 138.033228 
L 272.600816 135.39504 
L 273.925937 133.713504 
L 275.251058 133.8312 
L 276.576178 131.834148 
L 277.901299 131.77359 
L 279.226419 128.494421 
L 280.55154 129.02343 
L 281.87666 129.202151 
L 283.201781 128.944033 
L 284.526902 129.046916 
L 285.852022 126.563927 
L 287.177143 128.625845 
L 288.502263 123.64183 
L 289.827384 125.996588 
L 291.152505 124.650479 
L 292.477625 124.857847 
L 293.802746 124.773248 
L 295.127866 123.64343 
L 296.452987 124.942042 
L 297.778108 124.280039 
L 299.103228 125.316982 
L 300.428349 123.170698 
L 301.753469 127.497537 
L 303.07859 127.518352 
L 304.403711 129.516719 
L 305.728831 127.472527 
L 307.053952 129.54118 
L 309.704193 126.929608 
L 311.029314 128.352198 
L 312.354434 127.75226 
L 313.679555 127.972406 
L 315.004675 126.083532 
L 316.329796 128.632097 
L 317.654917 127.930976 
L 318.980037 129.227943 
L 320.305158 127.390997 
L 321.630278 124.742625 
L 322.955399 124.209885 
L 324.280519 125.224722 
L 325.60564 124.545043 
L 326.930761 124.428744 
L 328.255881 120.361862 
L 329.581002 121.060629 
L 330.906122 118.045472 
L 332.231243 116.849272 
L 333.556364 114.699385 
L 334.881484 115.368698 
L 336.206605 111.353228 
L 337.531725 106.20517 
L 338.856846 106.054714 
L 340.181967 107.83348 
L 341.507087 108.696507 
L 342.832208 106.942533 
L 344.157328 106.443311 
L 345.482449 101.551272 
L 346.80757 106.684233 
L 348.13269 103.649311 
L 349.457811 102.997672 
L 350.782931 100.891064 
L 352.108052 95.15118 
L 353.433173 101.505475 
L 354.758293 100.057269 
L 356.083414 96.337615 
L 357.408534 90.405048 
L 358.733655 77.219666 
L 360.058776 81.390335 
L 361.383896 81.836368 
L 364.034137 68.379103 
L 366.684378 68.379103 
L 366.684378 68.379103 
" clip-path="url(#p385a096f99)" style="fill: none; stroke: #0000ff; stroke-width: 1.5; stroke-linecap: square"/>
   </g>
   <g id="line2d_14">
    <path d="M 73.832727 262.677725 
L 75.157848 281.807149 
L 76.482968 290.585294 
L 77.808089 294.502855 
L 79.13321 295.488 
L 80.45833 293.478677 
L 81.783451 289.469727 
L 84.433692 278.801621 
L 85.758813 275.249017 
L 87.083933 273.582275 
L 88.409054 273.997189 
L 89.734174 275.375192 
L 91.059295 275.364764 
L 92.384416 275.019466 
L 95.034657 272.276139 
L 96.359777 271.07608 
L 97.684898 270.516165 
L 99.010019 271.20558 
L 100.335139 271.629535 
L 101.66026 271.677407 
L 102.98538 271.938515 
L 104.310501 271.357756 
L 105.635622 269.780222 
L 106.960742 267.85306 
L 108.285863 265.344198 
L 110.936104 259.927926 
L 112.261224 256.07333 
L 114.911466 251.942868 
L 116.236586 252.632812 
L 117.561707 252.275222 
L 118.886827 252.464118 
L 120.211948 253.2611 
L 121.537069 254.210556 
L 122.862189 254.676599 
L 125.51243 255.950259 
L 126.837551 256.136717 
L 128.162672 255.639988 
L 129.487792 255.011706 
L 130.812913 254.758798 
L 132.138033 254.056169 
L 133.463154 253.722599 
L 134.788275 254.236818 
L 136.113395 253.125818 
L 137.438516 253.573714 
L 138.763636 254.312113 
L 140.088757 254.433764 
L 141.413878 253.993564 
L 142.738998 255.607757 
L 145.389239 256.088099 
L 146.71436 255.127287 
L 148.039481 254.759016 
L 149.364601 253.546525 
L 150.689722 254.063227 
L 152.014842 253.054717 
L 153.339963 252.294704 
L 154.665083 252.812456 
L 155.990204 252.758735 
L 157.315325 253.166333 
L 159.965566 251.445396 
L 162.615807 249.294942 
L 163.940928 246.813091 
L 165.266048 244.622262 
L 166.591169 242.746532 
L 167.916289 238.300514 
L 169.24141 234.900159 
L 170.566531 228.246565 
L 171.891651 228.179426 
L 173.216772 226.255692 
L 174.541892 228.554661 
L 175.867013 228.227538 
L 177.192134 228.274546 
L 178.517254 229.111623 
L 179.842375 229.201915 
L 181.167495 228.251162 
L 182.492616 231.070552 
L 183.817737 231.416548 
L 185.142857 232.208961 
L 187.793098 233.342489 
L 189.118219 233.179221 
L 190.44334 233.307178 
L 191.76846 233.23413 
L 193.093581 232.486622 
L 194.418701 231.312993 
L 195.743822 229.612285 
L 197.068942 228.990106 
L 198.394063 228.14419 
L 199.719184 226.085098 
L 201.044304 223.649176 
L 202.369425 222.446565 
L 203.694545 219.850121 
L 205.019666 217.512304 
L 206.344787 216.128488 
L 207.669907 214.129968 
L 208.995028 212.714905 
L 210.320148 209.751098 
L 211.645269 208.568094 
L 212.97039 207.693031 
L 214.29551 204.806233 
L 215.620631 204.568809 
L 216.945751 204.877113 
L 218.270872 203.113072 
L 219.595993 202.483655 
L 220.921113 199.755293 
L 222.246234 199.571881 
L 223.571354 198.085727 
L 224.896475 197.945052 
L 226.221596 195.98748 
L 227.546716 196.446183 
L 228.871837 195.834879 
L 230.196957 194.41925 
L 231.522078 193.248973 
L 232.847199 193.203822 
L 234.172319 192.250791 
L 235.49744 191.742192 
L 236.82256 193.082047 
L 238.147681 193.655031 
L 239.472801 193.304201 
L 240.797922 193.439694 
L 242.123043 192.466576 
L 243.448163 192.962698 
L 244.773284 191.154214 
L 246.098404 191.143696 
L 247.423525 189.309336 
L 248.748646 188.180791 
L 250.073766 187.769567 
L 251.398887 186.384344 
L 252.724007 185.440404 
L 254.049128 183.471337 
L 255.374249 184.111454 
L 256.699369 181.336256 
L 258.02449 181.06617 
L 259.34961 181.935346 
L 260.674731 180.721583 
L 261.999852 179.859316 
L 263.324972 181.027507 
L 264.650093 181.121368 
L 265.975213 180.627083 
L 267.300334 180.84083 
L 268.625455 180.726251 
L 269.950575 179.024472 
L 271.275696 177.086065 
L 272.600816 176.850751 
L 273.925937 174.63213 
L 275.251058 174.936195 
L 276.576178 171.94664 
L 277.901299 171.370828 
L 279.226419 170.606251 
L 280.55154 168.722158 
L 281.87666 169.607173 
L 283.201781 169.023108 
L 284.526902 166.950666 
L 285.852022 170.718319 
L 287.177143 167.900633 
L 288.502263 169.396418 
L 289.827384 170.190799 
L 291.152505 169.224106 
L 292.477625 168.688215 
L 293.802746 168.870609 
L 295.127866 168.237881 
L 296.452987 166.918904 
L 297.778108 168.162631 
L 299.103228 164.828751 
L 300.428349 166.255453 
L 301.753469 165.80773 
L 303.07859 164.632493 
L 304.403711 163.999466 
L 305.728831 164.551323 
L 307.053952 163.504257 
L 308.379072 161.822068 
L 309.704193 161.676584 
L 311.029314 162.058856 
L 312.354434 160.41999 
L 313.679555 162.072731 
L 315.004675 162.273668 
L 316.329796 160.771605 
L 317.654917 160.014634 
L 318.980037 160.422769 
L 320.305158 160.040023 
L 321.630278 157.945207 
L 322.955399 160.605782 
L 324.280519 159.914957 
L 325.60564 159.777231 
L 326.930761 158.882959 
L 328.255881 158.831941 
L 329.581002 156.451059 
L 330.906122 157.026055 
L 332.231243 156.748657 
L 333.556364 155.172721 
L 334.881484 155.455741 
L 336.206605 154.158944 
L 337.531725 153.830629 
L 338.856846 152.799231 
L 340.181967 152.071093 
L 341.507087 149.85827 
L 342.832208 151.159526 
L 344.157328 150.213101 
L 345.482449 148.743268 
L 346.80757 151.480179 
L 348.13269 145.069776 
L 349.457811 142.087868 
L 350.782931 140.331419 
L 352.108052 138.05932 
L 353.433173 133.743452 
L 354.758293 132.469432 
L 356.083414 128.645136 
L 357.408534 126.389063 
L 358.733655 115.119389 
L 360.058776 115.866129 
L 361.383896 101.392759 
L 364.034137 104.63287 
L 365.359258 109.002815 
L 365.359258 109.002815 
" clip-path="url(#p385a096f99)" style="fill: none; stroke: #00ffff; stroke-width: 1.5; stroke-linecap: square"/>
   </g>
   <g id="line2d_15">
    <path d="M 73.832727 264.216943 
L 75.157848 282.966724 
L 76.482968 291.180693 
L 77.808089 294.529181 
L 79.13321 295.488 
L 80.45833 294.165236 
L 81.783451 291.938342 
L 83.108571 288.578783 
L 84.433692 284.425464 
L 87.083933 275.000002 
L 91.059295 262.98182 
L 93.709536 253.146668 
L 95.034657 248.842029 
L 96.359777 246.733883 
L 97.684898 245.406078 
L 99.010019 244.90029 
L 100.335139 244.982787 
L 101.66026 246.304256 
L 102.98538 245.569999 
L 104.310501 246.199395 
L 105.635622 245.103089 
L 106.960742 245.460742 
L 108.285863 243.504815 
L 109.610983 243.719941 
L 110.936104 244.099668 
L 112.261224 245.158776 
L 113.586345 245.630706 
L 117.561707 247.878556 
L 118.886827 247.396422 
L 120.211948 246.499352 
L 122.862189 244.457118 
L 124.18731 244.07289 
L 125.51243 242.865708 
L 126.837551 242.18306 
L 128.162672 240.970654 
L 129.487792 242.393248 
L 130.812913 241.28987 
L 132.138033 240.85816 
L 133.463154 242.361196 
L 134.788275 241.294552 
L 138.763636 243.452411 
L 140.088757 242.769255 
L 141.413878 242.812883 
L 144.064119 241.376095 
L 145.389239 241.373168 
L 146.71436 240.679849 
L 148.039481 241.132762 
L 149.364601 242.099198 
L 150.689722 241.948704 
L 152.014842 241.324174 
L 153.339963 240.941362 
L 154.665083 240.679349 
L 155.990204 239.875059 
L 157.315325 239.797124 
L 159.965566 237.036983 
L 161.290686 235.206722 
L 162.615807 238.068766 
L 163.940928 234.820493 
L 165.266048 236.641622 
L 166.591169 236.363919 
L 167.916289 237.536766 
L 169.24141 239.790531 
L 171.891651 242.664728 
L 174.541892 247.912735 
L 175.867013 248.2081 
L 178.517254 247.448172 
L 179.842375 245.314162 
L 181.167495 244.694088 
L 182.492616 241.508437 
L 183.817737 237.048591 
L 186.467978 230.341545 
L 187.793098 229.734651 
L 189.118219 227.802336 
L 190.44334 225.135234 
L 191.76846 224.812485 
L 193.093581 223.404193 
L 195.743822 222.489978 
L 197.068942 219.314447 
L 198.394063 218.651082 
L 199.719184 214.855537 
L 201.044304 213.056913 
L 202.369425 211.675014 
L 203.694545 210.624248 
L 205.019666 208.515071 
L 206.344787 207.12557 
L 207.669907 207.137053 
L 208.995028 205.451358 
L 210.320148 205.431969 
L 211.645269 204.760796 
L 212.97039 203.012133 
L 214.29551 201.774428 
L 215.620631 201.276181 
L 216.945751 198.753082 
L 218.270872 196.833771 
L 219.595993 194.175646 
L 220.921113 191.105869 
L 223.571354 185.595436 
L 224.896475 180.925 
L 226.221596 176.936304 
L 227.546716 173.922021 
L 228.871837 171.325764 
L 230.196957 164.363476 
L 231.522078 162.060631 
L 232.847199 162.826148 
L 234.172319 157.625377 
L 235.49744 157.857986 
L 236.82256 158.945888 
L 238.147681 153.906227 
L 239.472801 152.406803 
L 240.797922 151.690992 
L 242.123043 149.404389 
L 243.448163 148.181321 
L 244.773284 146.696958 
L 246.098404 145.033804 
L 247.423525 144.434355 
L 248.748646 141.564314 
L 250.073766 138.17956 
L 251.398887 135.745273 
L 252.724007 132.444345 
L 254.049128 133.285957 
L 255.374249 129.047523 
L 256.699369 125.477608 
L 258.02449 126.664151 
L 259.34961 125.869027 
L 260.674731 122.149111 
L 261.999852 122.778602 
L 263.324972 121.045922 
L 264.650093 121.383655 
L 265.975213 118.485904 
L 267.300334 120.531617 
L 268.625455 119.599063 
L 269.950575 115.775042 
L 271.275696 117.944734 
L 272.600816 117.368951 
L 273.925937 115.973552 
L 275.251058 113.146375 
L 276.576178 115.702258 
L 277.901299 112.254764 
L 279.226419 114.562802 
L 280.55154 111.526242 
L 281.87666 114.08021 
L 283.201781 108.881813 
L 284.526902 107.60463 
L 285.852022 106.84504 
L 287.177143 104.060635 
L 288.502263 110.131837 
L 289.827384 104.595386 
L 292.477625 109.298536 
L 293.802746 103.568574 
L 296.452987 106.900022 
L 297.778108 108.735786 
L 299.103228 110.182488 
L 300.428349 105.11611 
L 301.753469 105.544888 
L 303.07859 100.944448 
L 304.403711 103.168104 
L 307.053952 102.089658 
L 308.379072 102.726861 
L 309.704193 93.770511 
L 311.029314 101.736808 
L 312.354434 98.356533 
L 315.004675 97.616677 
L 316.329796 97.557694 
L 317.654917 95.473329 
L 318.980037 95.415368 
L 320.305158 92.513395 
L 321.630278 97.498146 
L 322.955399 95.795442 
L 325.60564 94.513394 
L 326.930761 91.6594 
L 328.255881 90.172869 
L 329.581002 93.114263 
L 330.906122 85.247177 
L 332.231243 90.002911 
L 333.556364 86.595628 
L 334.881484 89.36047 
L 336.206605 88.819918 
L 337.531725 84.951564 
L 338.856846 85.347214 
L 340.181967 83.647763 
L 341.507087 84.136466 
L 342.832208 83.638257 
L 344.157328 82.433258 
L 345.482449 69.567576 
L 346.80757 83.464453 
L 348.13269 72.577039 
L 349.457811 75.941587 
L 350.782931 78.083873 
L 352.108052 71.690774 
L 353.433173 66.975764 
L 354.758293 62.996097 
L 356.083414 74.157944 
L 357.408534 73.909182 
L 358.733655 54.340706 
L 360.058776 53.568 
L 361.383896 70.497474 
L 362.709017 60.665015 
L 364.034137 63.08116 
L 365.359258 72.47027 
L 366.684378 56.132782 
L 368.009499 70.679038 
L 369.33462 54.728859 
L 370.65974 63.815723 
L 370.65974 63.815723 
" clip-path="url(#p385a096f99)" style="fill: none; stroke: #ff0000; stroke-width: 1.5; stroke-linecap: square"/>
   </g>
   <g id="line2d_16">
    <path d="M 73.832727 249.273194 
L 75.157848 270.271697 
L 76.482968 278.948668 
L 77.808089 283.508524 
L 79.13321 286.812752 
L 80.45833 289.629804 
L 81.783451 291.802778 
L 83.108571 293.750948 
L 84.433692 295.048293 
L 85.758813 295.488 
L 87.083933 295.158622 
L 88.409054 293.515468 
L 89.734174 290.783804 
L 91.059295 287.029747 
L 95.034657 272.868848 
L 96.359777 270.177709 
L 97.684898 269.452254 
L 99.010019 269.073074 
L 100.335139 269.123164 
L 101.66026 268.580183 
L 102.98538 267.159063 
L 104.310501 265.488382 
L 106.960742 261.599054 
L 108.285863 260.06527 
L 109.610983 258.316102 
L 110.936104 257.389298 
L 112.261224 256.856318 
L 113.586345 255.773947 
L 116.236586 254.808365 
L 117.561707 254.557424 
L 118.886827 253.335555 
L 120.211948 253.295913 
L 121.537069 254.054484 
L 122.862189 254.339706 
L 124.18731 254.311561 
L 125.51243 255.348985 
L 126.837551 254.55873 
L 128.162672 254.714882 
L 129.487792 255.741788 
L 130.812913 256.14977 
L 132.138033 255.114316 
L 133.463154 255.628583 
L 134.788275 255.061767 
L 136.113395 255.332455 
L 137.438516 254.879017 
L 138.763636 254.625889 
L 140.088757 254.599475 
L 141.413878 254.020727 
L 142.738998 252.864866 
L 144.064119 252.12249 
L 145.389239 250.457589 
L 146.71436 249.144548 
L 148.039481 248.423958 
L 150.689722 244.914114 
L 152.014842 242.578966 
L 153.339963 240.542519 
L 154.665083 239.066613 
L 157.315325 234.482577 
L 158.640445 232.554029 
L 159.965566 231.474928 
L 161.290686 228.191262 
L 162.615807 227.774895 
L 163.940928 225.163283 
L 165.266048 223.248163 
L 166.591169 221.570837 
L 167.916289 219.279444 
L 169.24141 218.014129 
L 170.566531 217.442334 
L 171.891651 215.832603 
L 173.216772 216.106748 
L 174.541892 213.979034 
L 175.867013 213.333972 
L 178.517254 210.698029 
L 179.842375 210.623361 
L 181.167495 209.989256 
L 182.492616 209.080795 
L 183.817737 207.947774 
L 185.142857 209.01949 
L 186.467978 209.435998 
L 187.793098 208.166275 
L 189.118219 208.542809 
L 190.44334 208.271931 
L 191.76846 207.712529 
L 193.093581 206.509705 
L 194.418701 207.177632 
L 195.743822 204.989484 
L 197.068942 203.075598 
L 198.394063 201.38423 
L 199.719184 198.291527 
L 201.044304 197.260008 
L 202.369425 195.897049 
L 203.694545 194.05411 
L 205.019666 192.5336 
L 206.344787 193.888422 
L 207.669907 191.816798 
L 208.995028 192.216631 
L 210.320148 191.725491 
L 211.645269 190.753517 
L 212.97039 190.530869 
L 214.29551 189.134629 
L 215.620631 188.421807 
L 216.945751 186.716502 
L 218.270872 187.019533 
L 219.595993 186.132267 
L 220.921113 184.822349 
L 222.246234 186.101528 
L 223.571354 184.81977 
L 226.221596 185.032232 
L 227.546716 184.599704 
L 228.871837 186.831574 
L 230.196957 186.138043 
L 231.522078 185.260159 
L 232.847199 186.046222 
L 234.172319 186.041835 
L 235.49744 184.952981 
L 236.82256 184.189789 
L 238.147681 184.290922 
L 239.472801 183.027068 
L 240.797922 183.022811 
L 242.123043 181.318654 
L 243.448163 180.321059 
L 244.773284 181.012923 
L 247.423525 179.504755 
L 248.748646 178.97499 
L 250.073766 179.06882 
L 252.724007 176.605793 
L 254.049128 177.220676 
L 255.374249 174.147347 
L 256.699369 174.497328 
L 258.02449 172.955235 
L 259.34961 172.862553 
L 260.674731 171.058184 
L 261.999852 171.145691 
L 263.324972 170.556511 
L 264.650093 170.125884 
L 265.975213 168.482754 
L 267.300334 168.05317 
L 268.625455 166.119001 
L 269.950575 165.926674 
L 271.275696 166.935601 
L 272.600816 165.209552 
L 273.925937 164.413682 
L 275.251058 163.119653 
L 276.576178 161.283121 
L 277.901299 161.154856 
L 279.226419 159.846259 
L 280.55154 160.92995 
L 281.87666 158.527325 
L 283.201781 159.200656 
L 284.526902 157.91996 
L 285.852022 157.470381 
L 287.177143 157.75664 
L 288.502263 156.265795 
L 289.827384 154.41588 
L 291.152505 153.764957 
L 292.477625 152.180811 
L 293.802746 153.804382 
L 295.127866 150.251468 
L 296.452987 151.440866 
L 297.778108 150.972517 
L 299.103228 153.637292 
L 300.428349 153.249014 
L 301.753469 151.75208 
L 303.07859 149.785603 
L 304.403711 150.421176 
L 305.728831 150.66391 
L 307.053952 149.27484 
L 308.379072 149.752195 
L 309.704193 148.372171 
L 311.029314 148.637381 
L 312.354434 146.340685 
L 313.679555 146.494444 
L 315.004675 145.872762 
L 316.329796 144.448113 
L 317.654917 144.705993 
L 318.980037 145.728475 
L 320.305158 144.549122 
L 321.630278 144.478516 
L 322.955399 141.8127 
L 324.280519 142.349382 
L 325.60564 139.496067 
L 326.930761 138.561649 
L 328.255881 138.353313 
L 329.581002 136.317033 
L 330.906122 138.774456 
L 332.231243 137.376742 
L 333.556364 136.733409 
L 334.881484 137.657828 
L 336.206605 136.549211 
L 337.531725 134.619902 
L 338.856846 135.484097 
L 340.181967 134.289301 
L 341.507087 135.077734 
L 342.832208 131.788658 
L 344.157328 131.694066 
L 345.482449 132.4438 
L 346.80757 131.742951 
L 348.13269 129.155508 
L 349.457811 129.104135 
L 350.782931 127.378037 
L 352.108052 127.086324 
L 354.758293 125.668117 
L 356.083414 124.116825 
L 357.408534 126.900178 
L 358.733655 122.402805 
L 360.058776 121.833895 
L 361.383896 123.609483 
L 362.709017 122.443574 
L 364.034137 118.774486 
L 365.359258 119.061285 
L 366.684378 119.987085 
L 368.009499 117.783104 
L 369.33462 122.331013 
L 370.65974 116.33523 
L 371.984861 115.767077 
L 373.309981 122.706277 
L 374.635102 120.54586 
L 375.960223 120.164078 
L 377.285343 121.195101 
L 378.610464 119.442255 
L 379.935584 119.829519 
L 381.260705 115.207095 
L 382.585826 111.916372 
L 383.910946 96.157926 
L 385.236067 109.248189 
L 386.561187 106.512188 
L 387.886308 107.994908 
L 389.211429 94.174961 
L 390.536549 102.683678 
L 391.86167 98.953818 
L 393.18679 98.07321 
L 395.837032 94.268279 
L 398.487273 99.924289 
L 398.487273 99.924289 
" clip-path="url(#p385a096f99)" style="fill: none; stroke: #ffa500; stroke-width: 1.5; stroke-linecap: square"/>
   </g>
   <g id="patch_3">
    <path d="M 57.6 307.584 
L 57.6 41.472 
" style="fill: none; stroke: #000000; stroke-width: 0.8; stroke-linejoin: miter; stroke-linecap: square"/>
   </g>
   <g id="patch_4">
    <path d="M 414.72 307.584 
L 414.72 41.472 
" style="fill: none; stroke: #000000; stroke-width: 0.8; stroke-linejoin: miter; stroke-linecap: square"/>
   </g>
   <g id="patch_5">
    <path d="M 57.6 307.584 
L 414.72 307.584 
" style="fill: none; stroke: #000000; stroke-width: 0.8; stroke-linejoin: miter; stroke-linecap: square"/>
   </g>
   <g id="patch_6">
    <path d="M 57.6 41.472 
L 414.72 41.472 
" style="fill: none; stroke: #000000; stroke-width: 0.8; stroke-linejoin: miter; stroke-linecap: square"/>
   </g>
   <g id="text_15">
    <!-- Reweighted GLPG1837 amide -->
    <g transform="translate(146.806875 8.59725) scale(0.12 -0.12)">
     <defs>
      <path id="DejaVuSans-52" d="M 2841 2188 
Q 3044 2119 3236 1894 
Q 3428 1669 3622 1275 
L 4263 0 
L 3584 0 
L 2988 1197 
Q 2756 1666 2539 1819 
Q 2322 1972 1947 1972 
L 1259 1972 
L 1259 0 
L 628 0 
L 628 4666 
L 2053 4666 
Q 2853 4666 3247 4331 
Q 3641 3997 3641 3322 
Q 3641 2881 3436 2590 
Q 3231 2300 2841 2188 
z
M 1259 4147 
L 1259 2491 
L 2053 2491 
Q 2509 2491 2742 2702 
Q 2975 2913 2975 3322 
Q 2975 3731 2742 3939 
Q 2509 4147 2053 4147 
L 1259 4147 
z
" transform="scale(0.015625)"/>
      <path id="DejaVuSans-77" d="M 269 3500 
L 844 3500 
L 1563 769 
L 2278 3500 
L 2956 3500 
L 3675 769 
L 4391 3500 
L 4966 3500 
L 4050 0 
L 3372 0 
L 2619 2869 
L 1863 0 
L 1184 0 
L 269 3500 
z
" transform="scale(0.015625)"/>
      <path id="DejaVuSans-68" d="M 3513 2113 
L 3513 0 
L 2938 0 
L 2938 2094 
Q 2938 2591 2744 2837 
Q 2550 3084 2163 3084 
Q 1697 3084 1428 2787 
Q 1159 2491 1159 1978 
L 1159 0 
L 581 0 
L 581 4863 
L 1159 4863 
L 1159 2956 
Q 1366 3272 1645 3428 
Q 1925 3584 2291 3584 
Q 2894 3584 3203 3211 
Q 3513 2838 3513 2113 
z
" transform="scale(0.015625)"/>
      <path id="DejaVuSans-47" d="M 3809 666 
L 3809 1919 
L 2778 1919 
L 2778 2438 
L 4434 2438 
L 4434 434 
Q 4069 175 3628 42 
Q 3188 -91 2688 -91 
Q 1594 -91 976 548 
Q 359 1188 359 2328 
Q 359 3472 976 4111 
Q 1594 4750 2688 4750 
Q 3144 4750 3555 4637 
Q 3966 4525 4313 4306 
L 4313 3634 
Q 3963 3931 3569 4081 
Q 3175 4231 2741 4231 
Q 1884 4231 1454 3753 
Q 1025 3275 1025 2328 
Q 1025 1384 1454 906 
Q 1884 428 2741 428 
Q 3075 428 3337 486 
Q 3600 544 3809 666 
z
" transform="scale(0.015625)"/>
      <path id="DejaVuSans-4c" d="M 628 4666 
L 1259 4666 
L 1259 531 
L 3531 531 
L 3531 0 
L 628 0 
L 628 4666 
z
" transform="scale(0.015625)"/>
      <path id="DejaVuSans-50" d="M 1259 4147 
L 1259 2394 
L 2053 2394 
Q 2494 2394 2734 2622 
Q 2975 2850 2975 3272 
Q 2975 3691 2734 3919 
Q 2494 4147 2053 4147 
L 1259 4147 
z
M 628 4666 
L 2053 4666 
Q 2838 4666 3239 4311 
Q 3641 3956 3641 3272 
Q 3641 2581 3239 2228 
Q 2838 1875 2053 1875 
L 1259 1875 
L 1259 0 
L 628 0 
L 628 4666 
z
" transform="scale(0.015625)"/>
      <path id="DejaVuSans-38" d="M 2034 2216 
Q 1584 2216 1326 1975 
Q 1069 1734 1069 1313 
Q 1069 891 1326 650 
Q 1584 409 2034 409 
Q 2484 409 2743 651 
Q 3003 894 3003 1313 
Q 3003 1734 2745 1975 
Q 2488 2216 2034 2216 
z
M 1403 2484 
Q 997 2584 770 2862 
Q 544 3141 544 3541 
Q 544 4100 942 4425 
Q 1341 4750 2034 4750 
Q 2731 4750 3128 4425 
Q 3525 4100 3525 3541 
Q 3525 3141 3298 2862 
Q 3072 2584 2669 2484 
Q 3125 2378 3379 2068 
Q 3634 1759 3634 1313 
Q 3634 634 3220 271 
Q 2806 -91 2034 -91 
Q 1263 -91 848 271 
Q 434 634 434 1313 
Q 434 1759 690 2068 
Q 947 2378 1403 2484 
z
M 1172 3481 
Q 1172 3119 1398 2916 
Q 1625 2713 2034 2713 
Q 2441 2713 2670 2916 
Q 2900 3119 2900 3481 
Q 2900 3844 2670 4047 
Q 2441 4250 2034 4250 
Q 1625 4250 1398 4047 
Q 1172 3844 1172 3481 
z
" transform="scale(0.015625)"/>
      <path id="DejaVuSans-37" d="M 525 4666 
L 3525 4666 
L 3525 4397 
L 1831 0 
L 1172 0 
L 2766 4134 
L 525 4134 
L 525 4666 
z
" transform="scale(0.015625)"/>
     </defs>
     <use xlink:href="#DejaVuSans-52"/>
     <use xlink:href="#DejaVuSans-65" transform="translate(64.982422 0)"/>
     <use xlink:href="#DejaVuSans-77" transform="translate(126.505859 0)"/>
     <use xlink:href="#DejaVuSans-65" transform="translate(208.292969 0)"/>
     <use xlink:href="#DejaVuSans-69" transform="translate(269.816406 0)"/>
     <use xlink:href="#DejaVuSans-67" transform="translate(297.599609 0)"/>
     <use xlink:href="#DejaVuSans-68" transform="translate(361.076172 0)"/>
     <use xlink:href="#DejaVuSans-74" transform="translate(424.455078 0)"/>
     <use xlink:href="#DejaVuSans-65" transform="translate(463.664062 0)"/>
     <use xlink:href="#DejaVuSans-64" transform="translate(525.1875 0)"/>
     <use xlink:href="#DejaVuSans-20" transform="translate(588.664062 0)"/>
     <use xlink:href="#DejaVuSans-47" transform="translate(620.451172 0)"/>
     <use xlink:href="#DejaVuSans-4c" transform="translate(697.941406 0)"/>
     <use xlink:href="#DejaVuSans-50" transform="translate(753.654297 0)"/>
     <use xlink:href="#DejaVuSans-47" transform="translate(813.957031 0)"/>
     <use xlink:href="#DejaVuSans-31" transform="translate(891.447266 0)"/>
     <use xlink:href="#DejaVuSans-38" transform="translate(955.070312 0)"/>
     <use xlink:href="#DejaVuSans-33" transform="translate(1018.693359 0)"/>
     <use xlink:href="#DejaVuSans-37" transform="translate(1082.316406 0)"/>
     <use xlink:href="#DejaVuSans-20" transform="translate(1145.939453 0)"/>
     <use xlink:href="#DejaVuSans-61" transform="translate(1177.726562 0)"/>
     <use xlink:href="#DejaVuSans-6d" transform="translate(1239.005859 0)"/>
     <use xlink:href="#DejaVuSans-69" transform="translate(1336.417969 0)"/>
     <use xlink:href="#DejaVuSans-64" transform="translate(1364.201172 0)"/>
     <use xlink:href="#DejaVuSans-65" transform="translate(1427.677734 0)"/>
    </g>
    <!-- derivative dissociation energy: -->
    <g transform="translate(144.193125 22.034625) scale(0.12 -0.12)">
     <defs>
      <path id="DejaVuSans-76" d="M 191 3500 
L 800 3500 
L 1894 563 
L 2988 3500 
L 3597 3500 
L 2284 0 
L 1503 0 
L 191 3500 
z
" transform="scale(0.015625)"/>
      <path id="DejaVuSans-3a" d="M 750 794 
L 1409 794 
L 1409 0 
L 750 0 
L 750 794 
z
M 750 3309 
L 1409 3309 
L 1409 2516 
L 750 2516 
L 750 3309 
z
" transform="scale(0.015625)"/>
     </defs>
     <use xlink:href="#DejaVuSans-64"/>
     <use xlink:href="#DejaVuSans-65" transform="translate(63.476562 0)"/>
     <use xlink:href="#DejaVuSans-72" transform="translate(125 0)"/>
     <use xlink:href="#DejaVuSans-69" transform="translate(166.113281 0)"/>
     <use xlink:href="#DejaVuSans-76" transform="translate(193.896484 0)"/>
     <use xlink:href="#DejaVuSans-61" transform="translate(253.076172 0)"/>
     <use xlink:href="#DejaVuSans-74" transform="translate(314.355469 0)"/>
     <use xlink:href="#DejaVuSans-69" transform="translate(353.564453 0)"/>
     <use xlink:href="#DejaVuSans-76" transform="translate(381.347656 0)"/>
     <use xlink:href="#DejaVuSans-65" transform="translate(440.527344 0)"/>
     <use xlink:href="#DejaVuSans-20" transform="translate(502.050781 0)"/>
     <use xlink:href="#DejaVuSans-64" transform="translate(533.837891 0)"/>
     <use xlink:href="#DejaVuSans-69" transform="translate(597.314453 0)"/>
     <use xlink:href="#DejaVuSans-73" transform="translate(625.097656 0)"/>
     <use xlink:href="#DejaVuSans-73" transform="translate(677.197266 0)"/>
     <use xlink:href="#DejaVuSans-6f" transform="translate(729.296875 0)"/>
     <use xlink:href="#DejaVuSans-63" transform="translate(790.478516 0)"/>
     <use xlink:href="#DejaVuSans-69" transform="translate(845.458984 0)"/>
     <use xlink:href="#DejaVuSans-61" transform="translate(873.242188 0)"/>
     <use xlink:href="#DejaVuSans-74" transform="translate(934.521484 0)"/>
     <use xlink:href="#DejaVuSans-69" transform="translate(973.730469 0)"/>
     <use xlink:href="#DejaVuSans-6f" transform="translate(1001.513672 0)"/>
     <use xlink:href="#DejaVuSans-6e" transform="translate(1062.695312 0)"/>
     <use xlink:href="#DejaVuSans-20" transform="translate(1126.074219 0)"/>
     <use xlink:href="#DejaVuSans-65" transform="translate(1157.861328 0)"/>
     <use xlink:href="#DejaVuSans-6e" transform="translate(1219.384766 0)"/>
     <use xlink:href="#DejaVuSans-65" transform="translate(1282.763672 0)"/>
     <use xlink:href="#DejaVuSans-72" transform="translate(1344.287109 0)"/>
     <use xlink:href="#DejaVuSans-67" transform="translate(1383.650391 0)"/>
     <use xlink:href="#DejaVuSans-79" transform="translate(1447.126953 0)"/>
     <use xlink:href="#DejaVuSans-3a" transform="translate(1499.056641 0)"/>
    </g>
    <!-- equal-weight transitions -->
    <g transform="translate(163.502813 35.472) scale(0.12 -0.12)">
     <defs>
      <path id="DejaVuSans-71" d="M 947 1747 
Q 947 1113 1208 752 
Q 1469 391 1925 391 
Q 2381 391 2643 752 
Q 2906 1113 2906 1747 
Q 2906 2381 2643 2742 
Q 2381 3103 1925 3103 
Q 1469 3103 1208 2742 
Q 947 2381 947 1747 
z
M 2906 525 
Q 2725 213 2448 61 
Q 2172 -91 1784 -91 
Q 1150 -91 751 415 
Q 353 922 353 1747 
Q 353 2572 751 3078 
Q 1150 3584 1784 3584 
Q 2172 3584 2448 3432 
Q 2725 3281 2906 2969 
L 2906 3500 
L 3481 3500 
L 3481 -1331 
L 2906 -1331 
L 2906 525 
z
" transform="scale(0.015625)"/>
      <path id="DejaVuSans-2d" d="M 313 2009 
L 1997 2009 
L 1997 1497 
L 313 1497 
L 313 2009 
z
" transform="scale(0.015625)"/>
     </defs>
     <use xlink:href="#DejaVuSans-65"/>
     <use xlink:href="#DejaVuSans-71" transform="translate(61.523438 0)"/>
     <use xlink:href="#DejaVuSans-75" transform="translate(125 0)"/>
     <use xlink:href="#DejaVuSans-61" transform="translate(188.378906 0)"/>
     <use xlink:href="#DejaVuSans-6c" transform="translate(249.658203 0)"/>
     <use xlink:href="#DejaVuSans-2d" transform="translate(277.441406 0)"/>
     <use xlink:href="#DejaVuSans-77" transform="translate(313.525391 0)"/>
     <use xlink:href="#DejaVuSans-65" transform="translate(395.3125 0)"/>
     <use xlink:href="#DejaVuSans-69" transform="translate(456.835938 0)"/>
     <use xlink:href="#DejaVuSans-67" transform="translate(484.619141 0)"/>
     <use xlink:href="#DejaVuSans-68" transform="translate(548.095703 0)"/>
     <use xlink:href="#DejaVuSans-74" transform="translate(611.474609 0)"/>
     <use xlink:href="#DejaVuSans-20" transform="translate(650.683594 0)"/>
     <use xlink:href="#DejaVuSans-74" transform="translate(682.470703 0)"/>
     <use xlink:href="#DejaVuSans-72" transform="translate(721.679688 0)"/>
     <use xlink:href="#DejaVuSans-61" transform="translate(762.792969 0)"/>
     <use xlink:href="#DejaVuSans-6e" transform="translate(824.072266 0)"/>
     <use xlink:href="#DejaVuSans-73" transform="translate(887.451172 0)"/>
     <use xlink:href="#DejaVuSans-69" transform="translate(939.550781 0)"/>
     <use xlink:href="#DejaVuSans-74" transform="translate(967.333984 0)"/>
     <use xlink:href="#DejaVuSans-69" transform="translate(1006.542969 0)"/>
     <use xlink:href="#DejaVuSans-6f" transform="translate(1034.326172 0)"/>
     <use xlink:href="#DejaVuSans-6e" transform="translate(1095.507812 0)"/>
     <use xlink:href="#DejaVuSans-73" transform="translate(1158.886719 0)"/>
    </g>
   </g>
   <g id="legend_1">
    <g id="patch_7">
     <path d="M 64.6 108.1845 
L 158.607812 108.1845 
Q 160.607812 108.1845 160.607812 106.1845 
L 160.607812 48.472 
Q 160.607812 46.472 158.607812 46.472 
L 64.6 46.472 
Q 62.6 46.472 62.6 48.472 
L 62.6 106.1845 
Q 62.6 108.1845 64.6 108.1845 
z
" style="fill: #ffffff; opacity: 0.8; stroke: #cccccc; stroke-linejoin: miter"/>
    </g>
    <g id="line2d_17">
     <path d="M 66.6 54.570438 
L 76.6 54.570438 
L 86.6 54.570438 
" style="fill: none; stroke: #0000ff; stroke-width: 1.5; stroke-linecap: square"/>
    </g>
    <g id="text_16">
     <!-- pyrazole-1 -->
     <g transform="translate(94.6 58.070438) scale(0.1 -0.1)">
      <defs>
       <path id="DejaVuSans-70" d="M 1159 525 
L 1159 -1331 
L 581 -1331 
L 581 3500 
L 1159 3500 
L 1159 2969 
Q 1341 3281 1617 3432 
Q 1894 3584 2278 3584 
Q 2916 3584 3314 3078 
Q 3713 2572 3713 1747 
Q 3713 922 3314 415 
Q 2916 -91 2278 -91 
Q 1894 -91 1617 61 
Q 1341 213 1159 525 
z
M 3116 1747 
Q 3116 2381 2855 2742 
Q 2594 3103 2138 3103 
Q 1681 3103 1420 2742 
Q 1159 2381 1159 1747 
Q 1159 1113 1420 752 
Q 1681 391 2138 391 
Q 2594 391 2855 752 
Q 3116 1113 3116 1747 
z
" transform="scale(0.015625)"/>
       <path id="DejaVuSans-7a" d="M 353 3500 
L 3084 3500 
L 3084 2975 
L 922 459 
L 3084 459 
L 3084 0 
L 275 0 
L 275 525 
L 2438 3041 
L 353 3041 
L 353 3500 
z
" transform="scale(0.015625)"/>
      </defs>
      <use xlink:href="#DejaVuSans-70"/>
      <use xlink:href="#DejaVuSans-79" transform="translate(63.476562 0)"/>
      <use xlink:href="#DejaVuSans-72" transform="translate(122.65625 0)"/>
      <use xlink:href="#DejaVuSans-61" transform="translate(163.769531 0)"/>
      <use xlink:href="#DejaVuSans-7a" transform="translate(225.048828 0)"/>
      <use xlink:href="#DejaVuSans-6f" transform="translate(277.539062 0)"/>
      <use xlink:href="#DejaVuSans-6c" transform="translate(338.720703 0)"/>
      <use xlink:href="#DejaVuSans-65" transform="translate(366.503906 0)"/>
      <use xlink:href="#DejaVuSans-2d" transform="translate(428.027344 0)"/>
      <use xlink:href="#DejaVuSans-31" transform="translate(464.111328 0)"/>
     </g>
    </g>
    <g id="line2d_18">
     <path d="M 66.6 69.248563 
L 76.6 69.248563 
L 86.6 69.248563 
" style="fill: none; stroke: #00ffff; stroke-width: 1.5; stroke-linecap: square"/>
    </g>
    <g id="text_17">
     <!-- pyrazole-2 -->
     <g transform="translate(94.6 72.748563) scale(0.1 -0.1)">
      <use xlink:href="#DejaVuSans-70"/>
      <use xlink:href="#DejaVuSans-79" transform="translate(63.476562 0)"/>
      <use xlink:href="#DejaVuSans-72" transform="translate(122.65625 0)"/>
      <use xlink:href="#DejaVuSans-61" transform="translate(163.769531 0)"/>
      <use xlink:href="#DejaVuSans-7a" transform="translate(225.048828 0)"/>
      <use xlink:href="#DejaVuSans-6f" transform="translate(277.539062 0)"/>
      <use xlink:href="#DejaVuSans-6c" transform="translate(338.720703 0)"/>
      <use xlink:href="#DejaVuSans-65" transform="translate(366.503906 0)"/>
      <use xlink:href="#DejaVuSans-2d" transform="translate(428.027344 0)"/>
      <use xlink:href="#DejaVuSans-32" transform="translate(464.111328 0)"/>
     </g>
    </g>
    <g id="line2d_19">
     <path d="M 66.6 83.926688 
L 76.6 83.926688 
L 86.6 83.926688 
" style="fill: none; stroke: #ff0000; stroke-width: 1.5; stroke-linecap: square"/>
    </g>
    <g id="text_18">
     <!-- undecanol-1 -->
     <g transform="translate(94.6 87.426688) scale(0.1 -0.1)">
      <use xlink:href="#DejaVuSans-75"/>
      <use xlink:href="#DejaVuSans-6e" transform="translate(63.378906 0)"/>
      <use xlink:href="#DejaVuSans-64" transform="translate(126.757812 0)"/>
      <use xlink:href="#DejaVuSans-65" transform="translate(190.234375 0)"/>
      <use xlink:href="#DejaVuSans-63" transform="translate(251.757812 0)"/>
      <use xlink:href="#DejaVuSans-61" transform="translate(306.738281 0)"/>
      <use xlink:href="#DejaVuSans-6e" transform="translate(368.017578 0)"/>
      <use xlink:href="#DejaVuSans-6f" transform="translate(431.396484 0)"/>
      <use xlink:href="#DejaVuSans-6c" transform="translate(492.578125 0)"/>
      <use xlink:href="#DejaVuSans-2d" transform="translate(520.361328 0)"/>
      <use xlink:href="#DejaVuSans-31" transform="translate(556.445312 0)"/>
     </g>
    </g>
    <g id="line2d_20">
     <path d="M 66.6 98.604813 
L 76.6 98.604813 
L 86.6 98.604813 
" style="fill: none; stroke: #ffa500; stroke-width: 1.5; stroke-linecap: square"/>
    </g>
    <g id="text_19">
     <!-- undecanol-2 -->
     <g transform="translate(94.6 102.104813) scale(0.1 -0.1)">
      <use xlink:href="#DejaVuSans-75"/>
      <use xlink:href="#DejaVuSans-6e" transform="translate(63.378906 0)"/>
      <use xlink:href="#DejaVuSans-64" transform="translate(126.757812 0)"/>
      <use xlink:href="#DejaVuSans-65" transform="translate(190.234375 0)"/>
      <use xlink:href="#DejaVuSans-63" transform="translate(251.757812 0)"/>
      <use xlink:href="#DejaVuSans-61" transform="translate(306.738281 0)"/>
      <use xlink:href="#DejaVuSans-6e" transform="translate(368.017578 0)"/>
      <use xlink:href="#DejaVuSans-6f" transform="translate(431.396484 0)"/>
      <use xlink:href="#DejaVuSans-6c" transform="translate(492.578125 0)"/>
      <use xlink:href="#DejaVuSans-2d" transform="translate(520.361328 0)"/>
      <use xlink:href="#DejaVuSans-32" transform="translate(556.445312 0)"/>
     </g>
    </g>
   </g>
  </g>
 </g>
 <defs>
  <clipPath id="p385a096f99">
   <rect x="57.6" y="41.472" width="357.12" height="266.112"/>
  </clipPath>
 </defs>
</svg>
